<svg xmlns="http://www.w3.org/2000/svg" width="200mm" height="200mm" viewBox="0 0 708.661 708.661">
  <path d="M298.166 35.805l-16.033 44.05A283.961 283.961 0 0071.766 380.322l-35.961 30.174 44.05 16.031a283.961 283.961 0 00300.47 210.37l30.171 35.958 16.031-44.048a283.961 283.961 0 00210.37-300.47l35.958-30.171-44.048-16.033A283.961 283.961 0 00328.34 71.766l-30.174-35.961zm51.545 102.601a216.599 193.837 80 01195.512 182.266 216.599 193.837 80 01-153.28 246.967A216.599 193.837 80 01163.44 387.99a216.599 193.837 80 01153.28-246.967 216.599 193.837 80 0132.992-2.617z"/>
  <g id="boussole">
  <path d="M305.614 326.089l-5.636 4.73-49.936 41.9 61.256 22.295 6.913 2.516 29.422-42.019-42.02-29.422z" fill="#2a4657"/>
  <path d="M340.159 244.02l-22.294 61.254-5.522 15.168v.002l47.107 32.983-32.985 47.108 10.378 12.366 41.9 49.936 22.295-61.255 5.522-15.17 12.365-10.375 49.935-41.902-61.255-22.293-15.167-5.52-10.378-12.367-41.901-49.936z"/>
</g>
</svg>