<?xml version="1.0" encoding="utf-8"?>
<!-- Generator: Adobe Illustrator 23.1.0, SVG Export Plug-In . SVG Version: 6.00 Build 0)  -->
<svg version="1.1" id="Layer_2" xmlns="http://www.w3.org/2000/svg" xmlns:xlink="http://www.w3.org/1999/xlink" x="0px" y="0px"
	 viewBox="0 0 145.8 124.7" style="enable-background:new 0 0 145.8 124.7;" xml:space="preserve">
<style type="text/css">
	.st0{fill:#B9D656;}
	.st1{fill:#33412A;}
	.st2{fill:#FDEB9F;}
	.st3{fill:#C69986;}
	.st4{fill:#6F3F2B;}
</style>
<g>
	<path class="st0" d="M51.8,21.9C51.6,22,51.5,22,51.5,22c0.7-1.5,1.4-3.1,2.1-4.7c1-2.1,2.6-3.7,4.2-5.4c0.5-0.5,1.5-0.8,2.2-0.9
		c1.5-0.3,3.1-0.4,4.6-0.6c0,0.1-0.1,0.2-0.1,0.3c0.4,0.3,0.7,0.8,1.2,0.9c0.3,0,0.6-0.6,0.9-1c2,0.4,4.2,0.4,5.9,2
		c1.6,1.5,2,3.3,2.8,5.1c1.1,2.6,1,5.3,1.1,8c0.1,1.7,0.4,3.4,0.6,5.1c0.5,3.5,1.8,6.8,3.1,10.1c0.4,1,1.1,1.9,1.5,2.9
		c0.7,1.5,1.6,3,2.1,4.6c0.7,1.8,1,3.8,1.6,5.6c1.4,3.9,1.4,7.9,1.6,12c0.1,3.2-0.2,6.3-1,9.4C85.5,77,84.7,78.5,84,80
		c-0.4,0.9-0.9,1.7-1.4,2.5c-0.2,0.3-0.7,0.5-1,0.8c-1.5,1.6-2.7,3.3-4.6,4.5c-0.8,0.5-1.4,1.4-2.1,2c-1.2,1-2.6,1.8-4.2,2.1
		c-0.9,0.2-1.8,0.7-2.7,0.9c-1.3,0.3-2.6,0.4-3.9,0.6c-0.1,0-0.3,0-0.4,0c-1.9-0.6-3.8-0.4-5.7-0.8c-1.6-0.4-3.3-0.3-4.9-0.5
		c-1.6-0.2-2.9-0.9-4.2-1.8c-0.5-0.3-0.9-0.8-1.4-1.2c-0.9-0.8-2-1.5-2.6-2.5c-1.5-2.2-2.3-4.7-2.9-7.2c-0.5-2-1-3.9-1.3-5.9
		c-0.7-3.5-0.8-7-0.4-10.6c0.4-3.3,0.7-6.6,1.3-9.8c0.5-2.7,1.2-5.3,2.6-7.8c1.2-2.2,2.2-4.5,3.1-6.8c0.4-0.9,0.5-1.9,0.8-2.9
		c0.8-3.5,1.7-7,2.5-10.5C51.3,24.1,51.5,23.1,51.8,21.9z M66.6,46.2c-0.8,0.2-1.6,0.2-2.4,0.5c-1.7,0.7-2.8,2.3-3.7,3.7
		c-1.1,1.7-1.6,3.8-2.3,5.8c-0.4,1.2-0.7,2.4-1,3.6c-0.4,1.5-0.9,3-1.2,4.5c-0.7,3.6-0.9,7.1,0.6,10.6c0.8,1.9,1.9,3.5,3.9,4.2
		c1.5,0.4,3,0.7,4.5,1c1.7,0.3,3.3-0.3,4.6-1.1c2.3-1.3,3.5-3.6,4.5-6c0.8-1.9,1.1-3.9,1.4-5.9c0.6-3.2,0.3-6.4-0.3-9.5
		c-0.2-1.2-0.6-2.4-1-3.5c-0.1-0.3-0.3-0.6-0.5-0.8c-0.8-1.2-1.5-2.4-2.3-3.5c-0.8-1.1-1.7-2.2-2.7-3.2
		C68.2,46.2,67.4,46.3,66.6,46.2z M64.7,89.7c0,0.1,0,0.1,0,0.2c0.1,0.1,0.3,0.2,0.4,0.2c2-0.2,4-0.3,5.9-0.8
		c1.2-0.3,2.3-1.1,3.4-1.7c0.6-0.3,1.3-0.7,1.8-1.1c1.9-1.5,3.2-3.5,4.4-5.5c0.8-1.3,1.5-2.6,2.1-4s1.1-2.8,1.4-4.2
		c0.3-1.6,0.3-3.2,0.4-4.8c0-0.5,0-0.9,0-1.4c-0.1-1.5-0.3-3-0.4-4.4c-0.1-1.3,0-2.6,0-3.9c0-0.1,0-0.2,0-0.3
		c-0.4-1.1-0.7-2.3-1.1-3.4c-0.5-1.5-1-3.1-1.7-4.6c-1.4-3.1-2.9-6.1-4.4-9.2C75.1,37,74.3,33,74,28.9c-0.2-3.1,0.1-6.3-1-9.3
		c-1-2.6-2.6-4.4-5.1-5.5c-0.4-0.2-0.9,0-1.3-0.1c-2.6-0.7-5-0.2-7.1,1.1c-3.1,1.8-4.6,4.7-5.2,8.2c-0.5,2.8-0.8,5.5-1.4,8.3
		c-0.5,2.5-1.3,4.9-2.5,7.1c-0.5,0.8-0.7,1.8-1,2.7c-0.4,1.2-0.5,2.5-1,3.6c-1.1,2.5-2.3,4.8-3.6,7.2c-1.1,2.1-2.1,4.2-2.4,6.6
		c-0.1,1.2-0.2,2.4-0.2,3.5c0,1.4,0,2.9,0.1,4.3c0.2,2,0.4,4,0.7,6c0.3,1.9,0.5,3.9,1,5.8c0.4,1.4,1.2,2.6,1.7,4
		c0.5,1.3,1.4,2.4,2.5,3.2c0.9,0.7,2,1.2,2.9,1.9c2.3,1.8,4.9,2.3,7.6,2.6c0.9,0.1,1.9,0,2.9,0c0.4,0,0.8,0.1,1.2,0.1
		c0-0.1,0-0.2,0-0.2c-0.2-0.1-0.5-0.1-0.7-0.2c-1-0.4-2.1,0.2-3.2-0.2c-1.5-0.5-3-0.6-4.4-1.4c-1.1-0.6-2.1-1.3-3.3-1.7
		c-1.5-0.6-2.8-1.4-3.7-2.6c-1-1.3-1.7-2.9-2.4-4.3c-1.1-2.2-1.3-4.6-1.4-7c-0.1-1.9-0.1-3.7-0.3-5.6c-0.1-1.3-0.5-2.5-0.5-3.7
		c-0.1-3,0.9-5.8,2.1-8.6c0.1-0.1,0.2-0.4,0.2-0.4c-0.5-0.6,0-1,0.2-1.5c0.4-0.8,1-1.6,1.4-2.5c0.8-1.5,1.5-3.1,2.2-4.6
		c0.3-0.5,0.6-1,0.8-1.6c0.5-1.6,0.8-3.3,1.2-4.9c0.8-2.6,1.7-5.2,2.4-7.8c0.4-1.2,0.5-2.5,0.8-3.8s0.7-2.5,0.9-3.8
		c0.3-1.6,0.6-3.3,1.5-4.7c0.1-0.2,0-0.4,0.1-0.6c0-0.2,0-0.5,0.2-0.7c0.9-1.3,2.2-2.1,3.7-2.7c1.8-0.8,3.5-1,5.4-0.5
		c0.8,0.2,1.5,0.5,2.3,0.8c1.2,0.4,2.1,1.2,2.6,2.4c0.9,2.1,1.5,4.4,1.7,6.7c0.1,1.9,0.3,3.8,0.4,5.7c0.1,2.1,0,4.3,0.9,6.3
		c1.3,2.9,2.5,5.8,3.8,8.7c1,2.1,2.2,4.2,3.1,6.3c0.7,1.7,1.2,3.4,1.6,5.2c0.4,2.2,0.6,4.4,0.8,6.7c0.1,0.8,0.2,1.7,0.1,2.5
		c-0.1,1.8-0.3,3.5-0.5,5.3c-0.3,2.4-0.9,4.8-2.1,6.9c-1.1,2-2.4,3.9-3.6,5.8c-0.2,0.3-0.5,0.6-0.8,0.8c-1.6,1-3.3,1.9-4.9,2.8
		c-1.7,0.9-3.5,1.5-5.4,1.8C65.8,89.4,65.2,89.5,64.7,89.7z"/>
	<path class="st1" d="M64.7,89.7c0.6-0.1,1.1-0.3,1.7-0.4c1.9-0.3,3.7-0.9,5.4-1.8c1.7-0.9,3.3-1.9,4.9-2.8c0.3-0.2,0.6-0.5,0.8-0.8
		c1.2-1.9,2.5-3.8,3.6-5.8c1.2-2.1,1.8-4.5,2.1-6.9c0.2-1.8,0.4-3.5,0.5-5.3c0.1-0.8,0-1.7-0.1-2.5c-0.2-2.2-0.4-4.5-0.8-6.7
		c-0.3-1.8-0.9-3.5-1.6-5.2c-0.9-2.2-2.1-4.2-3.1-6.3c-1.3-2.9-2.5-5.8-3.8-8.7c-0.9-2-0.8-4.2-0.9-6.3c-0.1-1.9-0.3-3.8-0.4-5.7
		c-0.2-2.3-0.8-4.6-1.7-6.7c-0.5-1.1-1.3-2-2.6-2.4c-0.8-0.2-1.5-0.6-2.3-0.8c-1.8-0.5-3.6-0.2-5.4,0.5c-1.5,0.6-2.8,1.4-3.7,2.7
		c-0.1,0.2-0.1,0.5-0.2,0.7c0,0.2,0,0.4-0.1,0.6c-0.9,1.4-1.2,3.1-1.5,4.7c-0.2,1.3-0.6,2.5-0.9,3.8s-0.4,2.5-0.8,3.8
		c-0.8,2.6-1.7,5.2-2.4,7.8c-0.5,1.6-0.8,3.2-1.2,4.9c-0.2,0.6-0.5,1.1-0.8,1.6c-0.7,1.5-1.5,3.1-2.2,4.6c-0.4,0.9-1,1.7-1.4,2.5
		c-0.2,0.4-0.7,0.9-0.2,1.5c0.1,0.1-0.1,0.3-0.2,0.4c-1.2,2.7-2.2,5.5-2.1,8.6c0,1.2,0.4,2.5,0.5,3.7c0.2,1.9,0.2,3.7,0.3,5.6
		c0.1,2.4,0.3,4.8,1.4,7c0.7,1.5,1.5,3,2.4,4.3c0.9,1.3,2.2,2.1,3.7,2.6c1.1,0.4,2.2,1.1,3.3,1.7c1.4,0.8,2.9,0.9,4.4,1.4
		c1.1,0.3,2.1-0.2,3.2,0.2c0.2,0.1,0.5,0.1,0.7,0.2c0,0.1,0,0.2,0,0.2c-0.4,0-0.8-0.1-1.2-0.1c-1,0-1.9,0-2.9,0
		c-2.7-0.3-5.4-0.9-7.6-2.6c-0.9-0.7-1.9-1.2-2.9-1.9c-1.1-0.8-2-1.8-2.5-3.2c-0.5-1.3-1.4-2.6-1.7-4c-0.5-1.9-0.7-3.8-1-5.8
		c-0.3-2-0.5-4-0.7-6c-0.1-1.4-0.1-2.8-0.1-4.3c0-1.2,0-2.4,0.2-3.5c0.2-2.4,1.3-4.5,2.4-6.6c1.2-2.4,2.5-4.8,3.6-7.2
		c0.5-1.1,0.6-2.4,1-3.6c0.3-0.9,0.5-1.9,1-2.7c1.2-2.2,2-4.6,2.5-7.1c0.6-2.7,0.9-5.5,1.4-8.3c0.6-3.5,2.1-6.3,5.2-8.2
		c2.2-1.3,4.6-1.8,7.1-1.1c0.4,0.1,0.9,0,1.3,0.1c2.5,1.1,4.1,2.9,5.1,5.5c1.1,3.1,0.8,6.2,1,9.3c0.2,4.1,1.1,8.1,2.9,11.9
		c1.5,3.1,3,6.1,4.4,9.2c0.7,1.5,1.1,3,1.7,4.6c0.4,1.1,0.8,2.3,1.1,3.4c0,0.1,0,0.2,0,0.3c0,1.3-0.1,2.6,0,3.9
		c0.1,1.5,0.3,3,0.4,4.4c0,0.5,0,0.9,0,1.4c-0.1,1.6-0.1,3.2-0.4,4.8c-0.3,1.5-0.8,2.9-1.4,4.2c-0.6,1.4-1.3,2.7-2.1,4
		c-1.3,2-2.5,4-4.4,5.5c-0.6,0.4-1.2,0.8-1.8,1.1c-1.1,0.6-2.2,1.4-3.4,1.7c-1.9,0.5-4,0.5-5.9,0.8c-0.1,0-0.3-0.1-0.4-0.2
		C64.6,89.8,64.7,89.7,64.7,89.7z"/>
	<path class="st1" d="M89.7,64.9c0-0.1-0.1-0.3-0.2-0.3c-0.8-0.3-0.7-0.9-0.6-1.6c0.1-0.9,0.1-1.7-0.2-2.6c-0.3-1-0.4-2.1-0.5-3.1
		c-0.1-0.9-0.1-1.8-0.2-2.7c-0.4-1.9-0.9-3.9-1.2-5.8c-0.2-1-0.6-1.6-1.3-2.3c-0.3-0.3-0.5-0.8-0.7-1.3c-0.3-0.6-0.5-1.1-0.8-1.7
		c-0.4-0.8-0.9-1.6-1.2-2.5c-0.3-0.7-0.4-1.4-0.8-2c-0.4-0.6-0.8-1.1-1-1.8c-0.3-1.5-1.4-2.8-1.4-4.4c0-0.2-0.1-0.3-0.2-0.5
		c-0.5-0.8-0.3-1.7-0.2-2.5c0.1-1.3,0-2.7-0.1-4c0-0.2-0.2-0.4-0.3-0.6c-0.2-0.6-0.3-1.2-0.4-1.8c-0.2-1.4-0.4-2.7-0.7-4.1
		c-0.1-0.4-0.1-0.8-0.1-1.2c0.1-1.2,0.2-2.5-0.9-3.3c-0.9-0.6-1.1-1.4-1.3-2.2c-0.2-0.8-0.5-1.5-1.4-1.8c-0.6-0.2-1.2-0.6-1.8-0.8
		s-1.1-0.4-1.7-0.6c-0.3-0.1-0.7,0.1-1,0.2c-0.1-0.5-0.2-0.9-0.3-1.3c-0.5-1.3-1.9-2-3.7-1.8c-1.6,0.1-2.8,1.4-3,2.9
		c0,0.3-0.3,0.5-0.4,0.8c-0.5-1.4-0.9-1.6-2.1-0.8c-0.3,0.2-0.5,0.5-0.8,0.7c-0.2,0.2-0.5,0.3-0.8,0.3c-1-0.1-1.9,0.4-2.2,1.4
		c-0.1,0.5-0.4,0.8-0.9,0.8c-0.8,0.1-1.2,0.6-1.4,1.2c-0.3,1-0.9,1.5-1.6,2.1c-0.8,0.6-1.1,1.4-1.1,2.5c0,0.3-0.1,0.6-0.3,0.8
		c-0.5,1-1.5,1.8-1.2,3.1c0.1,0.4-0.4,0.9-0.6,1.3c-0.1,0.2-0.3,0.4-0.3,0.6c0,0.7,0,1.5,0,2.2c0,0.4,0,0.9-0.2,1.2
		c-0.9,1-1.3,2.2-1,3.4c-0.4,0.4-1,0.6-1.2,1c-0.3,0.8-0.4,1.8-0.6,2.7c0,0.2-0.1,0.6-0.3,0.6c-1.1,0.3-1.2,1.2-1.2,2.1
		c0,0.5-0.2,0.8-0.6,1.1c-0.6,0.3-0.8,0.8-0.8,1.5c0,0.8,0,1.7-1.1,1.9c-0.2,0-0.5,0.3-0.5,0.6c-0.1,0.7-0.1,1.5-0.3,2.2
		c0,0.3-0.2,0.7-0.4,0.7c-0.9,0.1-1.1,0.7-1.1,1.4c0,0.5,0,1.3-0.3,1.6c-0.9,0.8-1,1.6-0.9,2.6c0,0.2,0.1,0.5,0,0.5
		c-1.1,0.7-1,1.7-0.7,2.7c0.1,0.2,0,0.4-0.1,0.6c-1.2,0.1-1.6,0.8-1.2,2.7c-0.7,0.7-0.9,1.4-0.7,2.6c0.1,0.7,0.4,1.4-0.4,1.9
		c-0.1,0.1-0.2,0.3-0.2,0.4c-0.3,0.6-0.6,1.2-0.2,2c0.2,0.5-0.3,1.4-0.4,2.1c0,0.1,0.1,0.3,0.1,0.5c0.3,0.5,0.1,0.8-0.2,1.1
		c-0.2,0.2-0.4,0.9-0.3,1c0.6,0.6,0.4,1.3,0.1,1.9c-0.1,0.3-0.1,0.5-0.2,0.8c-0.2,1,0.5,1.6,1.2,2.3c0.1,0.2,0.2,0.6,0.1,0.7
		c-0.4,0.7-0.4,1.6,0.2,2.2c0.3,0.3,0.8,0.7,0.8,1.1c0,1.1,0.4,1.8,1.2,2.5c0.2,0.2,0.3,0.4,0.4,0.7c0.3,0.5,0.7,0.9,1,1.4
		c0.1,0.2,0.4,0.4,0.4,0.6c-0.2,1.4,0.9,1.9,1.5,2.8c0.2,0.3,0.5,0.5,0.6,0.8c0.2,0.8,0.5,1.3,1.3,1.6c0.4,0.1,0.8,0.4,1,0.8
		c0.4,0.8,0.6,0.9,1.3,0.3c0.3,1,0.9,1.4,1.7,1c0.3,0.7,0.6,1.2,1.5,1.3c0.8,0.1,1.6,0.5,2.3,0.8c0.1,0,0.1,0.2,0.2,0.3
		c0.9,1.3,2.1,1.5,3.3,0.6c0,0.8,0.4,1,1.2,0.9s1.6-0.5,2.3,0.3c0.1,0.1,0.4,0,0.6,0c0.8,0.2,1.5-0.5,2.4-0.2c0.8,0.3,1.7,0.6,2.5,0
		c0.1-0.1,0.3,0,0.4,0c0.6,0.1,1.2,0.1,1.8,0.2s1.2,0,1.8,0.1c0.7,0.2,1.3,0.1,2-0.3c0.3-0.2,0.7-0.4,1-0.4c1.1,0.1,2-0.3,2.7-0.9
		c0.4-0.4,0.8-0.7,1.4-0.5c0.3,0.1,0.8-0.2,1-0.5c0.5-0.8,1.2-0.9,2-1.2c0.8-0.3,1.7-0.6,1.8-1.7c0-0.2,0.3-0.3,0.5-0.4
		c1.1-0.5,1.8-1.4,2.5-2.3c0.2-0.2,0.4-0.5,0.6-0.6c0.7-0.3,1.6-1.1,1.4-1.7c-0.3-0.8,0.3-1,0.7-1.2c1-0.4,1.3-1.2,1.4-2.1
		c0.1-0.6,0.2-1,0.7-1.3c0.8-0.7,1.2-1.5,1.1-2.6c0-0.4,0.1-0.8,0.3-1.1c0.5-0.8,0.9-1.6,0.6-2.6c-0.1-0.5,0-1,0.1-1.5
		c0.3-1.2,0.8-2.3,0.3-3.5c-0.1-0.1,0-0.4,0.1-0.5C89.9,67,89.5,65.9,89.7,64.9z M86.3,75.5c-0.4,1.6-1.2,3.1-1.9,4.6
		C84,81,83.5,81.8,83,82.6c-0.2,0.3-0.7,0.5-1,0.8c-1.5,1.6-2.7,3.3-4.6,4.5c-0.8,0.5-1.4,1.4-2.1,2c-1.2,1-2.6,1.8-4.2,2.1
		c-0.9,0.2-1.8,0.7-2.7,0.9c-1.3,0.3-2.6,0.4-3.9,0.6c-0.1,0-0.3,0-0.4,0c-1.9-0.6-3.8-0.4-5.7-0.8c-1.6-0.4-3.3-0.3-4.9-0.5
		c-1.6-0.2-2.9-0.9-4.2-1.8c-0.5-0.3-0.9-0.8-1.4-1.2c-0.9-0.8-2-1.5-2.6-2.5c-1.5-2.2-2.3-4.7-2.9-7.2c-0.5-2-1-3.9-1.3-5.9
		c-0.7-3.5-0.8-7-0.4-10.6c0.4-3.3,0.7-6.6,1.3-9.8c0.5-2.7,1.2-5.3,2.6-7.8c1.2-2.2,2.2-4.5,3.1-6.8c0.4-0.9,0.5-1.9,0.8-2.9
		c0.8-3.5,1.7-7,2.5-10.5c0.2-1,0.5-2.1,0.8-3.2c-0.2,0-0.3,0-0.3,0c0.7-1.5,1.4-3.1,2.1-4.7c1-2.1,2.6-3.7,4.2-5.4
		c0.5-0.5,1.5-0.8,2.2-0.9c1.5-0.3,3.1-0.4,4.6-0.6c0,0.1-0.1,0.2-0.1,0.3c0.4,0.3,0.7,0.8,1.2,0.9c0.3,0,0.6-0.6,0.9-1
		c2,0.4,4.2,0.4,5.9,2c1.6,1.5,2,3.3,2.8,5.1c1.1,2.6,1,5.3,1.1,8c0.1,1.7,0.4,3.4,0.6,5.1c0.5,3.5,1.8,6.8,3.1,10.1
		c0.4,1,1.1,1.9,1.5,2.9c0.7,1.5,1.6,3,2.1,4.6c0.7,1.8,1,3.8,1.6,5.6c1.4,3.9,1.4,7.9,1.6,12C87.4,69.3,87.1,72.5,86.3,75.5z"/>
	<path class="st2" d="M83.4,61.1L83.4,61.1c-0.4-5.6-2.2-10.9-4.6-15.9c-0.9-1.9-1.9-3.8-3.1-5.3c0-0.9-0.2-1.8-0.6-2.8
		c-0.3-0.8-0.7-1.5-1.2-2c0-1.1,0-2.1,0.1-3.3c0.1-0.9-0.1-1.8-0.3-2.5c0.1-5-0.3-10.2-3.7-13.1c-5.7-4.9-12.9,0-14.5,6.2
		c-0.3,1-0.3,1.9-0.1,2.7c-0.2,0.5-0.3,1-0.4,1.6c-0.2,2-1.3,4.3-1.6,6.3c-0.5,2.8-1.1,5.6-2.4,8.1c-0.4,0.8-0.6,1.6-0.7,2.4
		c0,0.1,0,0.1-0.1,0.2c-1,2.5-1.8,4.9-3.3,7.1c-1.2,1.9-2.3,3.6-3,5.8c-1.4,4.8-0.6,9.8,0.2,14.6c0,0.2,0.1,0.3,0.1,0.5
		c-0.1,0.5-0.1,0.9-0.1,1.4c0.5,3.4,0.8,7.3,2.9,10.3c1.8,2.7,4.9,3.2,7.6,4.8c2.8,1.7,5.7,1.9,9,1.7c3.4-0.2,6.2-1.6,9.4-2.4
		c0.8-0.2,1.5-0.6,2.1-1c4.1-2.1,6.5-7.3,7.8-11.5C84.5,70.4,84.2,65.8,83.4,61.1z"/>
	<g>
		<path class="st3" d="M64.7,53.7c0.1,1.3,0,2.7,0.3,4c0.5,2.3,0.1,4.5-0.5,6.7c-0.3,1.2-0.7,2.4-1.1,3.6c-0.2,0.6-2.1,2-2.7,2
			c-1.1,0-1.4-0.9-1.8-1.7c-1.2-2.2-1.1-4.5-0.2-6.8c0.6-1.5,0.8-3.1,1.3-4.6c0.8-2.3,1.7-4.5,3.3-6.4c0.4-0.5,0.9-0.2,1.1,0.2
			c0.3,1,0.4,2,0.5,2.9C64.8,53.7,64.7,53.7,64.7,53.7z"/>
		<path class="st4" d="M75.2,57.6c-0.2-1.2-0.6-2.4-1-3.5c-0.1-0.3-0.3-0.6-0.5-0.8c-0.8-1.2-1.5-2.4-2.3-3.5
			c-0.8-1.1-1.7-2.2-2.7-3.2c-0.4-0.4-1.3-0.3-2-0.4c-0.8,0.2-1.6,0.2-2.4,0.5c-1.7,0.7-2.8,2.3-3.7,3.7c-1.1,1.7-1.6,3.8-2.3,5.8
			c-0.4,1.2-0.7,2.4-1,3.6c-0.4,1.5-0.9,3-1.2,4.5c-0.7,3.6-0.9,7.1,0.6,10.6c0.8,1.9,1.9,3.5,3.9,4.2c1.5,0.4,3,0.7,4.5,1
			c1.7,0.3,3.3-0.3,4.6-1.1c2.3-1.3,3.5-3.6,4.5-6c0.8-1.9,1.1-3.9,1.4-5.9C76.1,63.9,75.8,60.8,75.2,57.6z M60.7,70.1
			c-1.1,0-1.4-0.9-1.8-1.7c-1.2-2.2-1.1-4.5-0.2-6.8c0.6-1.5,0.8-3.1,1.3-4.6c0.8-2.3,1.7-4.5,3.3-6.4c0.4-0.5,0.9-0.2,1.1,0.2
			c0.3,1,0.4,2,0.5,2.9c-0.1,0-0.1,0-0.2,0c0.1,1.3,0,2.7,0.3,4c0.5,2.3,0.1,4.5-0.5,6.7c-0.3,1.2-0.7,2.4-1.1,3.6
			C63.2,68.7,61.3,70.1,60.7,70.1z"/>
	</g>
</g>
</svg>
