<?xml version="1.0" encoding="utf-8"?>
<!-- Generator: Adobe Illustrator 23.1.0, SVG Export Plug-In . SVG Version: 6.00 Build 0)  -->
<svg version="1.1" id="Layer_1" xmlns="http://www.w3.org/2000/svg" xmlns:xlink="http://www.w3.org/1999/xlink" x="0px" y="0px"
	 viewBox="0 0 145.8 124.7" style="enable-background:new 0 0 145.8 124.7;" xml:space="preserve">
<style type="text/css">
	.st0{fill:#B9D656;}
	.st1{fill:#FDEB9F;}
	.st2{fill:#33412A;}
	.st3{fill:#C69986;}
	.st4{fill:#6F3F2B;}
</style>
<g>
	<path class="st0" d="M116.8,15.1c-0.1-0.1-0.3-0.3-0.5-0.4c-0.2-0.5-0.5-0.9-0.9-1.2c-0.3-0.3-0.7-0.5-1-0.8
		c-0.8-0.5-1.6-0.7-2.5-0.7c-0.4,0.1-0.9,0.1-1.3,0.2c-0.3,0.1-0.7,0.2-1,0.4c-1.6-0.5-3.4-0.3-4.9,1.1c-2.5,2.3-4.4,5.3-6.9,7.6
		c-1.5,1.3-2.9,2.6-4.1,4.1l0,0c-0.3,0-0.7,0-1,0.1c-1.4,0.2-2.4,0.2-3.8-0.3c-1.1-0.3-2.1-0.4-2.9-1.2c-0.1-0.1-0.2-0.1-0.2-0.2
		c0.2-0.9,0.3-1.8,0.5-2.6c0.4-2.7-0.7-5.4-3.5-6.2c-1.9-0.5-4.4,0.3-5.5,2c-1,0.2-1.8,0.7-2.4,1.3c-0.9,0-1.8,0.2-2.5,0.7
		c-0.8,0.5-1.4,1.2-1.8,2c-1-2-2-4-2.9-6c-0.9-2.1-3.7-2.8-5.8-2.2c-0.6-0.4-1.2-0.6-1.9-0.8c-0.1-0.9-0.8-1.6-1.9-1.6
		c-1.4,0-2,1.2-1.9,2.2c-0.1,0-0.1,0.1-0.2,0.1c-1.1,0.2-1.9,0.8-2.5,1.5c-1.5,0.3-2.5,1.2-3.1,2.4c-1.5,1-2.5,2.7-2.3,4.5
		c-0.3-0.1-0.6-0.2-1-0.2c-1.3-0.3-2.6-0.2-3.9,0.5c-1,0.6-2,1.8-2.3,3c-0.3,0-0.6-0.1-0.8-0.1c-0.7-0.1-1.4,0.1-2,0.4
		c-0.3-0.2-0.7-0.2-1.1-0.2c-0.1,0-0.2,0-0.3,0c-0.2,0-0.3-0.1-0.5-0.2c-0.6-0.3-1.2-0.6-1.7-0.9c-0.1-0.1-0.1-0.1-0.2-0.2
		c-0.4-0.4-0.9-0.6-1.4-0.6c-0.2,0-0.5,0.1-0.7,0.1c-0.1,0-0.2,0-0.4,0c-0.5,0-1.1,0.2-1.4,0.6s-0.6,0.9-0.6,1.4s0.2,1.1,0.6,1.4
		c1.2,1.1,2.5,2.1,3.7,3.1c0.2,0.2,0.4,0.3,0.6,0.4c0.1,0.1,0.2,0.1,0.3,0.1c0.2,1.6,1,2.8,2.3,3.5c0,0.3-0.1,0.5-0.1,0.8
		s0.1,0.7,0.1,1c-1.2,0.8-2,2-2.3,3.4c-0.8,0.1-1.6,0.3-2.4,0.4l-0.1-0.1c-0.5-0.3-1-0.3-1.5-0.2c0.6-0.1-0.1,0-0.2,0
		c-0.2,0-0.4,0-0.6,0c-0.1,0-0.3,0-0.4,0l0,0c-0.1,0-0.1,0-0.2,0c-0.3-0.1-0.7-0.2-1-0.3c-0.1,0-0.2-0.1-0.3-0.1
		c0.4,0.2,0.3,0.1-0.2-0.1c-0.1-0.1-0.3-0.1-0.4-0.1c-0.7-0.1-1.4,0-2.1,0.3c-0.3,0.1-0.5,0.3-0.8,0.5c0,0-0.1,0-0.1,0.1l0,0
		c-0.1,0-0.3,0.1-0.4,0.1s-0.1,0-0.2,0s-0.7-0.1-0.2,0c-0.5-0.1-1-0.1-1.5,0.2c-0.2,0.1-0.4,0.3-0.6,0.6c-0.1,0-0.2,0.1-0.3,0.1
		c-0.2,0.1-0.4,0.3-0.6,0.5s-0.3,0.4-0.4,0.7c0,0.2,0,0.4-0.1,0.5c0,0.4,0.1,0.7,0.3,1c0.1,0.1,0.2,0.3,0.3,0.4
		c0.1,0.1,0.2,0.1,0.2,0.2c0,0.1,0.1,0.2,0.1,0.3c0.1,0.2,0.2,0.4,0.4,0.5c0.2,0.1,0.4,0.3,0.5,0.4c0.3,0.2,0.5,0.4,0.8,0.6
		c0.2,0.1,0.5,0.2,0.7,0.2s0.4,0,0.6,0c-1.1,0.3-1.9,0.9-2.5,1.7c-0.9,0.4-1.6,1.1-2.1,1.9c-0.4,0-0.9,0.1-1.3,0.1
		c-1,0-1.8,0.3-2.4,0.7c-1.4-0.2-2.8-0.5-4.3-1c-1.7-0.6-3.2-0.2-4.3,0.7c-6.2-0.5-6.2,9.4,0.1,10c1.3,0.1,2.5,0.2,3.8,0.3
		c0.2,1.6,1.2,3.1,2.7,3.8c-0.1,0.9-0.1,1.8,0.2,2.6c-1.2,0.4-2.1,1.1-2.5,2c-2.1,2.9-0.9,8.2,3.8,8.2c1.2,0,2.2-0.4,3-0.9
		c3.1-0.6,6.1-1.3,9.2-1.9c0.4,0.7,0.9,1.4,1.4,2c0.4,0.6,0.9,1.2,1.4,1.7c0.2,0.1,0.3,0.3,0.5,0.4c0.3,0.4,0.7,0.8,1.2,1.1
		c0,0.4,0.1,0.8,0.1,1.2c-0.2,0.7-0.2,1.5-0.1,2.3c-0.9,0.6-1.7,1.2-2.6,1.8c-2.7,1.9-4.6,5.1-6.7,7.6c-1.7,2.1-2,5,0,7.1
		c0.7,0.7,1.8,1.2,2.8,1.4c0.6,0.2,1.2,0.3,1.9,0.3c3.2,0,4.8-2.5,4.8-5c1.2-1.5,2.4-2.9,3.9-3.8c2.5-1.5,4.7-3.3,6.8-5.3
		c0,1.1,0.5,2.2,1.5,3.2c1.1,1.1,2.3,1.5,3.4,2.4c1,0.7,1.8,1.7,2.8,2.4c1.3,0.8,2.9,1.4,4.6,1.8c0.8,1.1,2,1.9,3.7,2
		c3.6,0.3,7.1-0.3,10.6-1.2c0.2,1.6,1.1,3.1,2.6,3.8c0.4,2.3,2.6,4.3,4.9,4.2c2.8-0.1,4.9-2.2,5-5c0-0.3,0-0.7,0.1-1
		c3.2-0.9,6.4-1.2,9.8-0.9c0.6,0,1.2,0,1.7-0.1c0.5,0.4,1,0.9,1.4,1.3c1,0.9,2.1,1.5,3.5,1.5c1.2,0,2.7-0.5,3.5-1.5
		c0.9-0.9,1.5-2.1,1.5-3.4c0.9-1.7,0.9-4-0.2-5.6c0.2-1.1,0.1-2.3-0.6-3.3c-0.8-1.1-1.6-2.2-2.5-3.1c-0.1-0.1-0.2-0.1-0.2-0.2
		c0.3-0.7,0.5-1.4,0.6-2.2c1.9-0.4,3.1-1.7,3.6-3.3c0.8-0.2,1.5-0.6,2-1.2c1.8-2,2-5.1,0-7.1c-1-1-1.9-2-2.9-3l0,0
		c0.5-1.5,0.2-3.1-0.6-4.4c0.5-0.6,1-1.1,1.5-1.7c0.2-0.2,0.4-0.5,0.5-0.7c2.5-1,4.9-2.1,7.2-3.4c4.8-2.5,1.9-9.1-2.5-9.2
		c-0.5-0.2-1-0.4-1.5-0.6c-0.3-0.1-0.6-0.2-0.9-0.4l0,0c0,0-0.1-0.2-0.2-0.4s-0.2-0.7-0.2-0.7c-0.4-1.4-1.4-2.5-2.7-3.2
		c0.7-3.5,1.8-6.8,3.6-10c0.1-0.2,0.2-0.4,0.3-0.6c0.7-0.4,1.4-1,1.8-1.8c0.6-1.1,1.1-2.4,1.8-3.5c1.7-1,3.2-2.2,4.5-3.7
		C118.6,20.1,118.8,17.1,116.8,15.1z"/>
	<path class="st0" d="M116.8,77.7c-0.2-0.8-0.8-1.5-1.9-1.5c-0.6,0-1.1,0.3-1.5,0.6c-0.2,0-0.3-0.1-0.5-0.1c-0.9,0-1.5,0.5-1.8,1.2
		c-0.4,0.1-0.8,0.3-1,0.6c-0.3,0.3-0.6,0.9-0.6,1.4s0.2,1.1,0.6,1.4c0.1,0.1,0.3,0.2,0.4,0.3c0.3,0.2,0.6,0.3,1,0.3
		c0.3,0,0.7,0.1,1,0c0.5,0,1-0.1,1.5-0.2s0.9-0.3,1.3-0.5s0.8-0.5,1.2-0.8c0.2-0.2,0.3-0.4,0.4-0.6s0.2-0.5,0.2-0.8
		C117.2,78.5,117,78.1,116.8,77.7z"/>
</g>
<g id="Layer_3">
	<g>
		<path class="st1" d="M40,72.7C39.8,72.7,39.6,72.9,40,72.7L40,72.7z"/>
		<path class="st1" d="M98.3,56.4C97.2,56.6,96,57,95,57.5c-0.2,0.1-1.4,0.8-1.9,1.2c-0.7-0.1-2.2,0-2.4,0c-1.3,0-2.6-0.1-3.9-0.2
			l0,0c0-0.6-0.2-1.2-0.6-1.6c-0.7-0.9-1.8-1.5-2.4-2.4c-0.3-0.4-0.5-1.3-0.5-2c-0.3-2.4,0.2-4.4,1.6-6.3c0.6-0.9,0.8-1.8,0.7-2.6
			c1.9-1.1,3.5-2.7,5.8-3.8c1.8-0.9,2.3-2.5,1.9-4c0.7-0.3,1.1-0.9,1.2-1.6c0.1-0.8-0.3-1.5-1-2c-0.9-0.6-2.3-0.7-3.3-0.3
			c-0.5,0.2-0.9,0.4-1.4,0.6c-0.5,0-1,0.2-1.5,0.4c-3.5,1.7-4.8,4.2-9.1,4.2c-1.1,0-2.1,0-3.2,0.1c-0.3-0.4-0.7-0.8-1.2-1.2
			c-1.4-0.9-2-3-3.1-4.3c0-0.1-0.3-0.4-0.5-0.6c-0.3-1.2-0.9-2.3-1.6-3.2l-0.1-0.1c0.2-0.5,0.4-1.1,0.4-1.8
			c-0.1-5-4.6-11.3-10.1-9.7c-2.4,0.7-5.1,1.4-6.7,3.4c-1.6,2.1-1.2,5.1-1.9,7.6c-0.2,0.7-0.2,1.4,0,1.9c-0.2,0.5-0.3,1-0.4,1.6
			c-0.2,4.2,0.8,8.4,0.9,12.6c-0.5,0.6-0.8,1.4-0.8,2.3c-0.1,0.8,0,1.6,0.1,2.4c-1.1,3.2-2,6.6-4.1,9.3c-0.4,0.5-0.7,1-0.9,1.5
			c-4.3,3-10.1,2.6-15.1,2.4c-2-0.1-3.2,1.1-3.6,2.5c-3.9-1-8.4,0.9-11.3,3.5c-0.8,0.7-0.8,2.1,0,2.8c0.8,0.8,2,0.7,2.8,0
			c0.2-0.2,0.3-0.3,0.5-0.4l0.4-0.3c0.4-0.3,0.9-0.5,1.3-0.8l0.5-0.2c0.2-0.1,0.3-0.1,0.5-0.2c0.5-0.2,1-0.3,1.5-0.4
			c0.2,0,0.4-0.1,0.6-0.1c0.1,0,0.4,0,0.5,0c0.4,0,0.8,0,1.1,0c0.1,0,0.4,0.1,0.5,0.1c0.2,0,0.4,0.1,0.6,0.2l0.4,0.2
			c0.1,0.1,0.2,0.1,0.3,0.2l0,0c0.4,0.4,1,0.6,1.5,0.6c0.5,0.3,1.1,0.5,1.8,0.5c2.9,0.1,5.8,0.1,8.5-0.2c-0.5,0.2-1.1,0.5-1.6,0.7
			c-1.2,0.6-2.4,1.3-3.5,2.1c-0.9,0.6-1.3,1.8-0.7,2.7c0.6,0.9,1.8,1.3,2.7,0.7c0.9-0.6,1.9-1.2,2.8-1.7c0.5-0.3,0.9-0.5,1.4-0.8
			c0.1-0.1,0.2-0.1,0.3-0.2c0,0,0,0-0.1,0l0,0c0.2-0.1,0.4-0.1,0.5-0.1s0.3,0,0.4,0c0.5,0,1.1-0.1,1.5-0.4c0.2,0.2,0.5,0.4,0.7,0.6
			c0.1,0.1,0.7,0.6,0.3,0.3c0.1,0.1,0.1,0.2,0.2,0.4c-0.1-0.3-0.1-0.3,0,0c0.5,1.3,0.7,2.8,1.6,4c0.2,0.2,0.4,0.5,0.6,0.7
			c0.2,0.6,0.4,1.3,0.7,2c0.1,0.3,0.1,0.3,0,0c0,0.1,0.1,0.3,0.1,0.4c0.1,0.4,0.2,0.8,0.3,1.2c0.3,1,0.7,1.8,1.3,2.6
			c0.3,1.4,1,2.6,2.1,3.6c0.1,0.7,0.5,1.4,1.2,2c6.3,5.3,16.7,3.1,24,1.3c1.2-0.3,1.9-0.9,2.4-1.7c0.5-0.4,1-0.8,1.3-1.4l0.1-0.1
			l0,0c0,0,0,0,0-0.1c0.1-0.1,0.3-0.3,0.4-0.4c0.6-0.7,1.1-1.4,1.4-2.3c1.4-1,2.7-2.3,3-4.1c0.1-0.3,0.1-0.7,0.1-1.1
			c1.1-1.4,1.8-3.1,2.7-4.7c1.2-2.1,2.6-4,4.3-5.8c0.4-0.4,0.6-0.7,0.8-1.1c1.4-0.1,2.5-0.8,3-1.8c2-0.4,3.4-2,5.5-2.4
			C105.5,63.1,103.3,55.4,98.3,56.4z M70.1,74.5c-1.9,0-3.9,0-5.8,0c0-0.2,0.1-0.4,0.1-0.6c0-1.4-0.6-2.4-1.5-3.1
			c5.6,1.7,7.5-7.7,8.3-11.6c0.6-2.9,1.4-6.3,0.2-9.2c0.1,0,0.1,0.1,0.2,0.1c1.2,0.6,2.4,0.9,3.7,0.8c0,0.7,0,1.4,0.1,2.1
			c0.2,1.8,0.4,3.7,1.3,5.3c0.4,0.7,0.9,1.3,1.4,1.9c0,0.3-0.1,0.7,0,1.1C78.7,66.3,76.2,74.4,70.1,74.5z"/>
	</g>
	<path class="st1" d="M77.1,23.3c-5.1,0-5.2,8,0,8S82.3,23.3,77.1,23.3z"/>
	<path class="st1" d="M112.7,13.1c-0.5-0.2-1.1-0.1-1.7,0.1c-0.3,0.1-0.6,0.2-0.8,0.3c-0.4,0.2-0.8,0.3-1.2,0.5
		c-0.1,0.1-0.2,0.1-0.3,0.2c-0.4,0.1-0.8,0.2-1.2,0.4c-0.1,0-0.1,0-0.2,0c-0.4,0.1-0.8,0.3-1.1,0.6c-0.3,0.3-0.5,0.7-0.6,1
		c-0.2,0.1-0.4,0.3-0.5,0.5c-0.2,0.2-0.3,0.4-0.4,0.7c-0.1,0.2-0.1,0.4-0.1,0.6c0,0-0.1,0-0.1,0.1c-0.1,0.1-0.3,0.2-0.4,0.3
		c-0.2,0.2-0.3,0.3-0.4,0.5c-0.1,0.3-0.3,0.5-0.4,0.7c-0.2,0.2-0.4,0.4-0.6,0.6s-0.3,0.4-0.4,0.6s-0.2,0.5-0.2,0.8s0,0.5,0.2,0.8
		c0.1,0.2,0.2,0.5,0.4,0.6c0.1,0.1,0.3,0.2,0.4,0.3c0.3,0.2,0.6,0.3,1,0.3l0.5-0.1c0.2-0.1,0.5-0.2,0.6-0.3c0.6,0.6,1.5,0.9,2.6,0.9
		c2.1,0,3.3-1.3,3.7-2.9c1.1-0.8,1.6-2.3,1.5-3.6c0.1,0,0.2-0.1,0.2-0.1c0.5-0.4,0.9-0.8,1-1.4C114.7,15,114,13.5,112.7,13.1z"/>
	<path class="st1" d="M42.6,25.7c-0.6,0-1,0.1-1.5,0.3c-0.1,0-0.2-0.1-0.4-0.1c-0.5-0.1-0.7-0.1-1.2,0c-0.2,0-0.4,0.1-0.6,0.2
		c-0.2,0.1-0.3,0.2-0.4,0.3c0,0,0,0-0.1,0.1c-0.2,0.3-0.2,0.4-0.3,0.7c0,0.1-0.1,0.2-0.1,0.3c-0.1,0.3-0.1,0.5,0,0.8
		c0,0.3,0.1,0.5,0.2,0.7c0.1,0.2,0.3,0.4,0.5,0.6c0,0,0.1,0,0.1,0.1c0,2,1.3,4,3.9,4C47.8,33.7,47.8,25.7,42.6,25.7z"/>
	<path class="st1" d="M12.4,49.8c-0.7-0.2-1.4-0.2-2.2-0.1C9.8,49.8,9.4,50,9,50.1c-0.5,0.2-1,0.4-1.5,0.6c-0.3,0.2-0.6,0.4-0.8,0.6
		c-0.1,0.1-0.2,0.2-0.4,0.4c-0.3,0.3-0.6,0.6-0.7,1c-0.1,0.5-0.1,1.1,0.2,1.5S6.5,55,7,55.1s1.1,0.1,1.5-0.2
		c0.3-0.2,0.5-0.4,0.7-0.6c0.1-0.1,0.1-0.1,0.2-0.2c0.1,0,0.1-0.1,0.2-0.1c0.2-0.1,0.5-0.2,0.7-0.2c0.2-0.1,0.5-0.2,0.7-0.2
		c0.1,0,0.1,0,0.2,0c0.5,0.2,1.1,0,1.5-0.2s0.8-0.7,0.9-1.2C14.1,51.2,13.5,50.2,12.4,49.8z"/>
	<path class="st1" d="M42.1,52.1C42,52,42,52,41.9,51.9c0.4-1,0.1-2-0.8-2.6c-1.2-0.8-2.6-1-4-1.1c-1.4,0-2.8,0-4.2,0
		c-2.8,0.2-5.6,0.8-7.9,2.4c-0.9,0.6-1.3,1.7-0.7,2.7c0.5,0.9,1.9,1.4,2.7,0.7c1.5-1.1,3.3-1.6,5.2-1.8c0.3,0.1,0.5,0.2,0.8,0.2h0.1
		l0,0c0.2,0,0.3,0,0.5,0.1c0.4,0.1,0.7,0.1,1.1,0.2c0.6,0.1,1.3,0.3,1.9,0.5c0.1,0,0.2,0.1,0.3,0.1c0,0,0.1,0,0.1,0.1
		c0.3,0.1,0.5,0.3,0.8,0.4c0.3,0.1,0.5,0.3,0.8,0.5c0.1,0.1,0.3,0.2,0.4,0.3l0.1,0.1c0.4,0.3,0.8,0.6,1.4,0.6c0.5,0,1.1-0.2,1.4-0.6
		C42.8,54.2,43,52.8,42.1,52.1z"/>
	<path class="st1" d="M25.9,91.2c-2.6,0-2.6,4,0,4S28.5,91.2,25.9,91.2z"/>
	<path class="st1" d="M100.6,72.7c-0.4-1.1-1.4-1.6-2.5-1.4c-1.4,0.3-2.8,0.9-4,1.5c-1.2,0.5-2.3,1.2-3.3,1.9
		c-0.4,0.3-0.8,0.6-0.9,1.2c-0.1,0.5-0.1,1.1,0.2,1.5c0.3,0.4,0.7,0.8,1.2,0.9s1.1,0.1,1.5-0.2c1-0.7,2-1.4,3.1-1.9
		c0.1-0.1,0.7-0.3,0.1-0.1c0.1,0,0.2-0.1,0.4-0.1c0.3-0.1,0.6-0.3,0.9-0.4c0.6-0.2,1.2-0.4,1.8-0.5c0.5-0.1,1-0.5,1.2-0.9
		C100.7,73.8,100.8,73.2,100.6,72.7z"/>
	<path class="st1" d="M96.6,84.3c-0.4-0.4-0.9-0.5-1.4-0.6c-0.9-0.1-1.8,0-2.7,0.2c-0.8,0-1.6,0-2.4,0c-0.2,0-0.5,0-0.7,0
		c-0.6,0-1.2,0.2-1.7,0.7c-0.3,0.3-0.6,0.8-0.6,1.2c0,0.1,0,0.3,0,0.4c-0.2,0.3-0.4,0.6-0.5,0.8c-0.1,0.5-0.1,1.1,0.2,1.5
		c0.1,0.1,0.2,0.3,0.3,0.4c0.2,0.3,0.4,0.5,0.7,0.7c0.5,0.3,1,0.3,1.5,0.2c0.7-0.1,1.3-0.5,1.9-0.9c0.4-0.3,0.8-0.5,1.3-0.8
		c0.2-0.1,0.4-0.1,0.6-0.2c0.3,0,0.5-0.1,0.8-0.2c0.5,0,0.9,0,1.4,0s1.1-0.3,1.4-0.6c0.3-0.3,0.6-0.9,0.6-1.4
		C97.1,85.2,97,84.7,96.6,84.3z"/>
</g>
<g>
	<path class="st2" d="M54.4,12.3c-0.6-0.1-1,0.1-1.2,0.7c-0.1,0.2-0.3,0.3-0.5,0.5c-0.3-0.3-0.6-0.6-1.1-0.5s-0.8,0.3-1,0.7
		s-0.3,0.8-0.4,1.1c-0.4,0.1-0.8,0.1-1.2,0.3c-0.3,0.1-0.6,0.4-0.9,0.7c-0.1,0.1-0.3,0.2-0.3,0.4c0,0.6-0.5,0.9-0.9,1.2
		c-0.4,0.3-0.7,0.8-0.6,1.3c0,0.5-0.2,0.6-0.6,0.7c-1.5,0.5-2.8,1.2-4.1,2c-0.5,0.3-0.9,0.7-1.2,1.2c-0.9,1.1-2.1,1.1-3.3,1.2
		c-0.2,0-0.5-0.2-0.7-0.3c-0.9-0.4-1.7-0.7-2.6-1.1c-0.8-0.3-1.6-0.3-2.4-0.1c-1.4,0.3-2.2,1.5-2,2.9c0.2,1.3,0.9,2.3,1.7,3.3
		c0.4,0.5,0.8,0.9,1.2,1.4c0.7,0.8,1.5,1.5,2.1,2.3c0.9,1.1,1.3,2.3,1.1,3.7c-0.1,1-0.7,1.6-1.7,2c-1.2,0.4-2.4,0.4-3.6,0.3
		c-1.2-0.2-2.4-0.4-3.6-0.6c-2.3-0.3-4.3,0.3-6.1,1.6c-0.9,0.6-1.2,2-0.8,3c0.1,0.2,0.2,0.3,0.3,0.5c0.6,0.6,1.3,1.2,1.9,1.8
		c0.9,0.9,0.8,1.9-0.3,2.6c-1.3,0.9-2.7,1.4-4.3,1.4c-0.5,0-1,0.1-1.4,0.1c-0.5,0-1.1-0.1-1.6-0.3c-2.4-0.7-4.9-0.9-7.3,0
		c-1.3,0.5-2.4,1.3-3.4,2.3c-0.5,0.5-0.7,1.2-0.8,2c0,0.4-0.1,0.8-0.2,1.2c-0.2,1.4-0.2,2.8,0.7,4c0.3,0.4,0.4,0.8,0.6,1.2
		c0.5,0.7,1.1,1.3,1.9,1.6c0.1,0,0.3,0.1,0.3,0.2c0.9,1,2.1,0.9,3.3,1c0.3,0,0.6,0,1,0c1.6,0,2.4,1,3,2.2c0.3,0.5,0.3,1,0,1.5
		c-0.2,0.4-0.5,0.9-0.9,1.3c-0.5,0.6-1,1.1-1.5,1.7c-0.8,0.9-0.9,1.9-0.7,3c0,0.2,0.1,0.3,0.1,0.5c-0.2,1.2,0.7,2,1.3,2.9
		c0.2,0.3,0.4,0.6,0.7,0.9c0.3,0.2,0.5,0.4,0.9,0.5c1.2,0.3,2.3,0.6,3.5,0.7c0.6,0.1,1.3,0,2-0.1c0.6-0.1,1.2-0.1,1.8-0.2
		c1.1-0.2,2.2-0.5,3.4-0.8c1.6-0.4,3.2-0.7,4.9-0.2c0.5,0.2,0.9,0.4,1.3,0.8c0.4,0.5,0.8,1.1,1.3,1.6c0.7,0.7,1,1.5,0.7,2.5
		c-0.3,1.2-0.7,2.4-1.7,3.3c-0.7,0.6-1.3,1.3-1.9,2.1c-0.7,0.8-1.5,1.5-2.3,2.2c-1,0.8-1.9,1.7-2.8,2.6c-0.2,0.2-0.3,0.4-0.4,0.7
		c-0.4,1.2-0.8,2.3-1.3,3.5c-0.3,0.8-0.4,1.7-0.2,2.6c0.2,1.2,0.9,2.3,2.1,2.8c1.5,0.6,3.2,0.7,4.9,0.9c0.2,0,0.5-0.1,0.7-0.2
		c0.9-0.3,1.8-0.5,2.5-1.2c0.4-0.4,0.9-0.8,1.3-1.2c0.4-0.4,0.7-0.8,1.1-1.2c0.4-0.4,0.7-0.9,0.9-1.4c0.4-1.1,1.1-2,2-2.7
		c0.6-0.5,1.2-1.1,1.7-1.7c0.7-0.8,1.6-1.1,2.6-1.1c0.1,0,0.2,0,0.2,0c1.6,0.1,1.6,0.1,2.1,1.6c0.1,0.4,0.4,0.8,0.6,1.1
		c0.3,0.4,0.8,0.6,1.3,0.6c0.2,0,0.5-0.1,0.7-0.1c0.2,0.3,0.2,0.7,0.5,1c0.2,0.3,0.5,0.5,0.9,0.7s0.7,0.3,1,0.4
		c0.5,0.1,0.9,0.3,1.2,0.8c0.3,0.6,1.3,0.8,1.9,0.6c0.4-0.2,0.8-0.1,1.1,0.2c0.1,0.1,0.2,0.2,0.2,0.2c0.7,0.8,1.5,1,2.5,0.6
		c0.6,0.8,1.5,1,2.5,1.1c0.3,0,0.7,0,0.8-0.2c0.4-0.4,0.8-0.3,1.2-0.1c0.5,0.2,1,0.3,1.6,0.3c0.3,0,0.6,0,0.9-0.2
		c0.4-0.2,0.6-0.2,1,0.1c1,0.7,1.5,0.6,2.5-0.4c0.7,0.3,1.3,0.3,2.1,0c0.2-0.1,0.4,0,0.6,0.1c1.4,0.8,2.7,1.7,3.7,2.8
		c0.5,0.6,0.8,1.3,1.2,1.9c0.8,1.3,1.8,2.5,2.9,3.5c1,0.9,2,1,3.2,0.5c0.2-0.1,0.3-0.2,0.4-0.3c1.5-1.3,2.4-2.9,2.9-4.8
		c0.2-0.7,0.4-1.4,0.7-2.1c0.5-1.2,1.4-1.8,2.7-1.9c1.2-0.2,2.3-0.2,3.4,0.1c0.2,0.1,0.4,0,0.6,0c0.4,0,0.8,0.1,1.2,0.2
		c0.5,0.1,0.9,0.3,1.5,0.3c0.5,0,1.1,0.3,1.6,0.6c0.9,0.5,1.8,0.8,2.9,0.8c1.6-0.1,3.3-0.1,4.8-0.9c0.3-0.2,0.6-0.4,0.9-0.6
		s0.4-0.5,0.7-0.6c0.7-0.4,1.1-1.1,1.5-1.8c1.1-2.2,0.9-4.3-0.1-6.5c-0.5-1-1.1-2-1.5-3c-0.5-1.1-1-2.3-1.4-3.5
		c-0.2-0.5-0.1-1.1-0.1-1.6c0-0.1,0-0.3,0.1-0.4c0.8-0.8,1.3-1.8,2.5-2.2c0.1,0,0.3-0.1,0.4-0.1c1.2-0.1,2-0.7,2.8-1.5
		c0.2-0.2,0.2-0.5,0.3-0.7c0.1-0.2,0.1-0.5,0.2-0.7c0.7-1.2,0.5-2.4,0.2-3.6c-0.1-0.4-0.2-0.7-0.3-1.1c-0.2-1.1-0.8-1.9-1.5-2.7
		c-0.8-1-1.6-2.1-1.9-3.4c-0.2-0.7-0.2-1.3,0.2-1.9c0-0.1,0.1-0.1,0.1-0.2c0.2-1.1,1-1.7,1.9-2.3c0.6-0.4,1.2-0.7,1.7-1
		c1-0.6,2.1-1.1,3-1.8c0.8-0.5,1.4-1.3,2.2-1.8c1.3-1,1.7-2.4,1.7-3.9c0-1.2-0.3-2.4-0.5-3.6c-0.3-1.3-1.3-2.1-2.3-2.8
		c-0.6-0.4-1.3-0.8-2-1.2c-0.6-0.4-1.2-0.9-1.8-1.2s-1.3-0.7-2-1c-0.5-0.2-0.9-0.5-1.3-1c-0.5-0.8-0.9-1.7-1-2.6
		c-0.1-0.9,0.2-1.7,0.6-2.5c0.5-1.1,1.2-2,2-2.9c0.6-0.8,1.1-1.6,1.7-2.3c0.5-0.7,1.1-1.3,1.7-1.9c0.9-0.9,1.8-1.9,2.8-2.8
		c1-1,1.9-2,2.9-3c0.9-0.9,1.4-1.9,1.5-3.2c0-0.2,0-0.3,0.1-0.5c0.3-0.8,0.1-1.6,0-2.4c-0.1-0.7-0.2-1.5-0.3-2.2
		c0-0.1-0.1-0.3-0.2-0.4c-0.5-0.8-1-1.7-1.5-2.5c-0.1-0.1-0.2-0.3-0.4-0.4c-0.8-0.5-1.7-0.9-2.5-1.4c-0.1-0.1-0.3-0.1-0.5-0.1
		c-1.1,0-2.1-0.2-3.2,0.2c-1.8,0.6-3.6,1.4-5.1,2.6c-0.7,0.5-1.2,1.2-1.9,1.8c-0.7,0.7-1.4,1.4-2.1,2.1c-0.5,0.5-1,1.1-1.5,1.7
		c-1.3,1.3-2.5,2.7-3.9,3.9c-0.8,0.8-1.9,1.4-2.9,1.8s-2.2,0.5-3.2-0.1c-0.3-0.1-0.5-0.3-0.8-0.4c-1.2-0.2-1.5-1.1-1.7-2.1
		c-0.1-0.5-0.1-1,0-1.5c0.2-1.6-0.2-3-0.6-4.5c-0.2-0.8-0.8-1.3-1.5-1.7c-1.1-0.6-2.2-1-3.5-0.7c-0.3,0.1-0.6,0.1-1,0.1
		c-0.3,0.1-0.7,0.1-0.9,0.5c-0.1,0.1-0.2,0.2-0.3,0.3c-0.9,0.4-1.5,1.1-2.2,1.7c-0.2,0.2-0.4,0.3-0.6,0.5c-1.3,1-2.7,1-4.2,0.8
		c-0.2,0-0.4-0.2-0.6-0.4c-0.3-0.3-0.6-0.6-0.9-1c0-0.6-0.2-1.1-1.1-1.1c0-0.1-0.1-0.2-0.1-0.3c-0.1-1.1-0.8-1.6-1.8-1.7
		c-0.6-0.1-0.9-0.2-0.9-0.8c0-0.3-0.3-0.4-0.6-0.5c-0.5,0-1.1,0-1.6,0c-0.3,0-0.6,0.1-0.9,0.1c-0.5-1-0.8-1.2-1.8-0.8
		c-0.2,0.1-0.4,0.2-0.7,0.3c-0.1-0.2-0.2-0.3-0.3-0.5c-0.3-1.2-1-1.6-2.2-1.4c-1,0.1-2,0.6-3,0.9c-0.4,0.1-0.7,0.4-0.8,0.9
		C54.6,11.7,54.5,12,54.4,12.3z M94.2,73.8c-0.3,0-0.6-0.1-0.9-0.1c-0.8,0.1-1.6,0.1-2.2,0.5c-1,0.8-2,1.7-2.6,2.8
		c-0.3,0.7-0.6,1.4-1,2c-0.6,0.9-0.6,1.8-0.6,2.8c0,0.4,0,0.7-0.1,1.1c-0.2,0.6-0.5,1.2-1.1,1.6c-0.4,0.3-0.8,0.7-1.1,1.1
		c-1.4,1.6-2.8,3.3-4.3,4.9c-0.7,0.8-1.5,1.7-2.4,2.3c-1.8,1.1-3.7,2.2-6,2.3c0,0.4-0.2,0.7-0.6,0.9c-1.7,0.6-3.4,1.2-5.2,1.2
		c-1,0-2-0.1-3-0.1c-2.5,0-5-0.4-7.4-1.2c-0.3-0.1-0.5-0.3-0.7-0.4c-0.5-0.3-1.1-0.7-1.6-1c-1.3-0.7-2.6-1.4-3.9-2.1
		c-0.2-0.1-0.3-0.3-0.4-0.4c-0.7-1.1-1.4-2.2-2.2-3.3c-1.2-1.5-1.9-3.2-2.7-4.8c-0.1-0.3-0.3-0.6-0.3-0.9c-0.2-1.2-0.5-2.5-0.4-3.7
		c0-0.5-0.3-1.1-0.1-1.7c0-0.1,0-0.2-0.1-0.2c-0.4-0.8-0.8-1.7-1.5-2.3c-0.4-0.4-0.8-0.5-1.4-0.5c-0.4,0-0.8,0.1-1.2,0.1
		s-0.8,0-1.1,0.3c-0.5,0.3-1,0.4-1.6,0.3c-0.4-0.1-0.7-0.1-1.1-0.1c-0.4,0-0.8,0.4-0.9,0.8c-0.1,0.5,0.2,0.7,0.5,0.9
		c0.5,0.3,0.9,0.4,1.5,0.3c0.3,0,0.6,0,1-0.1c0.3,0.7,0.4,1.6,1.3,1.7c-0.3,0.6-0.3,0.6-0.2,1.4c0.1,0.5-0.1,0.9-0.6,1.1
		c-0.2,0.1-0.5,0.1-0.7,0.2c-0.3,0.1-0.6,0.1-0.9,0.2c-0.9,0.3-1.3,1.2-1.1,2.1c0.1,0.3,0.3,0.4,0.6,0.4c0.5-0.1,1-0.2,1.5-0.4
		c0.7-0.3,1.3-0.2,2-0.1c1,0.2,1.1,0.3,0.6,1.2c-0.3,0.5-0.2,0.8,0.3,1.2c0.2,0.2,0.5,0.2,0.8,0.3c0.2,0,0.3,0,0.5,0.1
		s0.4,0.2,0.4,0.3c0,0.1-0.1,0.3-0.2,0.5c-0.2,0.1-0.4,0.2-0.5,0.3c-1.4,0.8-2.9,1.3-4.2,2.3c-1.4,1-2.6,2.2-3.3,3.8
		c-0.6,1.3-1.2,2.6-1.8,3.8c-0.2,0.4-0.5,0.7-0.9,0.8c-0.6,0.2-1.2,0.4-1.8,0.5c-0.6,0.2-1.1,0.2-1.7,0c-0.7-0.3-1.5-0.4-2.2-0.7
		c-0.5-0.2-1-0.4-1.4-0.8c-0.7-0.6-1.2-1.3-0.9-2.4c0.2-0.7,0.4-1.4,0.7-2c0.2-0.5,0.3-1.1,0.7-1.4c0.9-1,1.8-1.9,2.8-2.7
		c0.9-0.7,1.9-1,2.7-1.8c0.2-0.2,0.5-0.3,0.7-0.4c0.9-0.4,1.5-1.1,1.8-1.9c0.4-1,0.7-2.1,0.9-3.2c0.3-1.3,0.2-2.5-0.3-3.7
		c-0.3-0.8-0.9-1.6-1.5-2.2c-0.7-0.7-1.6-1.2-2.2-2c-1.8-1-3.7-1.7-5.8-1.2c-0.5,0.1-1.1,0.1-1.5,0.4c-1,0.6-2,0.9-3.1,1.2
		c-0.5,0.1-1,0.2-1.5,0.2c-1.1,0-2.1-0.3-3.1-0.8c-0.9-0.4-1.5-1.1-2-1.9c-0.5-0.7-0.4-1.7,0.2-2.3c0.6-0.7,1.3-1.4,2-2.1
		c0.9-0.9,1.4-2,1-3.2c-0.3-1.2-0.8-2.3-1.6-3.2c-0.4-0.4-0.7-0.9-1.2-1.2c-1.1-0.7-2.3-1.2-3.6-1.3c-1-0.1-1.5-0.2-2-0.3
		c-0.8-0.1-1.3-0.6-1.7-1.3c-0.3-0.5-0.6-1.1-0.8-1.7c-0.7-1.5-0.3-2.8,0.6-4.1c0.6-0.8,1.3-1.3,2.2-1.5s1.7-0.5,2.6-0.6
		c1.4-0.2,2.8,0.1,4.1,0.6c0.6,0.2,1.3,0.2,1.9,0.2c0.6,0,1.1-0.1,1.7-0.1c1.4,0,2.6-0.4,3.9-1c0.7-0.4,1.4-0.8,2.1-1.1
		c0.9-0.4,1.5-1.1,1.5-2.1c-0.1-1.1-0.4-2.2-1.6-2.6c-0.4-0.2-0.8-0.4-1.1-0.6c-0.6-0.5-0.8-1.1-0.5-1.8c0.2-0.5,0.7-0.7,1.1-0.8
		c0.9-0.2,1.7-0.4,2.6-0.2c0.3,0,0.5,0,0.8,0c1.2,0,2.3,0,3.5,0c1.3,0,2.7,0.1,4-0.2c0.8-0.2,1.6-0.5,2-1.3c0.4-0.7,0.8-1.3,1.2-2
		c0.9-1.4,0.9-2.8,0.2-4.2c-0.7-1.4-1.8-2.4-3.3-3.1c-1.5-0.6-2.6-1.6-3.4-3c-0.3-0.5-0.3-0.9,0-1.3c0.1-0.1,0.2-0.2,0.2-0.3
		c0.5-0.8,1.1-1,2-0.7c0.7,0.3,1.3,0.7,2,0.9c1.3,0.4,2.5,0.8,3.8,1.1c0.2,0.1,0.5,0,0.8-0.1c1.4-0.5,2.7-1.1,3.5-2.4
		c0.6-0.9,1.5-1.4,2.5-1.2c0.3,0.6,0.5,1.2,0.8,1.9c-0.7,0-0.8,0.6-1.2,1c-0.7,0.7-0.7,1.4-0.4,2.3c0.2,0.5,0,0.8-0.5,0.8
		c-0.4,0-0.7,0.2-0.9,0.5s-0.3,0.5-0.5,0.8c-0.5,0.6-0.4,1.3-0.2,2s0.2,0.7-0.3,1.1c-0.9,0.7-1,1.1-0.3,2c0.3,0.4,0.4,0.8,0.4,1.3
		c0.1,1.3,0.7,1.8,1.8,1.9c-0.8,1.2-0.4,2.1,0.4,2.6c0,0.8-0.2,1-0.9,1.1c-0.6,0.1-1.1,0-1.6-0.2c-0.4-0.2-0.8-0.3-1.2-0.4
		c-0.5-0.1-1.2,0.4-1.3,0.9c-0.1,0.6,0.6,1.4,1.2,1.5c0.5,0.1,1.1,0.2,1.7,0.3c0.6,0.2,1.1,0.6,1.3,1.3c-0.3,0-0.5,0.1-0.8,0.1
		c-0.2,0-0.4-0.1-0.6-0.1c-0.6-0.2-0.9-0.1-1.1,0.2c-0.2,0.5,0,0.8,0.3,1.1c0.1,0.1,0.2,0.3,0.3,0.4c-0.7,0.4-1.3,0.8-1.9,1.2
		c-0.7,0.4-1.4,0.4-2.2,0.1c-0.8-0.4-1.7-0.8-2.6-1.1c-0.5-0.2-1-0.3-1.5-0.4c-1-0.2-1.8,0.4-1.9,1.3c-0.2,0.7,0.5,1.7,1.3,2
		c0.7,0.2,1.3,0.4,2,0.3c0.4,0,0.8,0.1,1.2,0.2c1.2,0.3,2.1,1,3.2,1.5c0.4,0.2,0.8,0.6,0.8,1.2c-0.2,0-0.4-0.1-0.6-0.1
		c-0.3,0-0.7-0.2-1-0.1c-0.5,0-1,0.4-1.1,0.9c-0.1,0.7,0.4,1.3,1.1,1.3c1.4,0,1.8,0.3,2.2,1.3c-0.3,0.3-0.7,0.7-1.1,1
		c-0.8,0.7-0.8,0.6-0.5,1.6c0,0,0,0.1,0,0.2c-0.8,0.3-1.8,0.2-2.2,1.1c-0.8-0.1-1.6-0.2-2.4-0.3c-0.2,0-0.3-0.1-0.5-0.2
		c-1.5-0.7-3.1-0.7-4.7-0.4c-0.6,0.1-1.2,0.5-1.4,1.3c0.3,0,0.6,0,0.8-0.1c1.3-0.3,2.6-0.4,4-0.2c1,0.2,1.8,0.6,2.9,0.7
		c1.1,0.1,2.2,0.5,3.4,0.6s2-0.5,2.9-0.9c0.1,0,0.1-0.2,0.2-0.3c0.1-0.2,0.2-0.3,0.3-0.5c0.3-0.5,0.6-0.9,0.8-1.5s0.3-1.2,0.8-1.6
		c0.1-0.1,0.1-0.3,0.2-0.5c0.1-0.2,0.1-0.5,0.2-0.7c0.8-1.7,1.3-3.4,1.5-5.3c0-0.4,0.2-0.8,0.3-1.2c0.2-0.7,0.3-1.4,0.5-2.1
		c0.1-0.5,0.1-1.1,0.2-1.7c0.1-1,0.3-2.1,0.3-3.1c0-0.8,0-1.7-0.1-2.6c0-0.9,0-1.8-0.2-2.6c-0.4-2.3-0.3-4.6-0.1-7
		c0.2-2.1,0.6-4.1,0.9-6.2c0.1-0.5,0.3-1,0.6-1.4c0.2-0.2,0.3-0.5,0.3-0.7c0.2-1.5,0.5-3,1.7-4.1c0.7-0.7,1.4-1.4,2.3-1.9
		c0.4-0.2,0.8-0.4,1.3-0.6c0.1-0.1,0.3-0.1,0.5-0.1c0.4-0.1,0.8-0.1,1.3-0.2c0.3-0.1,0.6,0,0.8,0.3c0.1,0.1,0.2,0.3,0.3,0.4
		c0.4-0.1,0.8-0.2,1.1-0.5c0.8-0.7,1.7-0.9,2.7-0.9c1.1,0.1,2.1,0.4,3.2,0.5c1.3,0.2,2.2,0.8,2.8,1.9c0.1,0.3,0.4,0.5,0.6,0.7
		c0.6,0.7,1.2,1.4,1.5,2.3c0.5,1.2,1,2.5,1.5,3.7c0.1,0.1,0.2,0.2,0.3,0.3c0.3,0.1,0.4,0.4,0.5,0.7c0.5,1.7,1.1,3.4,1.6,5.1
		c0.1,0.5,0.2,0.9,0.4,1.4c0.6,1.7,1.4,3.3,2.5,4.7c0.6,0.8,1.3,1.3,2.4,1c0.4-0.1,0.8-0.1,1.1-0.2c0.4-0.1,0.8-0.2,1.1-0.5
		c1.2-0.9,1.6-2.1,1.1-3.6c-0.2-0.5-0.8-0.9-1.3-0.7c-0.3,0.1-0.6,0.3-0.8,0.5c-0.3,0.2-0.6,0.3-0.9,0.3c-0.2-0.4,0-0.6,0.2-0.8
		c0.2-0.3,0.5-0.6,0.7-0.9s0-0.8-0.4-1s-0.5,0.1-0.7,0.3c-0.5,0.6-1,1.1-1.7,1.5c-0.6,0.3-1.7-0.3-1.6-0.9c0.1-0.5-0.1-1-0.2-1.5
		c-0.1-0.7-0.4-1.3-1.2-1.3c-0.3-0.7-0.3-1.3-0.1-1.9c0.3-0.6,0.1-1.1-0.3-1.6c-0.2-0.2-0.5-0.4-0.7-0.6c-0.5-0.4-0.6-0.5-0.3-1.1
		c0.2-0.5,0.2-0.9-0.1-1.4C72,20,72,19.9,72,19.7c0.9-0.3,1.7-0.6,2.5-0.9c1.2-0.4,2.3-1,3.2-1.9c0.7-0.8,1.6-1.1,2.6-1.3
		c0.2,0,0.4,0,0.6,0c1.7,0.4,2.7,1.6,2.9,3.2c0.1,1.1,0.2,2.3,0.3,3.4c0,0.4,0.1,0.8,0.4,1.1c0.3,0.3,0.5,0.7,0.8,1
		c0.7,1,1.6,1.6,2.7,2c0.4,0.1,0.8,0.3,1.2,0.5c0.1,0,0.3,0.1,0.4,0c0.4-0.2,0.7-0.1,1.1-0.1c0.7,0.1,1.3-0.1,1.9-0.5
		c0.3-0.3,0.8-0.5,1.2-0.6c1.9-0.7,3.7-1.5,5.1-3c0.5-0.6,1.2-1.1,1.7-1.7c0.7-0.8,1.3-1.6,1.9-2.4s1.1-1.6,1.6-2.4
		c0.8-1.5,2.1-2.3,3.6-2.8c1.6-0.5,3.2-1,4.9-0.9c0.8,0.1,1.7,0.1,2.3,0.8c1.3,1.3,2.3,2.8,2.7,4.6c0,0.1,0.1,0.3,0,0.5
		c-0.4,1.7-1,3.4-2.3,4.6c-0.9,0.9-1.9,1.6-3,2.1c-1.7,0.7-3.1,1.8-4.4,3c-1.1,1.1-2.4,2-3.1,3.5c-0.6,1.2-1.3,2.5-1.6,3.8
		c-0.3,1.3,0,2.8,0.1,4.2c0,0.3,0.2,0.5,0.3,0.8c0.2,0.5,0.4,1,0.7,1.5c0.6,1.4,1.2,2.7,2.2,3.8c0.1,0.1,0.3,0.3,0.4,0.4
		c0.5,0.3,1.1,0.6,1.6,0.8c0.8,0.3,1.5,0.6,2.3,0.6s1.3,0.3,1.8,0.8c0.3,0.3,0.6,0.5,0.8,0.8c0.4,0.6,0.9,1.1,1.1,1.8
		c0.3,1.3,0,2.7-0.2,4c0,0.1-0.1,0.2-0.1,0.2c-0.6,1.3-1.7,1.7-2.9,1.9c-1,0.2-2,0.1-2.9,0.2c-2.2,0.3-3.8,1.6-4.7,3.7
		c-0.5,1.2-0.8,2.6-0.8,3.9c0,1.8,0.5,3.3,2.1,4.3c0.5,0.3,1,0.8,1.4,1.3c1,1.1,1.3,2.5,1.3,3.9c0.1,1.1-0.4,2.1-1.4,2.7
		c-0.6,0.3-1.2,0.6-1.8,0.8c-0.6,0.2-1.1,0.4-1.5,0.8c-0.6,0.6-1.2,1.1-1.7,1.7c-0.3,0.3-0.5,0.7-0.7,1.1c-0.2,0.5-0.3,1-0.5,1.4
		c-0.4,1.1-0.1,2,0.5,2.9c1.2,1.7,2.4,3.4,3.5,5.2c0.7,1.2,0.8,2.5,0.6,3.8c-0.2,1.1-0.8,2-1.5,2.8c-0.5,0.5-1.1,1-1.9,1.1
		c-0.6,0-1.1,0.1-1.7,0.1c-0.7,0-1.4,0-2.1-0.1c-1.3-0.3-2.3-1.2-3.3-2c-1.3-1-2.7-1.6-4.4-1.5c-0.6,0.1-1.2,0.2-1.8-0.1
		c-0.1-0.1-0.3,0-0.5,0c-0.7,0.2-1.4,0.5-2,0.7c-0.4,0.2-0.7,0.3-1,0.6c-0.7,0.7-1.4,1.5-1.8,2.4c-0.6,1.2-1.1,2.3-1.8,3.4
		c-0.6,1.1-1.4,2-2.7,2.3c-0.9,0.2-1.9-0.3-2.4-1c-0.3-0.4-0.5-0.9-0.8-1.4c-0.8-1.2-1.2-2.6-2.5-3.5c-0.1,0-0.1-0.1-0.1-0.2
		c0.3-0.5,0.8-0.8,1.4-0.7c0.8,0.2,1.6-0.1,2.3-0.4c0.6-0.2,1.1-0.6,1.1-1.3c0-0.2,0.1-0.3,0.1-0.5c1.8,0.4,2.5-1,3.3-2.1
		c1.2,0,1.7-0.3,1.8-1.3c0-0.1,0-0.1,0-0.2c0-0.4,0.3-0.7,0.7-0.9c0.3-0.1,0.5-0.4,0.7-0.7c0.1-0.2,0.2-0.4,0.2-0.7
		c0.1-0.5,0.3-0.8,0.8-0.8c0.2,0,0.5-0.1,0.6-0.3c0.5-0.6,1.1-1,1.7-1.3c0.4-0.2,0.8-0.3,1.3-0.1c0.4,0.2,0.9,0.4,1.4,0.4
		c0.9,0.1,1.3-0.7,0.8-1.4c-0.2-0.3-0.5-0.5-0.7-0.8c-0.3-0.3-0.2-0.6,0.2-0.7c0.2-0.1,0.4,0,0.6,0c0.3,0,0.6,0,0.9-0.1
		c0.4-0.2,0.9-0.1,1.3-0.1c0.4,0.1,0.9,0.1,1.3,0c0.6-0.2,0.8-0.6,0.7-1.1c-0.1-0.5-0.6-0.8-1.2-0.8c-0.9,0.1-1.6-0.2-2.3-0.6
		c-0.6-0.4-1.1-0.8-1.7-1.3c-0.2-0.2-0.3-0.4-0.4-0.5c0.2-0.6,0.3-1.1,0.4-1.7c0.9-0.6,1-0.7,1.3-1.4c0.2-0.5,0.4-0.6,0.8-0.5
		c0.6,0.1,1.1-0.2,1.6-0.5c0.6-0.3,0.8-0.8,0.7-1.4C94.1,74,94.1,74,94.2,73.8z M109.5,27.6c0.1-0.3,0.1-0.4,0.1-0.4
		c0.1-0.1,0.2-0.1,0.3-0.1c0,0,0,0.1,0.1,0.1C109.8,27.3,109.7,27.4,109.5,27.6z M58.1,10.8c-0.1,0.1-0.2,0.1-0.2,0.2
		c0,0-0.1,0-0.1-0.1s0-0.1,0.1-0.2C57.9,10.7,58,10.7,58.1,10.8z"/>
	<path class="st2" d="M109.2,79.8c-0.1,1,0.4,1.7,0.9,2.4c0.1,0.1,0.3,0.2,0.5,0.3c0.8,0.3,1.5,0.6,2.4,0.5c0.1,0,0.2,0,0.3,0
		c1.1,0.4,2.1,0.1,3-0.5c0.6-0.4,1.2-0.7,1.7-1.2s0.8-1,0.8-1.7c0-0.5,0-1-0.1-1.5c-0.1-0.6-0.4-0.9-0.9-1.2c-0.9-0.5-1.8-0.8-2.8-1
		c-0.6-0.1-1.1-0.1-1.7,0.1c-1,0.3-2,0.6-2.9,1.3C109.7,77.9,109,78.7,109.2,79.8z M116.5,78.5c0,1.2-0.4,2.1-1.6,2.7
		c-0.3,0.2-0.6,0.2-0.9,0c-0.7-0.3-1.5-0.5-2.2-0.7c-0.9-0.2-1.3-0.8-1-1.7c0.1-0.3,0.3-0.6,0.6-0.8c0.8-0.9,1.9-1.3,3-1.4
		C115.8,76.6,116.4,77.1,116.5,78.5z"/>
	<path class="st2" d="M45,59.1c0.8-1,1.5-1.8,2.1-2.8c0.5-0.8,1.1-1.7,1.2-2.7c0-0.2,0.1-0.4,0.2-0.6c0.8-1.7,1.3-3.5,1.6-5.4
		c0.2-1.1,0.4-2.3,0.5-3.4c0.1-2,0.1-4,0-5.9c0-0.7-0.3-1.4-0.3-2.1c-0.1-1.4-0.1-2.8,0-4.1c0.1-2,0.3-4,0.4-6
		c0.1-1.6,0.4-3.2,0.8-4.8c0.1-0.5,0.4-0.9,0.7-1.2c0.9-1.1,1.9-2.1,3.4-2.4c0.3,0,0.6-0.1,0.8-0.3c1.8-0.8,3.8-0.9,5.7-0.8
		c0.5,0,1,0.4,1.5,0.6c0.4,0.2,0.8,0.6,1.2,0.8c1,0.7,1.5,1.7,1.9,2.9c0.1,0.2,0.1,0.4,0.2,0.6c0.3,0.9,0.5,1.8,0.5,2.8
		c0,0.9,0.1,1.8,0.3,2.7c0.2,0.8,0.5,1.5,0.8,2.2c0.5,1,1.1,1.9,1.7,2.8c0.8,1.1,1.7,2.1,2.6,3.2c0.9,1.2,2.2,1.8,3.6,2.2
		c1.2,0.3,2.3,0.6,3.5,0.5c0.5,0,1-0.2,1.3-0.7c0.3-0.3,0.3-0.6,0.1-1c-0.2-0.4-0.4-0.4-0.8-0.4c-0.3,0-0.6,0.1-0.9,0.1
		c-1.4,0.4-2.8,0.3-4-0.5c-0.6-0.4-1.2-0.8-1.7-1.1c-0.3-0.2-0.7-0.3-0.9-0.6c-1.3-1.5-2.6-3-3.3-5c-0.4-1.2-0.8-2.5-1-3.8
		c0-0.2-0.1-0.4-0.2-0.5c-0.6-0.9-0.6-1.9-0.8-2.9c-0.1-0.4-0.2-0.7-0.4-1c-0.3-0.8-0.7-1.5-1.1-2.2c-0.2-0.4-0.6-0.8-1-1
		s-0.8-0.5-1.1-0.8c-0.9-0.9-2.1-0.9-3.2-0.8c-1.3,0.1-2.6,0.3-3.9,0.6c-1,0.3-2.1,0.7-3.1,1.1c-0.5,0.2-0.9,0.5-1.4,0.8
		c-1.3,0.9-1.8,2.3-2,3.8c-0.4,2.3-0.8,4.5-1.1,6.8c-0.2,1.4-0.2,2.9,0.1,4.3c0.1,0.4,0.1,0.8,0.1,1.3c0.1,1.3,0.1,2.6,0.2,3.9
		c0.2,2.6,0.2,5.2-0.2,7.8c0,0.1-0.1,0.3-0.1,0.4c-0.8,2.6-1.7,5.3-2.5,7.9c-0.3,0.9-0.7,1.7-1.3,2.5c-0.4,0.5-0.8,1-1.1,1.5
		C44.6,58.6,44.6,58.6,45,59.1z"/>
	<path class="st2" d="M91,53.1c0.4-0.5,0.7-0.8,1-1.3c0.4-0.6,0.2-0.9-0.4-1.2c-0.2-0.1-0.3-0.2-0.6-0.3c0.5-0.2,0.9-0.5,1.3-0.6
		c0.8-0.2,1.5-0.3,2.3-0.4c0.4-0.1,0.7-0.2,1.1-0.3c0.5-0.2,0.8-0.5,0.8-1.1c0.1-0.9-0.2-1.2-1.1-1.3c-0.7-0.1-1.4,0.1-2,0.3
		c-1.1,0.4-2.3,0.4-3.6,0.2c0-0.5,0.1-1,0.1-1.6c1,0.6,1.5-0.1,1.9-0.7c0.4-0.5,0.7-0.8,1.4-0.8c0.7,0,1.4-0.2,2.1-0.5
		c0.4-0.1,0.7-0.5,0.9-0.8c0.2-0.3,0-0.8-0.3-0.8c-0.4-0.1-0.8-0.1-1.2,0.1c-1.1,0.4-2.2,0.6-3.3,1c-0.5,0.2-1.1,0.5-1.5,0.8
		s-0.8,0.6-1.2,0.9c-0.6,0.6-1.3,1.1-1.7,1.8c-0.4,0.7-0.7,1.6-0.7,2.5c0,0.4-0.1,0.7-0.1,1.1c0,0.4,0.1,0.9,0.2,1.3
		c0.1,0.4,0.1,0.8,0.1,1.2c0,0.6,0.1,1.2,0.4,1.7c0.6,0.7,1.3,1.3,2.2,1.4c0.9,0.1,1.7,0.2,2.5-0.3c0.3-0.2,0.6-0.3,0.6-0.7
		c-0.1-0.5-0.1-1-0.6-1.2C91.3,53.4,91,53.3,91,53.1z"/>
	<path class="st2" d="M95.3,67c-0.4,0-0.7,0-1,0c-0.2,0-0.4,0.1-0.6,0.2c-1.2,0.5-1.9,1.5-2.8,2.4c-1.4,1.5-2.7,3.2-3.8,4.9
		c-0.4,0.6-0.9,1.2-1.2,1.9c-0.4,0.9-1.1,1.6-1.7,2.3c-0.1,0.1-0.2,0.2-0.3,0.3c-0.3,0.8-0.6,1.7-0.9,2.6c-0.1,0.3-0.2,0.5-0.3,0.7
		c-0.5,0.8-0.9,1.6-1.4,2.3c-1,1.5-1.9,3-3,4.4c-0.9,1.2-2.1,2-3.5,2.3c-0.2,0.1-0.4,0.1-0.6,0.1c-1-0.4-1.9,0-2.8,0.4
		c-1,0.5-1.9,0.7-3,0.8c-0.2,0-0.5,0.1-0.7,0.1C66.4,93.1,65,93,63.6,93c-1.5,0-3-0.2-4.5-0.6c-0.9-0.2-1.8-0.4-2.7-0.6
		c-1.2-0.2-2.2-0.8-3.1-1.4c-0.1-0.1-0.2-0.2-0.3-0.2c-1-0.9-2-1.7-3-2.6c-0.3-0.3-0.7-0.7-0.9-1.1c-0.5-0.9-0.9-1.8-1.3-2.7
		c-0.4-0.9-0.7-1.8-1.1-2.7c0-0.1-0.1-0.2-0.2-0.4c-0.2-1.3-0.8-2.5-1.2-3.7c-0.2-0.7-0.6-1.4-1-2c-0.2-0.3-0.4-0.5-0.8-0.5
		c0,0.2,0,0.3,0.1,0.4c0.2,0.3,0.5,0.6,0.4,1c0,0.1,0,0.2,0.1,0.3c0.5,0.4,0.5,1,0.7,1.5c0.2,0.6,0.4,1.1,0.6,1.7
		c0.3,1,0.6,1.9,0.9,2.9c0.5,1.2,0.9,2.4,1.4,3.7c0.2,0.4,0.5,0.8,0.8,1.2c0.7,0.7,1.3,1.5,2,2.2c0.6,0.6,1.3,1,2,1.6
		c0.5,0.4,1,0.7,1.6,0.9c0.7,0.3,1.5,0.6,2.3,0.9c0.9,0.4,1.9,0.5,2.8,0.7c0.6,0.1,1.1,0.4,1.7,0.3c0.9-0.2,1.7-0.2,2.6,0.1
		c0.1,0,0.3-0.1,0.5-0.1c0.5,0,0.9,0,1.4-0.1c0.6,0,1.2-0.1,1.7-0.1c0.6-0.1,1.2-0.2,1.8-0.3c1.1-0.2,2.1-0.3,3.2-0.6
		C73,92.4,74,92,75,92.1c0.1,0,0.2,0,0.2,0c1.7-0.9,3.2-2,4.3-3.5c1.5-2.1,2.9-4.2,4.4-6.2c0.6-0.9,1.1-1.9,1.6-2.9
		c0.3-0.7,0.7-1.4,1.1-2c0.6-0.8,1-1.7,1.4-2.6c0.3-0.6,0.6-1.1,1-1.5c0.6-0.6,1.1-1.3,1.7-1.9s1.3-1.2,2-1.8
		c0.5-0.4,0.9-0.9,1.3-1.4c0.3-0.3,0.6-0.5,0.9-0.7C95.3,67.4,95.4,67.3,95.3,67z M92.3,69.2c0.1-0.4,0.4-0.6,0.7-0.7
		C92.7,68.7,92.5,69,92.3,69.2z"/>
	<path class="st2" d="M58.6,67.4c0.3-0.2,0.3-0.5,0.2-0.8c-0.2-0.6-0.2-1.2-0.1-1.8c0.1-0.3,0-0.7,0-1c0-0.3-0.1-0.5-0.1-0.8
		c0.2,0,0.3,0,0.5,0c0.2-0.3,0.1-0.6-0.1-0.9c-0.4-0.5-0.6-1-0.4-1.7c0.3,0.3,0.5,0.5,0.7,0.7c0.3-0.3,0.2-0.5,0.2-0.8
		c-0.2-0.7-0.3-1.4-0.4-2.1c0-0.2,0.1-0.3,0.3-0.5c0.2,0.5,0.3,1,0.5,1.5c0.5-0.1,0.6-0.3,0.5-0.8c-0.2-1.1-0.1-2.3-0.1-3.4
		c0-0.1,0.1-0.2,0.3-0.3c0.1,0.8,0.1,1.5,0.2,2.3c0.5,0,0.6-0.2,0.6-0.6c-0.1-1.1,0-2.1,0.3-3.2c0-0.1,0.1-0.1,0.2-0.3
		c0.1,0.5,0.3,0.9,0.4,1.3c0.5,0,0.6-0.2,0.6-0.6c0-0.5,0-0.9,0-1.5c0.3,0.2,0.6,0.6,0.9,0.2c0-0.1,0-0.3-0.1-0.5
		c0-0.1-0.1-0.3,0-0.4c0.6-0.4,0.3-1.1,0.4-1.6c0-0.2,0-0.3,0.2-0.5c0.1,0.3,0.2,0.5,0.3,0.8c0.6-0.1,0.6-0.1,0.5-1.1
		c0.6-0.1,0.6-0.7,0.7-1.1c0-0.1-0.1-0.3-0.2-0.4c-0.2-0.1-0.4-0.2-0.6-0.2c-1.2,0.2-2.5,0.2-3.4,1.1c-1.1,1-1.9,2.3-2.3,3.8
		c-0.5,1.7-1,3.5-1.2,5.2c-0.2,1.5-0.5,3-0.1,4.5c0.3,1.4,0.3,2.9,0.4,4.4C58.1,66.8,58.2,67.1,58.6,67.4z"/>
	<path class="st2" d="M87.1,42.2c-0.5-0.2-0.8-0.1-1.1,0.2c-0.4,0.4-0.8,0.8-1.1,1.3c-0.9,1.5-1.6,3.2-2,5c-0.2,0.9-0.2,1.8-0.2,2.7
		c0,0.5,0,0.9,0,1.3c0.1,0.8,0.5,1.6,1.1,2.3c0.4,0.5,0.8,1.1,1.1,1.7c0.5,1.1,1.6,1.5,2.6,2c2,0.9,4.1,0.8,6.2,0.6
		c1.1-0.1,2.1-0.6,2.9-1.2c0.5-0.4,1.1-0.5,1.6-0.5c0.6,0,1.2,0,1.8,0.1c0.4,0.1,0.8-0.1,1.1-0.3c0.3-0.2,0.3-0.5,0.3-0.8
		c-0.1-0.3-0.3-0.3-0.6-0.3c-1.3-0.1-2.5,0.1-3.7,0.5c-0.8,0.3-1.5,0.7-2.2,1c-1,0.4-2,0.7-3.1,0.7c-0.1,0-0.2,0-0.2,0
		c-1.2-0.5-2.5-0.2-3.6-0.7c-1.6-0.6-2.8-1.6-3.2-3.4c-0.3-1.2-0.4-2.4-0.3-3.6c0-0.4,0-0.9,0-1.3c0.1-1.6,0.7-3.1,1.6-4.3
		c0.5-0.6,0.8-1.3,1-2C87.2,42.8,87.1,42.5,87.1,42.2z"/>
	<path class="st2" d="M81.1,67.9c-0.4,0-0.7,0-1.1,0c0,0.8,0,1.5,0,2.2c-0.1,1.7-0.4,3.5-1.4,4.9c-0.9,1.2-1.6,2.6-2.7,3.6
		c-0.6,0.6-1.1,1.2-1.8,1.7c-0.5,0.4-1.1,0.7-1.7,0.9c-0.3,0.1-0.6,0.2-0.5,0.7c0.1,0.4,0.4,0.6,0.9,0.4c1.2-0.2,2.1-0.8,3.1-1.4
		c0.1-0.1,0.2-0.2,0.3-0.3c0.4-0.3,0.8-0.7,1.2-1c0.9-0.6,1.6-1.4,2.1-2.4c0.7-1.2,1.3-2.5,1.6-3.8c0-0.2,0.1-0.3,0.1-0.5
		c0.1-0.7,0.1-1.5,0.2-2.2C81.4,69.8,81.4,68.8,81.1,67.9z"/>
	<path class="st2" d="M22.4,63.2c-0.4,0-0.8,0.1-1.1,0.1c-0.2,0-0.4,0.1-0.5,0.2c-0.5,0.3-0.6,0.5-0.4,0.9s0.7,0.7,1,0.5
		c1-0.5,2-0.4,3.1-0.3c0.9,0,1.9,0,2.8,0.5c1,0.5,2.2,0.8,3.3,1.1c0.9,0.2,1.8,0.4,2.6,0.6c0.5,0.1,1,0.1,1.5-0.2
		c0.4-0.2,0.9-0.3,1.3-0.4c0.3-0.1,0.6-0.3,0.8-0.5s0.2-0.6,0.1-0.8c-0.1-0.3-0.4-0.2-0.7-0.2c-0.8,0.1-1.5,0.2-2.3,0.3
		c-1.2,0.1-2.3-0.2-3.5-0.5c-0.5-0.1-1-0.2-1.6-0.3c-1.4-0.3-2.8-0.6-4.2-0.8C23.9,63.2,23.1,63.2,22.4,63.2z"/>
	<path class="st2" d="M78.8,40.8c1.5,0,2.4-0.6,3.4-1.2c0.6-0.4,1.2-0.8,1.9-1c0.4-0.2,0.9-0.2,1.4-0.3c0.2,0,0.5-0.1,0.6-0.3
		c0.2-0.2,0.1-0.5-0.1-0.8c-0.6-0.8-1.7-0.9-2.5-0.1c-1,1-2.2,1.8-3.6,2.3c-0.8,0.3-1.6,0.2-2.3-0.1c-0.3-0.1-0.7-0.3-1.1-0.4
		c-0.2,0-0.4,0-0.6,0c-0.5,0.2-0.5,0.5-0.2,0.8c0.2,0.2,0.3,0.3,0.5,0.4C77.2,40.6,78.1,40.8,78.8,40.8z"/>
</g>
<g id="Layer_5">
	<path class="st3" d="M71.9,53.1c-2.8-1.7-6.5-0.6-8.2,2.2c-1.2,2-1.8,4.2-2.3,6.5c-0.1,0.4-0.2,0.8-0.3,1.2c-0.1,0.3,0,0.2,0,0.2
		s0,0.1-0.2,0.4c-0.6,1.7-1.1,3-1.2,4.8c-0.1,3.2,2.8,6,6,6c3.3,0,5.8-2.6,6-5.8c0.2-0.5,0.4-1,0.7-1.5c0.3-0.7,0.5-1.4,0.6-2.1
		c0.2-0.7,0.3-1.5,0.5-2.2c0.1-0.3,0.2-0.6,0.3-0.9c0,0,0.1-0.2,0.3-0.5C75.8,58.5,74.7,54.7,71.9,53.1z"/>
</g>
<g id="Layer_4">
	<path class="st4" d="M58.9,71.1c-0.1,1,0.3,1.9,0.6,2.8c0.4,1,1,1.9,1.8,2.7c0.1,0.1,0.1,0.1,0.2,0.2c1.1,1.2,2.4,2,3.9,2.6
		c1,0.4,2,0.5,3.1,0.6c1,0,2,0.1,2.9-0.2c0.8-0.2,1.5-0.5,2-1.2c0.2-0.2,0.4-0.4,0.6-0.5c0.8-0.7,1.5-1.4,1.8-2.4
		c0.4-1,0.9-1.9,1.3-2.9c0.5-1.1,0.8-2.2,0.9-3.5c0.1-1.6,0.4-3.1,0.6-4.7c0-0.3,0-0.6,0-0.9c0-1.1,0-2.2-0.1-3.3s-0.3-2.3-0.6-3.4
		c-0.4-1.4-0.8-2.8-1.4-4.2c-0.3-0.7-0.8-1.3-1.3-1.9c-0.3-0.4-0.7-0.8-1-1.3c-0.5-0.7-1.2-1.2-1.9-1.6c-0.7-0.3-1.6-0.3-2.4-0.1
		c-0.3,0-0.6,0.2-0.9,0.2c-0.5,0.1-0.8,0.4-1.2,0.6c-1.4,1.1-2.2,2.7-3.4,3.9c-0.8,0.8-1.2,1.9-1.7,3c-0.8,1.6-1.5,3.2-2.1,4.8
		c-0.3,0.7-0.5,1.5-0.6,2.3c-0.3,1.5-0.6,3.1-0.9,4.6C59.2,68.6,59.1,69.8,58.9,71.1z M68.5,58.6C68.4,58.6,68.4,58.6,68.5,58.6
		c-0.1,0.5-0.1,1-0.1,1.5c-0.1,1.2-0.2,2.3-0.3,3.5c-0.1,1.3-0.3,2.5-0.5,3.7c-0.1,0.4-0.4,0.8-0.6,1.2c-0.3,0.7-1.1,0.9-1.6,1.4
		c-1.2,1-3.1,0.3-3.4-1.2c-0.3-1.3-0.1-2.5,0.2-3.7c0.3-1.3,0.8-2.6,1.1-3.9c0.6-2.4,1.5-4.8,2.5-7.1c0.1-0.4,0.4-0.7,0.7-1
		c0.5-0.5,1.1-0.3,1.3,0.3c0.1,0.2,0.2,0.5,0.3,0.7c0.3,0.5,0.4,1,0.4,1.6C68.5,56.7,68.5,57.6,68.5,58.6z"/>
</g>
</svg>
