<?xml version="1.0" encoding="utf-8"?>
<!-- Generator: Adobe Illustrator 23.1.0, SVG Export Plug-In . SVG Version: 6.00 Build 0)  -->
<svg version="1.1" id="Layer_1" xmlns="http://www.w3.org/2000/svg" xmlns:xlink="http://www.w3.org/1999/xlink" x="0px" y="0px"
	 viewBox="0 0 137.24 115.17" style="enable-background:new 0 0 137.24 115.17;" xml:space="preserve">
<style type="text/css">
	.st0{fill:#3B3B3B;}
</style>
<g>
	<path class="st0" d="M59.23,11.37c-0.62-0.11-1,0.1-1.21,0.68c-0.07,0.19-0.33,0.3-0.53,0.47c-0.35-0.26-0.6-0.57-1.08-0.49
		c-0.47,0.09-0.81,0.29-0.98,0.72c-0.15,0.37-0.26,0.75-0.37,1.1c-0.42,0.09-0.83,0.12-1.18,0.28c-0.33,0.15-0.6,0.44-0.89,0.68
		c-0.12,0.1-0.3,0.23-0.31,0.35c-0.03,0.62-0.46,0.87-0.89,1.21c-0.38,0.3-0.68,0.77-0.62,1.33c0.05,0.45-0.21,0.62-0.58,0.73
		c-1.47,0.45-2.8,1.19-4.09,1.99c-0.46,0.29-0.86,0.72-1.21,1.16c-0.88,1.1-2.12,1.13-3.35,1.17c-0.24,0.01-0.49-0.18-0.74-0.28
		c-0.86-0.36-1.72-0.74-2.58-1.09c-0.77-0.31-1.58-0.28-2.37-0.14c-1.42,0.26-2.2,1.51-2.02,2.93c0.16,1.34,0.86,2.32,1.74,3.25
		c0.42,0.45,0.81,0.92,1.23,1.37c0.71,0.76,1.45,1.5,2.14,2.28c0.93,1.06,1.3,2.3,1.13,3.71c-0.12,1.03-0.71,1.63-1.65,1.95
		c-1.17,0.4-2.37,0.44-3.57,0.29c-1.22-0.15-2.43-0.4-3.64-0.57c-2.26-0.31-4.29,0.31-6.1,1.64c-0.85,0.62-1.17,1.97-0.8,2.99
		c0.06,0.17,0.19,0.32,0.32,0.45c0.63,0.61,1.28,1.2,1.9,1.82c0.88,0.88,0.78,1.92-0.27,2.63c-1.29,0.87-2.7,1.41-4.28,1.42
		c-0.48,0-0.96,0.1-1.44,0.07c-0.55-0.04-1.12-0.11-1.65-0.26c-2.44-0.71-4.88-0.92-7.31,0.02c-1.31,0.51-2.45,1.29-3.41,2.31
		c-0.52,0.55-0.72,1.24-0.78,1.97c-0.03,0.4-0.1,0.79-0.15,1.19c-0.17,1.39-0.24,2.76,0.65,3.99c0.26,0.36,0.39,0.82,0.65,1.18
		c0.5,0.69,1.08,1.32,1.92,1.63c0.12,0.04,0.25,0.12,0.34,0.21c0.92,0.95,2.13,0.86,3.3,0.96c0.32,0.03,0.64,0.02,0.96,0.01
		c1.57-0.03,2.38,0.97,3.04,2.21c0.28,0.52,0.26,1.05,0,1.54c-0.24,0.44-0.54,0.86-0.86,1.25c-0.48,0.57-1.03,1.08-1.52,1.65
		c-0.76,0.88-0.85,1.93-0.71,3.03c0.02,0.16,0.11,0.32,0.09,0.47c-0.17,1.23,0.71,2,1.26,2.91c0.19,0.32,0.41,0.63,0.68,0.88
		c0.25,0.23,0.55,0.45,0.87,0.53c1.17,0.28,2.34,0.56,3.53,0.73c0.65,0.09,1.33-0.03,1.99-0.08c0.61-0.05,1.23-0.11,1.83-0.23
		c1.12-0.23,2.24-0.5,3.35-0.77c1.62-0.39,3.24-0.72,4.9-0.16c0.5,0.17,0.92,0.43,1.25,0.83c0.42,0.52,0.81,1.06,1.26,1.55
		c0.66,0.73,0.96,1.54,0.7,2.51c-0.33,1.22-0.69,2.39-1.74,3.26c-0.71,0.59-1.31,1.34-1.9,2.06c-0.67,0.81-1.46,1.47-2.26,2.15
		c-0.98,0.83-1.88,1.74-2.8,2.64c-0.18,0.18-0.3,0.44-0.4,0.69c-0.44,1.15-0.84,2.31-1.28,3.46c-0.33,0.85-0.38,1.74-0.23,2.61
		c0.21,1.24,0.85,2.28,2.07,2.76c1.55,0.61,3.23,0.69,4.87,0.89c0.22,0.03,0.47-0.09,0.69-0.17c0.88-0.29,1.8-0.52,2.52-1.16
		c0.44-0.39,0.87-0.78,1.29-1.19c0.38-0.38,0.71-0.81,1.1-1.17c0.43-0.39,0.7-0.87,0.89-1.41c0.39-1.12,1.12-1.98,2.01-2.74
		c0.61-0.52,1.21-1.07,1.72-1.68c0.71-0.84,1.62-1.07,2.64-1.1c0.08,0,0.16,0,0.24,0c1.57,0.07,1.56,0.08,2.1,1.57
		c0.14,0.4,0.37,0.78,0.62,1.11c0.33,0.43,0.81,0.6,1.35,0.56c0.24-0.02,0.47-0.07,0.72-0.11c0.15,0.35,0.24,0.73,0.46,1.01
		c0.22,0.29,0.55,0.51,0.87,0.69c0.32,0.18,0.68,0.32,1.03,0.41c0.5,0.13,0.91,0.3,1.17,0.83c0.29,0.61,1.27,0.84,1.93,0.58
		c0.4-0.16,0.78-0.14,1.08,0.23c0.07,0.08,0.15,0.15,0.22,0.24c0.65,0.84,1.47,1,2.47,0.6c0.61,0.81,1.5,1.03,2.45,1.06
		c0.28,0.01,0.65-0.02,0.83-0.19c0.4-0.36,0.75-0.27,1.18-0.14c0.51,0.16,1.03,0.28,1.56,0.34c0.3,0.03,0.64-0.03,0.92-0.16
		c0.36-0.16,0.63-0.16,0.96,0.07c0.99,0.69,1.54,0.6,2.48-0.39c0.65,0.28,1.35,0.28,2.06,0.04c0.18-0.06,0.44,0,0.61,0.1
		c1.38,0.77,2.7,1.65,3.74,2.85c0.48,0.56,0.75,1.29,1.15,1.92c0.82,1.29,1.77,2.46,2.89,3.52c0.96,0.92,2,1.03,3.17,0.52
		c0.17-0.07,0.31-0.2,0.45-0.32c1.52-1.25,2.44-2.87,2.92-4.77c0.18-0.7,0.42-1.38,0.69-2.05c0.48-1.18,1.42-1.75,2.65-1.93
		c1.15-0.17,2.29-0.17,3.42,0.08c0.21,0.05,0.43,0.02,0.64,0.04c0.39,0.04,0.79,0.07,1.18,0.15c0.49,0.11,0.95,0.26,1.47,0.27
		c0.53,0.01,1.08,0.29,1.57,0.56c0.91,0.5,1.83,0.85,2.88,0.78c1.62-0.11,3.27-0.13,4.75-0.94c0.32-0.18,0.62-0.41,0.91-0.64
		c0.25-0.2,0.45-0.47,0.72-0.63c0.72-0.44,1.12-1.11,1.48-1.84c1.09-2.18,0.9-4.35-0.06-6.49c-0.46-1.02-1.07-1.98-1.53-3
		c-0.51-1.14-0.97-2.31-1.36-3.5c-0.16-0.49-0.08-1.05-0.1-1.58c0-0.13,0.03-0.29,0.12-0.38c0.78-0.78,1.33-1.83,2.5-2.16
		c0.13-0.04,0.25-0.1,0.38-0.11c1.15-0.09,2-0.74,2.75-1.54c0.17-0.18,0.24-0.46,0.34-0.7c0.08-0.22,0.09-0.48,0.21-0.68
		c0.71-1.16,0.5-2.36,0.22-3.57c-0.09-0.36-0.21-0.72-0.28-1.08c-0.2-1.07-0.79-1.92-1.47-2.72c-0.85-1.01-1.58-2.08-1.9-3.39
		c-0.16-0.65-0.21-1.26,0.15-1.86c0.04-0.07,0.1-0.14,0.11-0.21c0.17-1.13,1.03-1.71,1.87-2.27c0.55-0.37,1.15-0.67,1.73-1.01
		c1.02-0.59,2.07-1.12,3.04-1.77c0.77-0.52,1.4-1.25,2.15-1.79c1.35-0.97,1.71-2.37,1.69-3.87c-0.02-1.19-0.25-2.39-0.52-3.56
		c-0.3-1.26-1.26-2.08-2.28-2.79c-0.63-0.44-1.34-0.77-2-1.19c-0.62-0.39-1.2-0.86-1.84-1.23c-0.64-0.37-1.31-0.71-2-0.98
		c-0.53-0.2-0.95-0.5-1.25-0.95c-0.52-0.79-0.87-1.67-0.99-2.6c-0.11-0.87,0.23-1.68,0.59-2.45c0.51-1.07,1.24-1.99,1.98-2.91
		c0.6-0.75,1.13-1.56,1.74-2.3c0.54-0.66,1.13-1.28,1.72-1.89c0.91-0.94,1.84-1.86,2.76-2.8c0.97-0.99,1.92-2,2.89-2.99
		c0.87-0.89,1.41-1.92,1.5-3.17c0.01-0.16,0.01-0.33,0.06-0.48c0.29-0.8,0.06-1.59-0.03-2.37c-0.08-0.74-0.21-1.48-0.34-2.21
		c-0.03-0.15-0.11-0.3-0.19-0.43c-0.51-0.84-1.02-1.68-1.54-2.51c-0.1-0.15-0.24-0.29-0.4-0.38c-0.82-0.48-1.66-0.95-2.49-1.41
		c-0.14-0.08-0.31-0.12-0.46-0.12c-1.06-0.02-2.12-0.18-3.18,0.17c-1.85,0.61-3.59,1.4-5.14,2.58c-0.67,0.52-1.24,1.17-1.86,1.77
		c-0.71,0.68-1.44,1.35-2.13,2.06c-0.52,0.53-0.99,1.12-1.51,1.66c-1.27,1.33-2.5,2.72-3.87,3.94c-0.84,0.75-1.87,1.41-2.92,1.78
		c-0.99,0.35-2.15,0.45-3.19-0.14c-0.25-0.14-0.52-0.3-0.8-0.35c-1.16-0.22-1.49-1.12-1.69-2.08c-0.1-0.49-0.07-1.02-0.01-1.52
		c0.19-1.56-0.21-3.03-0.59-4.5c-0.2-0.78-0.85-1.29-1.53-1.68c-1.09-0.62-2.24-1-3.52-0.69c-0.31,0.07-0.64,0.07-0.96,0.12
		c-0.35,0.05-0.69,0.11-0.87,0.48c-0.05,0.11-0.18,0.21-0.29,0.26c-0.9,0.36-1.5,1.1-2.19,1.73c-0.2,0.18-0.41,0.34-0.62,0.51
		c-1.25,1.04-2.73,0.97-4.2,0.84c-0.22-0.02-0.45-0.24-0.64-0.42c-0.3-0.29-0.57-0.61-0.95-1.03c0.02-0.55-0.23-1.08-1.06-1.14
		c-0.04-0.12-0.09-0.21-0.11-0.31c-0.14-1.05-0.77-1.63-1.8-1.72c-0.55-0.05-0.93-0.16-0.95-0.81c-0.01-0.31-0.29-0.45-0.58-0.46
		c-0.53-0.01-1.06,0-1.59,0.03c-0.31,0.02-0.62,0.07-0.91,0.11c-0.46-1.04-0.82-1.18-1.82-0.77c-0.22,0.09-0.43,0.19-0.7,0.31
		c-0.1-0.19-0.21-0.34-0.26-0.51c-0.33-1.16-1.01-1.59-2.18-1.45c-1.05,0.13-1.99,0.55-2.97,0.9c-0.38,0.13-0.67,0.42-0.75,0.88
		C59.42,10.83,59.32,11.08,59.23,11.37z M98.98,72.91c-0.33-0.04-0.62-0.13-0.9-0.11c-0.77,0.06-1.58,0.07-2.22,0.53
		c-1.04,0.76-1.96,1.66-2.56,2.83c-0.34,0.67-0.63,1.37-1.03,1.99c-0.56,0.87-0.61,1.8-0.55,2.78c0.02,0.36-0.02,0.74-0.13,1.08
		c-0.2,0.61-0.53,1.15-1.06,1.57c-0.41,0.33-0.77,0.74-1.12,1.14c-1.42,1.64-2.8,3.3-4.25,4.92c-0.73,0.81-1.46,1.7-2.37,2.26
		c-1.83,1.12-3.74,2.18-6.02,2.25c0,0.42-0.16,0.73-0.57,0.87c-1.69,0.59-3.39,1.18-5.22,1.15c-0.99-0.02-1.98-0.14-2.97-0.13
		c-2.54,0.02-5-0.45-7.42-1.16c-0.25-0.07-0.46-0.25-0.69-0.39c-0.54-0.34-1.06-0.71-1.62-1.01c-1.28-0.71-2.59-1.38-3.88-2.09
		c-0.18-0.1-0.32-0.27-0.44-0.44c-0.73-1.08-1.38-2.23-2.19-3.25c-1.17-1.46-1.9-3.15-2.73-4.79c-0.14-0.28-0.27-0.6-0.31-0.91
		c-0.16-1.24-0.51-2.46-0.43-3.73c0.04-0.54-0.31-1.08-0.09-1.65c0.02-0.06-0.04-0.15-0.07-0.22c-0.41-0.84-0.83-1.66-1.5-2.35
		c-0.41-0.43-0.84-0.51-1.36-0.46c-0.4,0.04-0.8,0.11-1.19,0.08c-0.42-0.04-0.78,0.02-1.14,0.26c-0.49,0.32-1.02,0.43-1.61,0.3
		c-0.36-0.08-0.74-0.1-1.12-0.09c-0.43,0.01-0.8,0.37-0.91,0.79c-0.11,0.47,0.16,0.68,0.52,0.87c0.46,0.25,0.94,0.39,1.46,0.33
		c0.31-0.03,0.63-0.04,0.95-0.06c0.34,0.7,0.39,1.55,1.29,1.74c-0.28,0.61-0.28,0.61-0.2,1.41c0.06,0.54-0.11,0.86-0.61,1.08
		c-0.22,0.09-0.46,0.12-0.7,0.17c-0.31,0.07-0.64,0.1-0.94,0.2c-0.88,0.32-1.3,1.16-1.06,2.06c0.08,0.31,0.28,0.45,0.59,0.38
		c0.49-0.12,0.99-0.21,1.46-0.39c0.66-0.25,1.3-0.23,1.97-0.09c1.04,0.21,1.09,0.3,0.6,1.2c-0.28,0.51-0.22,0.84,0.28,1.15
		c0.24,0.15,0.54,0.21,0.82,0.29c0.15,0.04,0.33-0.01,0.48,0.05c0.15,0.06,0.36,0.19,0.38,0.32c0.03,0.13-0.09,0.35-0.21,0.46
		c-0.15,0.14-0.37,0.21-0.55,0.33c-1.37,0.83-2.91,1.32-4.23,2.26c-1.44,1.02-2.61,2.2-3.34,3.81c-0.58,1.29-1.2,2.56-1.79,3.85
		c-0.19,0.42-0.46,0.69-0.92,0.81c-0.6,0.15-1.17,0.37-1.77,0.53c-0.57,0.16-1.13,0.24-1.73,0.03c-0.73-0.26-1.5-0.4-2.22-0.67
		c-0.49-0.18-0.99-0.44-1.39-0.77c-0.73-0.6-1.23-1.35-0.89-2.38c0.23-0.68,0.43-1.37,0.68-2.04c0.19-0.5,0.33-1.07,0.68-1.44
		c0.88-0.96,1.79-1.93,2.82-2.72c0.85-0.65,1.92-1.02,2.74-1.75c0.19-0.17,0.46-0.27,0.7-0.37c0.89-0.37,1.49-1.06,1.8-1.92
		c0.37-1.03,0.65-2.09,0.9-3.16c0.3-1.26,0.16-2.53-0.34-3.69c-0.35-0.82-0.91-1.58-1.51-2.24c-0.65-0.72-1.57-1.18-2.18-1.97
		c-1.82-0.99-3.7-1.68-5.83-1.19c-0.52,0.12-1.1,0.13-1.54,0.38c-0.99,0.57-2.05,0.92-3.13,1.21c-0.48,0.13-0.99,0.21-1.49,0.22
		c-1.09,0.03-2.1-0.28-3.08-0.78c-0.87-0.44-1.53-1.07-2.03-1.88c-0.46-0.73-0.4-1.67,0.16-2.31c0.63-0.72,1.28-1.43,1.97-2.1
		c0.92-0.9,1.35-1.96,0.98-3.2c-0.34-1.15-0.77-2.28-1.65-3.16c-0.39-0.39-0.71-0.89-1.17-1.18c-1.09-0.69-2.29-1.16-3.58-1.34
		c-0.48-0.06-0.95-0.16-1.43-0.23c-0.82-0.12-1.34-0.63-1.72-1.31c-0.31-0.56-0.6-1.14-0.86-1.72c-0.69-1.51-0.27-2.84,0.65-4.11
		c0.56-0.77,1.26-1.27,2.2-1.47c0.86-0.18,1.7-0.51,2.56-0.63c1.4-0.19,2.76,0.08,4.09,0.56c0.58,0.21,1.26,0.21,1.89,0.24
		c0.56,0.02,1.12-0.09,1.68-0.1c1.37-0.03,2.65-0.41,3.85-1.02c0.71-0.36,1.35-0.84,2.1-1.14c0.91-0.36,1.51-1.14,1.45-2.11
		c-0.06-1.11-0.41-2.16-1.62-2.64c-0.39-0.15-0.78-0.36-1.12-0.61c-0.63-0.47-0.78-1.11-0.48-1.77c0.22-0.49,0.67-0.71,1.14-0.8
		c0.86-0.17,1.72-0.4,2.62-0.23c0.26,0.05,0.53,0.03,0.8,0.03c1.17,0.01,2.34,0.03,3.51,0.01c1.33-0.02,2.67,0.11,3.99-0.21
		c0.83-0.2,1.56-0.51,1.99-1.33c0.36-0.68,0.79-1.33,1.21-1.98c0.89-1.36,0.87-2.83,0.19-4.19c-0.69-1.38-1.83-2.44-3.28-3.07
		c-1.48-0.64-2.63-1.58-3.37-3.05c-0.25-0.5-0.31-0.88,0.03-1.32c0.08-0.11,0.15-0.22,0.21-0.34c0.45-0.75,1.14-1,1.97-0.68
		c0.69,0.27,1.34,0.67,2.05,0.9c1.26,0.41,2.55,0.76,3.84,1.09c0.24,0.06,0.54,0.01,0.79-0.07c1.38-0.46,2.65-1.08,3.52-2.35
		c0.6-0.88,1.45-1.39,2.51-1.18c0.28,0.65,0.53,1.23,0.83,1.91c-0.71-0.03-0.82,0.59-1.17,0.97c-0.65,0.69-0.71,1.44-0.38,2.29
		c0.21,0.54,0.04,0.83-0.55,0.84c-0.44,0-0.7,0.22-0.91,0.54c-0.16,0.25-0.28,0.52-0.46,0.75c-0.48,0.63-0.38,1.32-0.2,1.99
		c0.17,0.66,0.21,0.73-0.3,1.14c-0.88,0.72-0.96,1.09-0.34,2.03c0.28,0.42,0.4,0.83,0.44,1.33c0.11,1.28,0.69,1.85,1.78,1.86
		c-0.75,1.23-0.42,2.13,0.4,2.57c-0.03,0.77-0.2,0.97-0.88,1.06c-0.57,0.08-1.11,0.02-1.64-0.22c-0.39-0.17-0.8-0.31-1.21-0.42
		c-0.5-0.14-1.23,0.37-1.28,0.88c-0.06,0.58,0.6,1.4,1.19,1.49c0.55,0.09,1.11,0.15,1.65,0.31c0.61,0.18,1.06,0.57,1.26,1.33
		c-0.3,0.04-0.55,0.1-0.8,0.09c-0.21-0.01-0.42-0.09-0.63-0.13c-0.64-0.15-0.92-0.1-1.07,0.22c-0.22,0.47,0,0.82,0.33,1.14
		c0.12,0.12,0.21,0.27,0.34,0.44c-0.67,0.42-1.25,0.84-1.89,1.17c-0.69,0.36-1.44,0.38-2.17,0.06c-0.85-0.38-1.69-0.79-2.56-1.14
		c-0.47-0.19-0.96-0.33-1.46-0.41c-0.96-0.16-1.75,0.38-1.93,1.27c-0.15,0.72,0.53,1.73,1.31,1.96c0.67,0.2,1.33,0.36,2.05,0.29
		c0.39-0.03,0.8,0.08,1.19,0.16c1.17,0.25,2.11,1.01,3.16,1.52c0.43,0.21,0.82,0.58,0.83,1.23c-0.24-0.05-0.41-0.09-0.58-0.11
		c-0.34-0.05-0.68-0.15-1.02-0.14c-0.54,0.01-0.98,0.43-1.06,0.93c-0.11,0.73,0.36,1.32,1.13,1.29c1.39-0.05,1.82,0.26,2.22,1.33
		c-0.35,0.32-0.7,0.65-1.07,0.95c-0.79,0.65-0.8,0.64-0.45,1.56c0.01,0.04-0.02,0.1-0.05,0.21c-0.76,0.34-1.82,0.19-2.22,1.13
		c-0.85-0.11-1.62-0.2-2.38-0.31c-0.15-0.02-0.3-0.1-0.45-0.16c-1.53-0.68-3.13-0.68-4.72-0.4c-0.61,0.11-1.17,0.46-1.4,1.33
		c0.35-0.05,0.58-0.05,0.78-0.11c1.31-0.35,2.63-0.43,3.97-0.17c0.96,0.18,1.85,0.58,2.86,0.65c1.12,0.08,2.19,0.52,3.36,0.6
		c1.15,0.07,1.97-0.45,2.88-0.9c0.1-0.05,0.14-0.21,0.2-0.32c0.09-0.16,0.17-0.32,0.27-0.47c0.28-0.48,0.62-0.94,0.83-1.45
		c0.24-0.56,0.33-1.18,0.82-1.62c0.12-0.11,0.12-0.34,0.18-0.52c0.07-0.23,0.11-0.47,0.22-0.68c0.85-1.66,1.33-3.42,1.54-5.27
		c0.05-0.42,0.2-0.82,0.3-1.24c0.16-0.7,0.34-1.39,0.47-2.1c0.09-0.55,0.11-1.12,0.16-1.68c0.1-1.04,0.26-2.07,0.3-3.11
		c0.04-0.85-0.05-1.71-0.09-2.56c-0.04-0.88-0.01-1.77-0.15-2.64c-0.36-2.32-0.32-4.64-0.14-6.95c0.17-2.07,0.6-4.13,0.93-6.18
		c0.08-0.5,0.27-0.96,0.62-1.37c0.16-0.19,0.26-0.47,0.29-0.71c0.2-1.52,0.48-2.97,1.67-4.12c0.73-0.7,1.44-1.4,2.3-1.92
		c0.4-0.24,0.84-0.44,1.27-0.64c0.14-0.07,0.31-0.09,0.46-0.12c0.42-0.07,0.85-0.12,1.26-0.22c0.34-0.08,0.57,0,0.76,0.28
		c0.09,0.13,0.19,0.25,0.33,0.44c0.37-0.15,0.79-0.22,1.08-0.46c0.79-0.66,1.7-0.94,2.68-0.85c1.06,0.09,2.1,0.36,3.16,0.51
		c1.27,0.18,2.24,0.75,2.84,1.91c0.14,0.28,0.4,0.5,0.61,0.74c0.59,0.7,1.16,1.39,1.5,2.26c0.48,1.24,1.01,2.47,1.53,3.7
		c0.05,0.11,0.16,0.22,0.27,0.27c0.31,0.13,0.4,0.4,0.49,0.69c0.54,1.71,1.09,3.41,1.63,5.12c0.14,0.46,0.21,0.94,0.38,1.39
		c0.64,1.68,1.37,3.3,2.52,4.71c0.63,0.77,1.34,1.3,2.41,1.04c0.36-0.09,0.75-0.07,1.11-0.17c0.38-0.11,0.78-0.23,1.08-0.46
		c1.21-0.93,1.62-2.13,1.12-3.62c-0.18-0.52-0.77-0.89-1.3-0.7c-0.3,0.11-0.58,0.28-0.84,0.46c-0.3,0.2-0.59,0.34-0.93,0.25
		c-0.22-0.38,0.03-0.59,0.21-0.81c0.23-0.29,0.49-0.57,0.69-0.88c0.18-0.28-0.03-0.82-0.37-1.03c-0.38-0.23-0.5,0.1-0.68,0.33
		c-0.47,0.63-1.04,1.15-1.72,1.54c-0.55,0.31-1.66-0.31-1.56-0.93c0.09-0.55-0.14-1-0.22-1.49c-0.11-0.69-0.37-1.3-1.2-1.33
		c-0.27-0.66-0.34-1.29-0.06-1.91c0.28-0.63,0.09-1.15-0.33-1.62c-0.21-0.24-0.46-0.44-0.71-0.65c-0.51-0.41-0.56-0.47-0.35-1.07
		c0.17-0.49,0.18-0.93-0.08-1.39c-0.06-0.1-0.07-0.24-0.1-0.38c0.87-0.3,1.7-0.57,2.52-0.88c1.18-0.44,2.33-0.97,3.19-1.91
		c0.72-0.79,1.64-1.06,2.61-1.27c0.18-0.04,0.38-0.02,0.55,0.02c1.72,0.44,2.67,1.56,2.87,3.24c0.14,1.14,0.23,2.29,0.33,3.43
		c0.03,0.41,0.13,0.76,0.43,1.08c0.29,0.31,0.51,0.69,0.75,1.04c0.68,0.97,1.63,1.59,2.73,1.99c0.4,0.15,0.78,0.32,1.18,0.46
		c0.14,0.05,0.34,0.11,0.45,0.05c0.36-0.21,0.72-0.13,1.09-0.07c0.73,0.12,1.34-0.1,1.93-0.55c0.35-0.27,0.79-0.45,1.21-0.6
		c1.9-0.69,3.73-1.47,5.13-3.02c0.54-0.59,1.15-1.11,1.67-1.71c0.66-0.76,1.29-1.56,1.89-2.37c0.56-0.78,1.11-1.57,1.57-2.41
		c0.8-1.46,2.12-2.28,3.59-2.78c1.58-0.54,3.23-0.99,4.94-0.87c0.81,0.06,1.66,0.12,2.31,0.75c1.33,1.3,2.27,2.83,2.74,4.63
		c0.04,0.15,0.06,0.33,0.03,0.48c-0.37,1.72-0.96,3.35-2.26,4.61c-0.89,0.86-1.89,1.6-3.02,2.08c-1.68,0.71-3.12,1.75-4.4,3.01
		c-1.11,1.08-2.4,2.01-3.08,3.45c-0.58,1.23-1.3,2.45-1.55,3.76c-0.25,1.33-0.01,2.76,0.05,4.15c0.01,0.25,0.17,0.5,0.28,0.75
		c0.21,0.49,0.45,0.97,0.66,1.46c0.56,1.36,1.2,2.69,2.23,3.77c0.13,0.13,0.26,0.28,0.42,0.36c0.54,0.3,1.07,0.63,1.64,0.84
		c0.75,0.27,1.53,0.58,2.3,0.61c0.75,0.03,1.27,0.3,1.77,0.76c0.27,0.25,0.6,0.48,0.81,0.77c0.42,0.57,0.93,1.09,1.12,1.82
		c0.34,1.35,0.02,2.66-0.16,3.98c-0.01,0.08-0.06,0.15-0.1,0.22c-0.56,1.29-1.73,1.67-2.95,1.88c-0.97,0.17-1.97,0.09-2.94,0.23
		c-2.24,0.34-3.83,1.6-4.7,3.67c-0.52,1.23-0.76,2.57-0.76,3.92c0.01,1.75,0.48,3.31,2.09,4.34c0.53,0.34,0.96,0.85,1.4,1.31
		c1.03,1.08,1.25,2.46,1.31,3.86c0.05,1.11-0.41,2.06-1.36,2.66c-0.55,0.35-1.18,0.6-1.81,0.81c-0.57,0.19-1.09,0.4-1.52,0.84
		c-0.56,0.57-1.18,1.09-1.73,1.67c-0.29,0.31-0.53,0.68-0.71,1.06c-0.21,0.46-0.32,0.96-0.49,1.44c-0.39,1.05-0.14,1.99,0.49,2.87
		c1.22,1.69,2.44,3.37,3.5,5.18c0.72,1.23,0.75,2.47,0.56,3.76c-0.16,1.09-0.76,2-1.52,2.77c-0.53,0.53-1.11,1.01-1.91,1.07
		c-0.56,0.04-1.11,0.13-1.67,0.12c-0.69,0-1.4,0-2.06-0.14c-1.32-0.29-2.33-1.19-3.35-1.99c-1.32-1.04-2.73-1.63-4.44-1.49
		c-0.6,0.05-1.21,0.16-1.81-0.11c-0.13-0.06-0.33-0.04-0.47,0.01c-0.68,0.23-1.36,0.46-2.03,0.74c-0.36,0.15-0.74,0.34-1.02,0.61
		c-0.74,0.7-1.36,1.51-1.82,2.43c-0.58,1.15-1.14,2.3-1.76,3.43c-0.61,1.1-1.39,2.04-2.73,2.29c-0.88,0.16-1.95-0.27-2.43-1.02
		c-0.29-0.45-0.5-0.95-0.81-1.38c-0.83-1.16-1.24-2.63-2.51-3.47c-0.05-0.03-0.05-0.14-0.07-0.23c0.31-0.53,0.83-0.77,1.36-0.66
		c0.85,0.18,1.58-0.13,2.33-0.38c0.6-0.2,1.07-0.58,1.11-1.3c0.01-0.15,0.07-0.3,0.12-0.52c1.82,0.42,2.47-0.96,3.25-2.09
		c1.24-0.01,1.7-0.25,1.8-1.35c0-0.05,0.02-0.11,0.03-0.16c0.04-0.44,0.25-0.71,0.68-0.89c0.29-0.12,0.53-0.42,0.72-0.69
		c0.13-0.18,0.15-0.45,0.2-0.68c0.11-0.46,0.33-0.77,0.85-0.82c0.22-0.02,0.51-0.11,0.64-0.28c0.48-0.59,1.08-0.96,1.74-1.3
		c0.45-0.24,0.8-0.3,1.27-0.08c0.45,0.21,0.95,0.39,1.44,0.41c0.88,0.05,1.26-0.67,0.78-1.4c-0.19-0.29-0.47-0.51-0.71-0.76
		c-0.29-0.32-0.24-0.59,0.16-0.73c0.17-0.06,0.37-0.03,0.55-0.04c0.29-0.02,0.61,0.04,0.86-0.07c0.45-0.19,0.87-0.13,1.33-0.06
		c0.43,0.07,0.91,0.08,1.33-0.04c0.59-0.16,0.81-0.61,0.68-1.1c-0.14-0.52-0.57-0.83-1.15-0.76c-0.88,0.12-1.64-0.16-2.34-0.64
		c-0.57-0.39-1.12-0.82-1.66-1.26c-0.2-0.16-0.34-0.39-0.41-0.47c0.15-0.63,0.26-1.12,0.39-1.65c0.91-0.58,1.04-0.66,1.3-1.45
		c0.15-0.46,0.4-0.59,0.83-0.51c0.61,0.12,1.07-0.22,1.57-0.49c0.57-0.31,0.75-0.79,0.72-1.4C98.9,73.14,98.94,73.05,98.98,72.91z
		 M114.27,26.74c0.08-0.25,0.09-0.35,0.14-0.4c0.07-0.06,0.18-0.07,0.27-0.11c0.02,0.03,0.03,0.07,0.05,0.1
		C114.63,26.44,114.52,26.53,114.27,26.74z M62.92,9.85c-0.1,0.08-0.15,0.14-0.21,0.16c-0.03,0.01-0.09-0.03-0.13-0.05
		c0.03-0.06,0.05-0.15,0.09-0.17C62.72,9.77,62.8,9.82,62.92,9.85z"/>
	<path class="st0" d="M114.03,78.86c-0.12,1.02,0.36,1.72,0.95,2.37c0.12,0.13,0.3,0.21,0.47,0.27c0.78,0.27,1.54,0.64,2.4,0.51
		c0.1-0.01,0.22,0,0.32,0.04c1.09,0.39,2.06,0.12,3.01-0.47c0.59-0.37,1.2-0.66,1.69-1.18c0.47-0.5,0.75-1.03,0.76-1.7
		c0.01-0.5,0.01-1.02-0.05-1.51c-0.07-0.56-0.39-0.95-0.91-1.23c-0.88-0.47-1.77-0.85-2.76-1.04c-0.57-0.11-1.1-0.12-1.65,0.06
		c-1.02,0.32-2.04,0.62-2.9,1.32C114.5,76.98,113.85,77.75,114.03,78.86z M121.27,77.64c-0.01,1.18-0.41,2.13-1.55,2.67
		c-0.31,0.15-0.58,0.16-0.91,0.04c-0.72-0.26-1.46-0.5-2.21-0.68c-0.93-0.23-1.31-0.8-0.98-1.7c0.11-0.31,0.35-0.6,0.57-0.85
		c0.79-0.89,1.86-1.29,2.98-1.36C120.58,75.67,121.24,76.24,121.27,77.64z"/>
	<path class="st0" d="M63.71,70.19c-0.1,1,0.25,1.88,0.62,2.79c0.43,1.04,1.01,1.94,1.85,2.67c0.06,0.05,0.12,0.11,0.17,0.17
		c1.05,1.22,2.38,2,3.88,2.6c1.02,0.41,2.04,0.54,3.11,0.57c0.99,0.03,1.97,0.05,2.94-0.22c0.79-0.22,1.51-0.51,2.01-1.22
		c0.15-0.21,0.38-0.37,0.59-0.54c0.8-0.67,1.48-1.41,1.85-2.44c0.36-1,0.88-1.94,1.33-2.91c0.51-1.1,0.82-2.24,0.93-3.46
		c0.14-1.56,0.42-3.12,0.62-4.68c0.04-0.29,0.03-0.59,0.02-0.88c-0.03-1.09-0.01-2.19-0.13-3.27c-0.13-1.14-0.33-2.27-0.63-3.38
		c-0.38-1.41-0.83-2.82-1.38-4.17c-0.28-0.7-0.84-1.3-1.29-1.92c-0.31-0.43-0.68-0.82-1-1.25c-0.51-0.67-1.16-1.2-1.91-1.56
		c-0.74-0.35-1.56-0.29-2.36-0.14c-0.29,0.05-0.57,0.16-0.86,0.2c-0.47,0.07-0.79,0.36-1.16,0.64c-1.43,1.06-2.18,2.69-3.39,3.92
		c-0.83,0.85-1.22,1.93-1.71,2.95c-0.77,1.58-1.47,3.2-2.14,4.83c-0.3,0.74-0.48,1.53-0.64,2.31c-0.32,1.54-0.61,3.09-0.86,4.64
		C63.97,67.69,63.86,68.95,63.71,70.19z M73.26,57.69c-0.03,0-0.06,0-0.09,0c0,0.51,0.03,1.02-0.01,1.52
		c-0.09,1.17-0.19,2.34-0.32,3.51c-0.14,1.25-0.28,2.5-0.49,3.73c-0.07,0.43-0.37,0.82-0.57,1.22c-0.34,0.68-1.05,0.95-1.6,1.4
		c-1.16,0.96-3.13,0.31-3.45-1.15c-0.27-1.25-0.12-2.5,0.16-3.72c0.31-1.32,0.79-2.61,1.12-3.92c0.62-2.44,1.54-4.78,2.46-7.11
		c0.14-0.36,0.4-0.7,0.68-0.97c0.5-0.48,1.06-0.33,1.34,0.28c0.11,0.24,0.21,0.5,0.35,0.72c0.31,0.49,0.42,1.02,0.41,1.6
		C73.25,55.77,73.26,56.73,73.26,57.69z"/>
	<path class="st0" d="M49.78,58.19c0.75-0.97,1.54-1.82,2.13-2.79c0.51-0.83,1.07-1.66,1.22-2.67c0.03-0.21,0.13-0.41,0.22-0.6
		c0.79-1.71,1.31-3.5,1.57-5.36c0.16-1.13,0.44-2.26,0.49-3.4c0.09-1.97,0.07-3.95,0.04-5.93c-0.01-0.71-0.28-1.42-0.31-2.13
		c-0.07-1.38-0.11-2.77-0.05-4.15c0.09-2,0.29-4,0.44-5.99c0.12-1.62,0.37-3.23,0.75-4.81c0.11-0.45,0.41-0.87,0.7-1.24
		c0.88-1.12,1.89-2.08,3.37-2.36c0.29-0.05,0.57-0.15,0.84-0.26c1.85-0.75,3.79-0.88,5.74-0.76c0.52,0.03,1.03,0.39,1.52,0.65
		c0.42,0.23,0.77,0.56,1.17,0.83c1.04,0.69,1.54,1.74,1.91,2.87c0.07,0.2,0.11,0.41,0.17,0.62c0.26,0.9,0.5,1.79,0.53,2.75
		c0.03,0.9,0.13,1.82,0.33,2.7c0.17,0.75,0.46,1.49,0.83,2.16c0.51,0.96,1.09,1.9,1.74,2.77c0.81,1.09,1.74,2.09,2.59,3.16
		c0.95,1.18,2.19,1.79,3.62,2.22c1.15,0.34,2.27,0.57,3.46,0.47c0.54-0.04,0.98-0.24,1.32-0.66c0.25-0.31,0.27-0.61,0.09-0.96
		c-0.17-0.36-0.45-0.42-0.8-0.38c-0.29,0.04-0.59,0.06-0.87,0.14c-1.41,0.4-2.75,0.3-4-0.49c-0.59-0.37-1.15-0.77-1.73-1.14
		c-0.31-0.2-0.73-0.3-0.95-0.57c-1.26-1.55-2.61-3.04-3.32-4.97c-0.45-1.23-0.83-2.47-0.98-3.78c-0.02-0.18-0.05-0.39-0.15-0.54
		c-0.57-0.89-0.57-1.94-0.85-2.91c-0.1-0.35-0.22-0.71-0.38-1.04c-0.35-0.75-0.71-1.49-1.1-2.22c-0.23-0.43-0.57-0.76-1.01-1
		c-0.4-0.22-0.78-0.47-1.12-0.78c-0.94-0.86-2.09-0.91-3.24-0.82c-1.3,0.11-2.61,0.28-3.88,0.59c-1.05,0.25-2.06,0.71-3.06,1.14
		c-0.48,0.2-0.94,0.49-1.36,0.81c-1.26,0.94-1.77,2.32-2.04,3.79c-0.41,2.26-0.8,4.52-1.12,6.79c-0.2,1.43-0.15,2.88,0.14,4.31
		c0.08,0.42,0.1,0.85,0.12,1.27c0.08,1.31,0.14,2.62,0.21,3.92c0.15,2.62,0.22,5.24-0.19,7.84c-0.02,0.13-0.06,0.26-0.1,0.39
		c-0.82,2.63-1.65,5.25-2.46,7.88c-0.28,0.91-0.73,1.72-1.33,2.45c-0.39,0.47-0.75,0.96-1.12,1.45
		C49.38,57.65,49.38,57.66,49.78,58.19z"/>
	<path class="st0" d="M95.82,52.17c0.38-0.47,0.74-0.85,1.02-1.28c0.36-0.58,0.23-0.88-0.42-1.17c-0.17-0.07-0.33-0.16-0.64-0.32
		c0.51-0.24,0.88-0.49,1.29-0.59c0.75-0.18,1.53-0.25,2.29-0.39c0.37-0.07,0.73-0.17,1.08-0.27c0.53-0.15,0.77-0.55,0.82-1.07
		c0.09-0.87-0.23-1.23-1.1-1.3c-0.71-0.06-1.37,0.07-2.04,0.31c-1.13,0.42-2.29,0.38-3.55,0.21c0.04-0.55,0.07-1.03,0.11-1.62
		c0.98,0.56,1.46-0.11,1.87-0.65c0.38-0.51,0.7-0.79,1.41-0.77c0.7,0.02,1.43-0.23,2.09-0.48c0.36-0.14,0.67-0.52,0.92-0.85
		c0.23-0.31,0.04-0.75-0.34-0.81c-0.41-0.06-0.8-0.08-1.24,0.09c-1.06,0.4-2.18,0.63-3.26,1c-0.54,0.19-1.05,0.49-1.54,0.8
		c-0.43,0.27-0.83,0.59-1.2,0.94c-0.6,0.57-1.3,1.09-1.7,1.79c-0.42,0.74-0.72,1.6-0.67,2.52c0.02,0.36-0.14,0.72-0.12,1.08
		c0.03,0.44,0.14,0.89,0.24,1.32c0.09,0.39,0.12,0.76,0.12,1.16c-0.01,0.56,0.11,1.23,0.44,1.66c0.55,0.7,1.25,1.29,2.24,1.4
		c0.86,0.09,1.7,0.19,2.48-0.31c0.27-0.17,0.6-0.28,0.55-0.7c-0.05-0.48-0.09-1-0.59-1.23C96.1,52.5,95.85,52.41,95.82,52.17z"/>
	<path class="st0" d="M100.11,66.1c-0.4,0-0.71-0.02-1.01,0.01c-0.2,0.02-0.41,0.08-0.59,0.15c-1.18,0.49-1.95,1.48-2.78,2.38
		c-1.42,1.53-2.68,3.19-3.85,4.91c-0.42,0.61-0.86,1.23-1.16,1.9c-0.4,0.91-1.11,1.55-1.69,2.3c-0.08,0.1-0.2,0.19-0.25,0.3
		c-0.32,0.85-0.62,1.71-0.93,2.56c-0.09,0.25-0.18,0.5-0.32,0.73c-0.47,0.77-0.95,1.55-1.45,2.3c-0.98,1.47-1.91,2.97-2.98,4.36
		c-0.89,1.16-2.08,1.99-3.54,2.35c-0.2,0.05-0.45,0.14-0.62,0.07c-1.01-0.44-1.91,0.02-2.75,0.42c-0.96,0.46-1.94,0.73-2.98,0.83
		c-0.24,0.02-0.48,0.07-0.71,0.14c-1.33,0.39-2.69,0.33-4.06,0.33c-1.54,0-3.03-0.22-4.51-0.6c-0.88-0.23-1.77-0.38-2.66-0.55
		c-1.15-0.23-2.15-0.78-3.14-1.37c-0.11-0.07-0.22-0.15-0.32-0.24c-1.01-0.88-2.03-1.74-3.01-2.64c-0.35-0.32-0.66-0.71-0.89-1.13
		c-0.46-0.87-0.87-1.77-1.27-2.67c-0.39-0.88-0.73-1.78-1.09-2.67c-0.05-0.12-0.14-0.24-0.16-0.37c-0.2-1.31-0.85-2.46-1.23-3.71
		c-0.21-0.7-0.61-1.36-0.96-2.01c-0.15-0.27-0.37-0.52-0.82-0.49c0.03,0.15,0.02,0.29,0.08,0.37c0.24,0.29,0.49,0.56,0.41,0.99
		c-0.02,0.09,0.05,0.22,0.12,0.29c0.45,0.41,0.5,0.98,0.65,1.52c0.16,0.56,0.38,1.11,0.56,1.67c0.32,0.96,0.6,1.94,0.94,2.89
		c0.45,1.23,0.93,2.45,1.44,3.65c0.19,0.43,0.47,0.85,0.8,1.19c0.68,0.71,1.25,1.5,1.98,2.18c0.63,0.59,1.34,1.04,1.98,1.6
		c0.45,0.4,1.02,0.69,1.57,0.95c0.74,0.35,1.53,0.59,2.28,0.93c0.91,0.42,1.9,0.5,2.85,0.74c0.57,0.14,1.12,0.4,1.71,0.29
		c0.88-0.15,1.74-0.2,2.6,0.1c0.13,0.04,0.31-0.07,0.46-0.08c0.48-0.03,0.95-0.04,1.43-0.08c0.58-0.04,1.16-0.07,1.74-0.14
		c0.61-0.07,1.21-0.19,1.81-0.28c1.08-0.17,2.14-0.32,3.2-0.64c0.91-0.28,1.86-0.65,2.87-0.58c0.08,0.01,0.16-0.01,0.23-0.04
		c1.67-0.88,3.17-1.97,4.28-3.53c1.47-2.07,2.91-4.16,4.36-6.24c0.63-0.91,1.14-1.89,1.55-2.92c0.29-0.71,0.66-1.37,1.13-2.01
		c0.58-0.79,1.01-1.7,1.45-2.58c0.28-0.56,0.6-1.06,1.03-1.51C94.49,71.8,95,71.1,95.6,70.5c0.62-0.62,1.32-1.17,1.96-1.77
		c0.47-0.44,0.88-0.93,1.35-1.38c0.29-0.27,0.6-0.52,0.94-0.73C100.07,66.48,100.24,66.37,100.11,66.1z M97.05,68.29
		c0.05-0.45,0.39-0.58,0.72-0.71C97.53,67.82,97.29,68.05,97.05,68.29z"/>
	<path class="st0" d="M63.4,66.54c0.32-0.21,0.32-0.46,0.22-0.77c-0.19-0.59-0.23-1.19-0.1-1.81c0.07-0.33,0-0.69-0.02-1.03
		c-0.02-0.26-0.06-0.52-0.1-0.82c0.2-0.01,0.35-0.03,0.54-0.04c0.18-0.33,0.12-0.6-0.14-0.91c-0.39-0.45-0.57-1-0.43-1.68
		c0.27,0.27,0.48,0.5,0.71,0.72c0.34-0.3,0.23-0.52,0.16-0.79c-0.17-0.69-0.28-1.41-0.39-2.11c-0.02-0.16,0.08-0.34,0.29-0.53
		c0.15,0.48,0.3,0.96,0.46,1.47c0.49-0.1,0.55-0.34,0.46-0.76c-0.23-1.12-0.09-2.26-0.08-3.4c0-0.11,0.1-0.22,0.3-0.31
		c0.06,0.77,0.13,1.54,0.19,2.3c0.5,0,0.64-0.2,0.62-0.6c-0.05-1.07,0.01-2.14,0.35-3.16c0.02-0.07,0.08-0.12,0.16-0.25
		c0.14,0.49,0.25,0.9,0.36,1.3c0.49,0,0.59-0.23,0.56-0.61c-0.03-0.45-0.01-0.9-0.01-1.49c0.33,0.24,0.56,0.58,0.93,0.19
		c-0.01-0.14-0.04-0.35-0.05-0.55c-0.01-0.13-0.05-0.34,0.01-0.39c0.6-0.43,0.32-1.06,0.38-1.61c0.02-0.15,0.04-0.3,0.18-0.47
		c0.1,0.25,0.2,0.5,0.3,0.75c0.59-0.08,0.59-0.08,0.46-1.12c0.64-0.1,0.59-0.69,0.73-1.14c0.03-0.09-0.13-0.3-0.24-0.36
		c-0.18-0.1-0.42-0.18-0.62-0.15c-1.21,0.16-2.46,0.19-3.43,1.09c-1.13,1.04-1.91,2.32-2.34,3.77c-0.5,1.71-0.95,3.46-1.22,5.22
		c-0.23,1.49-0.45,2.99-0.14,4.53c0.28,1.43,0.28,2.92,0.39,4.38C62.93,65.86,63.05,66.24,63.4,66.54z"/>
	<path class="st0" d="M91.94,41.32c-0.48-0.19-0.84-0.11-1.12,0.17c-0.41,0.42-0.83,0.84-1.14,1.33c-0.95,1.54-1.58,3.22-1.97,4.97
		c-0.2,0.88-0.17,1.81-0.22,2.71c-0.02,0.45-0.03,0.9,0.04,1.34c0.14,0.85,0.48,1.61,1.08,2.27c0.44,0.49,0.8,1.08,1.08,1.68
		c0.54,1.12,1.56,1.55,2.59,2c1.99,0.86,4.07,0.79,6.15,0.56c1.08-0.12,2.07-0.57,2.95-1.18c0.53-0.36,1.06-0.5,1.64-0.51
		c0.59-0.01,1.18,0.02,1.76,0.1c0.44,0.06,0.78-0.12,1.12-0.33c0.3-0.18,0.34-0.47,0.29-0.77c-0.06-0.31-0.33-0.29-0.57-0.32
		c-1.27-0.14-2.51,0.06-3.7,0.5c-0.75,0.28-1.46,0.65-2.2,0.96c-0.99,0.42-2.01,0.72-3.1,0.73c-0.08,0-0.17,0.02-0.24,0
		c-1.17-0.46-2.48-0.23-3.64-0.7c-1.58-0.64-2.78-1.57-3.16-3.4c-0.25-1.22-0.4-2.41-0.34-3.64c0.02-0.43-0.02-0.86-0.01-1.28
		c0.05-1.64,0.66-3.08,1.64-4.35c0.49-0.63,0.79-1.31,1.02-2.04C92,41.86,91.94,41.56,91.94,41.32z"/>
	<path class="st0" d="M85.9,66.99c-0.37,0-0.7,0-1.14,0c0,0.76,0.04,1.47-0.01,2.18c-0.13,1.74-0.41,3.47-1.45,4.92
		c-0.88,1.23-1.6,2.58-2.74,3.63c-0.6,0.55-1.09,1.22-1.77,1.72c-0.52,0.39-1.05,0.72-1.65,0.94c-0.3,0.11-0.64,0.22-0.51,0.66
		c0.12,0.42,0.39,0.55,0.87,0.45c1.15-0.23,2.12-0.84,3.1-1.43c0.13-0.08,0.22-0.23,0.34-0.33c0.39-0.35,0.76-0.74,1.19-1.03
		c0.92-0.61,1.55-1.45,2.06-2.4c0.65-1.22,1.25-2.46,1.64-3.8c0.04-0.15,0.09-0.3,0.11-0.46c0.06-0.74,0.1-1.48,0.18-2.22
		C86.21,68.86,86.24,67.91,85.9,66.99z"/>
	<path class="st0" d="M27.21,62.3c-0.4,0.05-0.77,0.08-1.14,0.14c-0.18,0.03-0.36,0.1-0.51,0.2c-0.48,0.3-0.58,0.53-0.42,0.9
		c0.17,0.4,0.66,0.72,1.03,0.53c0.99-0.51,2.04-0.38,3.07-0.35c0.94,0.03,1.92,0.02,2.8,0.48c1.03,0.54,2.16,0.76,3.27,1.05
		c0.88,0.23,1.75,0.45,2.64,0.64c0.49,0.1,0.98,0.14,1.47-0.16c0.38-0.23,0.86-0.27,1.28-0.44c0.29-0.12,0.61-0.27,0.78-0.5
		c0.15-0.2,0.2-0.56,0.13-0.8c-0.09-0.3-0.43-0.24-0.7-0.2c-0.76,0.1-1.53,0.2-2.29,0.29c-1.2,0.14-2.32-0.23-3.47-0.47
		c-0.52-0.11-1.04-0.21-1.56-0.31c-1.38-0.28-2.76-0.58-4.16-0.81C28.68,62.34,27.93,62.35,27.21,62.3z"/>
	<path class="st0" d="M83.64,39.92c1.48,0.01,2.44-0.62,3.42-1.22c0.61-0.38,1.23-0.76,1.88-1.05c0.42-0.18,0.93-0.18,1.39-0.28
		c0.22-0.05,0.5-0.11,0.61-0.26c0.18-0.24,0.11-0.54-0.07-0.82c-0.58-0.85-1.67-0.91-2.48-0.11c-1.04,1.03-2.23,1.8-3.62,2.27
		c-0.81,0.27-1.57,0.19-2.34-0.1c-0.35-0.13-0.7-0.28-1.06-0.37c-0.19-0.05-0.43-0.03-0.61,0.04c-0.47,0.17-0.52,0.48-0.16,0.85
		c0.15,0.15,0.32,0.29,0.51,0.38C82,39.67,82.94,39.86,83.64,39.92z"/>
</g>
</svg>
