<?xml version="1.0" encoding="utf-8"?>
<!-- Generator: Adobe Illustrator 23.1.0, SVG Export Plug-In . SVG Version: 6.00 Build 0)  -->
<svg version="1.1" xmlns="http://www.w3.org/2000/svg" xmlns:xlink="http://www.w3.org/1999/xlink" x="0px" y="0px"
	 viewBox="0 0 137.2 115.2" style="enable-background:new 0 0 137.2 115.2;" xml:space="preserve">
<style type="text/css">
	.st0{fill:#B9D656;}
	.st1{fill:#3B3B3B;}
	.st2{fill:#FDEB9F;}
	.st3{fill:#33412A;}
	.st4{fill:#C69986;}
	.st5{fill:#6F3F2B;}
</style>
<g id="Layer_2">
	<path class="st0" d="M121.6,14.2c-0.1-0.1-0.3-0.3-0.5-0.4c-0.2-0.5-0.5-0.9-0.9-1.2c-0.3-0.3-0.7-0.5-1-0.8
		c-0.8-0.5-1.6-0.7-2.5-0.7c-0.4,0.1-0.9,0.1-1.3,0.2c-0.3,0.1-0.7,0.2-1,0.4c-1.6-0.5-3.4-0.3-4.9,1.1c-2.5,2.3-4.4,5.3-6.9,7.6
		c-1.5,1.3-2.9,2.6-4.1,4.1c0,0,0,0,0,0c-0.3,0-0.7,0-1,0.1c-1.4,0.2-2.4,0.2-3.8-0.3c-1.1-0.3-2.1-0.4-2.9-1.2
		c-0.1-0.1-0.2-0.1-0.2-0.2c0.2-0.9,0.3-1.8,0.5-2.6c0.4-2.7-0.7-5.4-3.5-6.2c-1.9-0.5-4.4,0.3-5.5,2c-1,0.2-1.8,0.7-2.4,1.3
		c-0.9,0-1.8,0.2-2.5,0.7c-0.8,0.5-1.4,1.2-1.8,2c-1-2-2-4-2.9-6c-0.9-2.1-3.7-2.8-5.8-2.2c-0.6-0.4-1.2-0.6-1.9-0.8
		c-0.1-0.9-0.8-1.6-1.9-1.6c-1.4,0-2,1.2-1.9,2.2c-0.1,0-0.1,0.1-0.2,0.1c-1.1,0.2-1.9,0.8-2.5,1.5c-1.5,0.3-2.5,1.2-3.1,2.4
		c-1.5,1-2.5,2.7-2.3,4.5c-0.3-0.1-0.6-0.2-1-0.2c-1.3-0.3-2.6-0.2-3.9,0.5c-1,0.6-2,1.8-2.3,3c-0.3,0-0.6-0.1-0.8-0.1
		c-0.7-0.1-1.4,0.1-2,0.4c-0.3-0.2-0.7-0.2-1.1-0.2c-0.1,0-0.2,0-0.3,0c-0.2,0-0.3-0.1-0.5-0.2c-0.6-0.3-1.2-0.6-1.7-0.9
		c-0.1-0.1-0.1-0.1-0.2-0.2c-0.4-0.4-0.9-0.6-1.4-0.6c-0.2,0-0.5,0.1-0.7,0.1c-0.1,0-0.2,0-0.4,0c-0.5,0-1.1,0.2-1.4,0.6
		c-0.3,0.4-0.6,0.9-0.6,1.4c0,0.5,0.2,1.1,0.6,1.4c1.2,1.1,2.5,2.1,3.7,3.1c0.2,0.2,0.4,0.3,0.6,0.4c0.1,0.1,0.2,0.1,0.3,0.1
		c0.2,1.6,1,2.8,2.3,3.5c0,0.3-0.1,0.5-0.1,0.8c0,0.3,0.1,0.7,0.1,1c-1.2,0.8-2,2-2.3,3.4c-0.8,0.1-1.6,0.3-2.4,0.4
		c0,0-0.1-0.1-0.1-0.1c-0.5-0.3-1-0.3-1.5-0.2c0.6-0.1-0.1,0-0.2,0c-0.2,0-0.4,0-0.6,0c-0.1,0-0.3,0-0.4,0c0,0,0,0,0,0
		c-0.1,0-0.1,0-0.2,0c-0.3-0.1-0.7-0.2-1-0.3c-0.1,0-0.2-0.1-0.3-0.1c0.4,0.2,0.3,0.1-0.2-0.1c-0.1-0.1-0.3-0.1-0.4-0.1
		c-0.7-0.1-1.4,0-2.1,0.3c-0.3,0.1-0.5,0.3-0.8,0.5c0,0-0.1,0-0.1,0.1c0,0,0,0,0,0c-0.1,0-0.3,0.1-0.4,0.1c-0.1,0-0.1,0-0.2,0
		c-0.1,0-0.7-0.1-0.2,0c-0.5-0.1-1-0.1-1.5,0.2c-0.2,0.1-0.4,0.3-0.6,0.6c-0.1,0-0.2,0.1-0.3,0.1c-0.2,0.1-0.4,0.3-0.6,0.5
		c-0.2,0.2-0.3,0.4-0.4,0.7c0,0.2,0,0.4-0.1,0.5c0,0.4,0.1,0.7,0.3,1c0.1,0.1,0.2,0.3,0.3,0.4c0.1,0.1,0.2,0.1,0.2,0.2
		c0,0.1,0.1,0.2,0.1,0.3c0.1,0.2,0.2,0.4,0.4,0.5c0.2,0.1,0.4,0.3,0.5,0.4c0.3,0.2,0.5,0.4,0.8,0.6c0.2,0.1,0.5,0.2,0.7,0.2
		c0.2,0,0.4,0,0.6,0c-1.1,0.3-1.9,0.9-2.5,1.7c-0.9,0.4-1.6,1.1-2.1,1.9c-0.4,0-0.9,0.1-1.3,0.1c-1,0-1.8,0.3-2.4,0.7
		c-1.4-0.2-2.8-0.5-4.3-1c-1.7-0.6-3.2-0.2-4.3,0.7c-6.2-0.5-6.2,9.4,0.1,10c1.3,0.1,2.5,0.2,3.8,0.3c0.2,1.6,1.2,3.1,2.7,3.8
		c-0.1,0.9-0.1,1.8,0.2,2.6c-1.2,0.4-2.1,1.1-2.5,2c-2.1,2.9-0.9,8.2,3.8,8.2c1.2,0,2.2-0.4,3-0.9c3.1-0.6,6.1-1.3,9.2-1.9
		c0.4,0.7,0.9,1.4,1.4,2c0.4,0.6,0.9,1.2,1.4,1.7c0.2,0.1,0.3,0.3,0.5,0.4c0.3,0.4,0.7,0.8,1.2,1.1c0,0.4,0.1,0.8,0.1,1.2
		c-0.2,0.7-0.2,1.5-0.1,2.3c-0.9,0.6-1.7,1.2-2.6,1.8c-2.7,1.9-4.6,5.1-6.7,7.6c-1.7,2.1-2,5,0,7.1c0.7,0.7,1.8,1.2,2.8,1.4
		c0.6,0.2,1.2,0.3,1.9,0.3c3.2,0,4.8-2.5,4.8-5c1.2-1.5,2.4-2.9,3.9-3.8c2.5-1.5,4.7-3.3,6.8-5.3c0,1.1,0.5,2.2,1.5,3.2
		c1.1,1.1,2.3,1.5,3.4,2.4c1,0.7,1.8,1.7,2.8,2.4c1.3,0.8,2.9,1.4,4.6,1.8c0.8,1.1,2,1.9,3.7,2c3.6,0.3,7.1-0.3,10.6-1.2
		c0.2,1.6,1.1,3.1,2.6,3.8c0.4,2.3,2.6,4.3,4.9,4.2c2.8-0.1,4.9-2.2,5-5c0-0.3,0-0.7,0.1-1c3.2-0.9,6.4-1.2,9.8-0.9
		c0.6,0,1.2,0,1.7-0.1c0.5,0.4,1,0.9,1.4,1.3c1,0.9,2.1,1.5,3.5,1.5c1.2,0,2.7-0.5,3.5-1.5c0.9-0.9,1.5-2.1,1.5-3.4
		c0.9-1.7,0.9-4-0.2-5.6c0.2-1.1,0.1-2.3-0.6-3.3c-0.8-1.1-1.6-2.2-2.5-3.1c-0.1-0.1-0.2-0.1-0.2-0.2c0.3-0.7,0.5-1.4,0.6-2.2
		c1.9-0.4,3.1-1.7,3.6-3.3c0.8-0.2,1.5-0.6,2-1.2c1.8-2,2-5.1,0-7.1c-1-1-1.9-2-2.9-3c0,0,0,0,0,0c0.5-1.5,0.2-3.1-0.6-4.4
		c0.5-0.6,1-1.1,1.5-1.7c0.2-0.2,0.4-0.5,0.5-0.7c2.5-1,4.9-2.1,7.2-3.4c4.8-2.5,1.9-9.1-2.5-9.2c-0.5-0.2-1-0.4-1.5-0.6
		c-0.3-0.1-0.6-0.2-0.9-0.4c0,0,0,0,0,0c0,0-0.1-0.2-0.2-0.4c-0.1-0.2-0.2-0.7-0.2-0.7c-0.4-1.4-1.4-2.5-2.7-3.2
		c0.7-3.5,1.8-6.8,3.6-10c0.1-0.2,0.2-0.4,0.3-0.6c0.7-0.4,1.4-1,1.8-1.8c0.6-1.1,1.1-2.4,1.8-3.5c1.7-1,3.2-2.2,4.5-3.7
		C123.4,19.2,123.6,16.2,121.6,14.2z"/>
	<path class="st1" d="M121.6,76.8c-0.2-0.8-0.8-1.5-1.9-1.5c-0.6,0-1.1,0.3-1.5,0.6c-0.2,0-0.3-0.1-0.5-0.1c-0.9,0-1.5,0.5-1.8,1.2
		c-0.4,0.1-0.8,0.3-1,0.6c-0.3,0.3-0.6,0.9-0.6,1.4c0,0.5,0.2,1.1,0.6,1.4c0.1,0.1,0.3,0.2,0.4,0.3c0.3,0.2,0.6,0.3,1,0.3
		c0.3,0,0.7,0.1,1,0c0.5,0,1-0.1,1.5-0.2c0.5-0.1,0.9-0.3,1.3-0.5c0.4-0.2,0.8-0.5,1.2-0.8c0.2-0.2,0.3-0.4,0.4-0.6
		c0.1-0.2,0.2-0.5,0.2-0.8C122,77.6,121.8,77.2,121.6,76.8z"/>
</g>
<g id="Layer_3">
	<g>
		<path class="st2" d="M44.8,71.8C44.6,71.8,44.4,72,44.8,71.8L44.8,71.8z"/>
		<path class="st2" d="M103.1,55.5c-1.1,0.2-2.3,0.6-3.3,1.1c-0.2,0.1-1.4,0.8-1.9,1.2c-0.7-0.1-2.2,0-2.4,0c-1.3,0-2.6-0.1-3.9-0.2
			c0,0,0,0,0,0c0-0.6-0.2-1.2-0.6-1.6c-0.7-0.9-1.8-1.5-2.4-2.4c-0.3-0.4-0.5-1.3-0.5-2c-0.3-2.4,0.2-4.4,1.6-6.3
			c0.6-0.9,0.8-1.8,0.7-2.6c1.9-1.1,3.5-2.7,5.8-3.8c1.8-0.9,2.3-2.5,1.9-4c0.7-0.3,1.1-0.9,1.2-1.6c0.1-0.8-0.3-1.5-1-2
			c-0.9-0.6-2.3-0.7-3.3-0.3c-0.5,0.2-0.9,0.4-1.4,0.6c-0.5,0-1,0.2-1.5,0.4c-3.5,1.7-4.8,4.2-9.1,4.2c-1.1,0-2.1,0-3.2,0.1
			c-0.3-0.4-0.7-0.8-1.2-1.2c-1.4-0.9-2-3-3.1-4.3c0-0.1-0.3-0.4-0.5-0.6c-0.3-1.2-0.9-2.3-1.6-3.2c0,0-0.1-0.1-0.1-0.1
			c0.2-0.5,0.4-1.1,0.4-1.8c-0.1-5-4.6-11.3-10.1-9.7c-2.4,0.7-5.1,1.4-6.7,3.4c-1.6,2.1-1.2,5.1-1.9,7.6c-0.2,0.7-0.2,1.4,0,1.9
			c-0.2,0.5-0.3,1-0.4,1.6c-0.2,4.2,0.8,8.4,0.9,12.6c-0.5,0.6-0.8,1.4-0.8,2.3c-0.1,0.8,0,1.6,0.1,2.4c-1.1,3.2-2,6.6-4.1,9.3
			c-0.4,0.5-0.7,1-0.9,1.5c-4.3,3-10.1,2.6-15.1,2.4c-2-0.1-3.2,1.1-3.6,2.5c-3.9-1-8.4,0.9-11.3,3.5c-0.8,0.7-0.8,2.1,0,2.8
			c0.8,0.8,2,0.7,2.8,0c0.2-0.2,0.3-0.3,0.5-0.4c0,0,0.4-0.3,0.4-0.3c0.4-0.3,0.9-0.5,1.3-0.8c0,0,0.5-0.2,0.5-0.2
			c0.2-0.1,0.3-0.1,0.5-0.2c0.5-0.2,1-0.3,1.5-0.4c0.2,0,0.4-0.1,0.6-0.1c0.1,0,0.4,0,0.5,0c0.4,0,0.8,0,1.1,0
			c0.1,0,0.4,0.1,0.5,0.1c0.2,0,0.4,0.1,0.6,0.2c0,0,0.4,0.2,0.4,0.2c0.1,0.1,0.2,0.1,0.3,0.2c0,0,0,0,0,0c0.4,0.4,1,0.6,1.5,0.6
			c0.5,0.3,1.1,0.5,1.8,0.5c2.9,0.1,5.8,0.1,8.5-0.2c-0.5,0.2-1.1,0.5-1.6,0.7c-1.2,0.6-2.4,1.3-3.5,2.1c-0.9,0.6-1.3,1.8-0.7,2.7
			c0.6,0.9,1.8,1.3,2.7,0.7c0.9-0.6,1.9-1.2,2.8-1.7c0.5-0.3,0.9-0.5,1.4-0.8c0.1-0.1,0.2-0.1,0.3-0.2c0,0,0,0-0.1,0c0,0,0,0,0,0
			c0.2-0.1,0.4-0.1,0.5-0.1c0.1,0,0.3,0,0.4,0c0.5,0,1.1-0.1,1.5-0.4c0.2,0.2,0.5,0.4,0.7,0.6c0.1,0.1,0.7,0.6,0.3,0.3
			c0.1,0.1,0.1,0.2,0.2,0.4c-0.1-0.3-0.1-0.3,0,0c0.5,1.3,0.7,2.8,1.6,4c0.2,0.2,0.4,0.5,0.6,0.7c0.2,0.6,0.4,1.3,0.7,2
			c0.1,0.3,0.1,0.3,0,0c0,0.1,0.1,0.3,0.1,0.4c0.1,0.4,0.2,0.8,0.3,1.2c0.3,1,0.7,1.8,1.3,2.6c0.3,1.4,1,2.6,2.1,3.6
			c0.1,0.7,0.5,1.4,1.2,2c6.3,5.3,16.7,3.1,24,1.3c1.2-0.3,1.9-0.9,2.4-1.7c0.5-0.4,1-0.8,1.3-1.4c0,0,0.1-0.1,0.1-0.1l0,0
			c0,0,0,0,0-0.1c0.1-0.1,0.3-0.3,0.4-0.4c0.6-0.7,1.1-1.4,1.4-2.3c1.4-1,2.7-2.3,3-4.1c0.1-0.3,0.1-0.7,0.1-1.1
			c1.1-1.4,1.8-3.1,2.7-4.7c1.2-2.1,2.6-4,4.3-5.8c0.4-0.4,0.6-0.7,0.8-1.1c1.4-0.1,2.5-0.8,3-1.8c2-0.4,3.4-2,5.5-2.4
			C110.3,62.2,108.1,54.5,103.1,55.5z M74.9,73.6c-1.9,0-3.9,0-5.8,0c0-0.2,0.1-0.4,0.1-0.6c0-1.4-0.6-2.4-1.5-3.1
			c5.6,1.7,7.5-7.7,8.3-11.6c0.6-2.9,1.4-6.3,0.2-9.2c0.1,0,0.1,0.1,0.2,0.1c1.2,0.6,2.4,0.9,3.7,0.8c0,0.7,0,1.4,0.1,2.1
			c0.2,1.8,0.4,3.7,1.3,5.3c0.4,0.7,0.9,1.3,1.4,1.9c0,0.3-0.1,0.7,0,1.1C83.5,65.4,81,73.5,74.9,73.6z"/>
	</g>
	<path class="st2" d="M81.9,22.4c-5.1,0-5.2,8,0,8C87.1,30.4,87.1,22.4,81.9,22.4z"/>
	<path class="st2" d="M117.5,12.2c-0.5-0.2-1.1-0.1-1.7,0.1c-0.3,0.1-0.6,0.2-0.8,0.3c-0.4,0.2-0.8,0.3-1.2,0.5
		c-0.1,0.1-0.2,0.1-0.3,0.2c-0.4,0.1-0.8,0.2-1.2,0.4c-0.1,0-0.1,0-0.2,0c-0.4,0.1-0.8,0.3-1.1,0.6c-0.3,0.3-0.5,0.7-0.6,1
		c-0.2,0.1-0.4,0.3-0.5,0.5c-0.2,0.2-0.3,0.4-0.4,0.7c-0.1,0.2-0.1,0.4-0.1,0.6c0,0-0.1,0-0.1,0.1c-0.1,0.1-0.3,0.2-0.4,0.3
		c-0.2,0.2-0.3,0.3-0.4,0.5c-0.1,0.3-0.3,0.5-0.4,0.7c-0.2,0.2-0.4,0.4-0.6,0.6c-0.2,0.2-0.3,0.4-0.4,0.6c-0.1,0.2-0.2,0.5-0.2,0.8
		c0,0.3,0,0.5,0.2,0.8c0.1,0.2,0.2,0.5,0.4,0.6c0.1,0.1,0.3,0.2,0.4,0.3c0.3,0.2,0.6,0.3,1,0.3l0.5-0.1c0.2-0.1,0.5-0.2,0.6-0.3
		c0.6,0.6,1.5,0.9,2.6,0.9c2.1,0,3.3-1.3,3.7-2.9c1.1-0.8,1.6-2.3,1.5-3.6c0.1,0,0.2-0.1,0.2-0.1c0.5-0.4,0.9-0.8,1-1.4
		C119.5,14.1,118.8,12.6,117.5,12.2z"/>
	<path class="st2" d="M47.4,24.8c-0.6,0-1,0.1-1.5,0.3c-0.1,0-0.2-0.1-0.4-0.1c-0.5-0.1-0.7-0.1-1.2,0c-0.2,0-0.4,0.1-0.6,0.2
		c-0.2,0.1-0.3,0.2-0.4,0.3c0,0,0,0-0.1,0.1C43,25.9,43,26,42.9,26.3c0,0.1-0.1,0.2-0.1,0.3c-0.1,0.3-0.1,0.5,0,0.8
		c0,0.3,0.1,0.5,0.2,0.7c0.1,0.2,0.3,0.4,0.5,0.6c0,0,0.1,0,0.1,0.1c0,2,1.3,4,3.9,4C52.6,32.8,52.6,24.8,47.4,24.8z"/>
	<path class="st2" d="M17.2,48.9c-0.7-0.2-1.4-0.2-2.2-0.1c-0.4,0.1-0.8,0.3-1.2,0.4c-0.5,0.2-1,0.4-1.5,0.6
		c-0.3,0.2-0.6,0.4-0.8,0.6c-0.1,0.1-0.2,0.2-0.4,0.4c-0.3,0.3-0.6,0.6-0.7,1c-0.1,0.5-0.1,1.1,0.2,1.5c0.3,0.4,0.7,0.8,1.2,0.9
		c0.5,0.1,1.1,0.1,1.5-0.2c0.3-0.2,0.5-0.4,0.7-0.6c0.1-0.1,0.1-0.1,0.2-0.2c0.1,0,0.1-0.1,0.2-0.1c0.2-0.1,0.5-0.2,0.7-0.2
		c0.2-0.1,0.5-0.2,0.7-0.2c0.1,0,0.1,0,0.2,0c0.5,0.2,1.1,0,1.5-0.2c0.4-0.2,0.8-0.7,0.9-1.2C18.9,50.3,18.3,49.3,17.2,48.9z"/>
	<path class="st2" d="M46.9,51.2c-0.1-0.1-0.1-0.1-0.2-0.2c0.4-1,0.1-2-0.8-2.6c-1.2-0.8-2.6-1-4-1.1c-1.4,0-2.8,0-4.2,0
		c-2.8,0.2-5.6,0.8-7.9,2.4c-0.9,0.6-1.3,1.7-0.7,2.7c0.5,0.9,1.9,1.4,2.7,0.7c1.5-1.1,3.3-1.6,5.2-1.8c0.3,0.1,0.5,0.2,0.8,0.2
		c0,0,0.1,0,0.1,0c0,0,0,0,0,0c0.2,0,0.3,0,0.5,0.1c0.4,0.1,0.7,0.1,1.1,0.2c0.6,0.1,1.3,0.3,1.9,0.5c0.1,0,0.2,0.1,0.3,0.1
		c0,0,0.1,0,0.1,0.1c0.3,0.1,0.5,0.3,0.8,0.4c0.3,0.1,0.5,0.3,0.8,0.5c0.1,0.1,0.3,0.2,0.4,0.3c0,0,0.1,0.1,0.1,0.1
		c0.4,0.3,0.8,0.6,1.4,0.6c0.5,0,1.1-0.2,1.4-0.6C47.6,53.3,47.8,51.9,46.9,51.2z"/>
	<path class="st2" d="M30.7,90.3c-2.6,0-2.6,4,0,4C33.3,94.3,33.3,90.3,30.7,90.3z"/>
	<path class="st2" d="M105.4,71.8c-0.4-1.1-1.4-1.6-2.5-1.4c-1.4,0.3-2.8,0.9-4,1.5c-1.2,0.5-2.3,1.2-3.3,1.9
		c-0.4,0.3-0.8,0.6-0.9,1.2c-0.1,0.5-0.1,1.1,0.2,1.5c0.3,0.4,0.7,0.8,1.2,0.9c0.5,0.1,1.1,0.1,1.5-0.2c1-0.7,2-1.4,3.1-1.9
		c0.1-0.1,0.7-0.3,0.1-0.1c0.1,0,0.2-0.1,0.4-0.1c0.3-0.1,0.6-0.3,0.9-0.4c0.6-0.2,1.2-0.4,1.8-0.5c0.5-0.1,1-0.5,1.2-0.9
		C105.5,72.9,105.6,72.3,105.4,71.8z"/>
	<path class="st2" d="M101.4,83.4c-0.4-0.4-0.9-0.5-1.4-0.6c-0.9-0.1-1.8,0-2.7,0.2c-0.8,0-1.6,0-2.4,0c-0.2,0-0.5,0-0.7,0
		c-0.6,0-1.2,0.2-1.7,0.7c-0.3,0.3-0.6,0.8-0.6,1.2c0,0.1,0,0.3,0,0.4c-0.2,0.3-0.4,0.6-0.5,0.8c-0.1,0.5-0.1,1.1,0.2,1.5
		c0.1,0.1,0.2,0.3,0.3,0.4c0.2,0.3,0.4,0.5,0.7,0.7c0.5,0.3,1,0.3,1.5,0.2c0.7-0.1,1.3-0.5,1.9-0.9c0.4-0.3,0.8-0.5,1.3-0.8
		c0.2-0.1,0.4-0.1,0.6-0.2c0.3,0,0.5-0.1,0.8-0.2c0.5,0,0.9,0,1.4,0c0.5,0,1.1-0.3,1.4-0.6c0.3-0.3,0.6-0.9,0.6-1.4
		C101.9,84.3,101.8,83.8,101.4,83.4z"/>
</g>
<g id="Layer_1">
	<path class="st3" d="M59.2,11.4c-0.6-0.1-1,0.1-1.2,0.7c-0.1,0.2-0.3,0.3-0.5,0.5c-0.3-0.3-0.6-0.6-1.1-0.5c-0.5,0.1-0.8,0.3-1,0.7
		c-0.2,0.4-0.3,0.8-0.4,1.1c-0.4,0.1-0.8,0.1-1.2,0.3c-0.3,0.1-0.6,0.4-0.9,0.7c-0.1,0.1-0.3,0.2-0.3,0.4c0,0.6-0.5,0.9-0.9,1.2
		c-0.4,0.3-0.7,0.8-0.6,1.3c0,0.5-0.2,0.6-0.6,0.7c-1.5,0.5-2.8,1.2-4.1,2c-0.5,0.3-0.9,0.7-1.2,1.2c-0.9,1.1-2.1,1.1-3.3,1.2
		c-0.2,0-0.5-0.2-0.7-0.3c-0.9-0.4-1.7-0.7-2.6-1.1c-0.8-0.3-1.6-0.3-2.4-0.1c-1.4,0.3-2.2,1.5-2,2.9c0.2,1.3,0.9,2.3,1.7,3.3
		c0.4,0.5,0.8,0.9,1.2,1.4c0.7,0.8,1.5,1.5,2.1,2.3c0.9,1.1,1.3,2.3,1.1,3.7c-0.1,1-0.7,1.6-1.7,2c-1.2,0.4-2.4,0.4-3.6,0.3
		c-1.2-0.2-2.4-0.4-3.6-0.6c-2.3-0.3-4.3,0.3-6.1,1.6c-0.9,0.6-1.2,2-0.8,3c0.1,0.2,0.2,0.3,0.3,0.5c0.6,0.6,1.3,1.2,1.9,1.8
		c0.9,0.9,0.8,1.9-0.3,2.6c-1.3,0.9-2.7,1.4-4.3,1.4c-0.5,0-1,0.1-1.4,0.1c-0.5,0-1.1-0.1-1.6-0.3c-2.4-0.7-4.9-0.9-7.3,0
		c-1.3,0.5-2.4,1.3-3.4,2.3c-0.5,0.5-0.7,1.2-0.8,2c0,0.4-0.1,0.8-0.2,1.2c-0.2,1.4-0.2,2.8,0.7,4c0.3,0.4,0.4,0.8,0.6,1.2
		c0.5,0.7,1.1,1.3,1.9,1.6c0.1,0,0.3,0.1,0.3,0.2c0.9,1,2.1,0.9,3.3,1c0.3,0,0.6,0,1,0c1.6,0,2.4,1,3,2.2c0.3,0.5,0.3,1,0,1.5
		c-0.2,0.4-0.5,0.9-0.9,1.3c-0.5,0.6-1,1.1-1.5,1.7c-0.8,0.9-0.9,1.9-0.7,3c0,0.2,0.1,0.3,0.1,0.5c-0.2,1.2,0.7,2,1.3,2.9
		c0.2,0.3,0.4,0.6,0.7,0.9c0.3,0.2,0.5,0.4,0.9,0.5c1.2,0.3,2.3,0.6,3.5,0.7c0.6,0.1,1.3,0,2-0.1c0.6-0.1,1.2-0.1,1.8-0.2
		c1.1-0.2,2.2-0.5,3.4-0.8c1.6-0.4,3.2-0.7,4.9-0.2c0.5,0.2,0.9,0.4,1.3,0.8c0.4,0.5,0.8,1.1,1.3,1.6c0.7,0.7,1,1.5,0.7,2.5
		c-0.3,1.2-0.7,2.4-1.7,3.3c-0.7,0.6-1.3,1.3-1.9,2.1c-0.7,0.8-1.5,1.5-2.3,2.2c-1,0.8-1.9,1.7-2.8,2.6c-0.2,0.2-0.3,0.4-0.4,0.7
		c-0.4,1.2-0.8,2.3-1.3,3.5c-0.3,0.8-0.4,1.7-0.2,2.6c0.2,1.2,0.9,2.3,2.1,2.8c1.5,0.6,3.2,0.7,4.9,0.9c0.2,0,0.5-0.1,0.7-0.2
		c0.9-0.3,1.8-0.5,2.5-1.2c0.4-0.4,0.9-0.8,1.3-1.2c0.4-0.4,0.7-0.8,1.1-1.2c0.4-0.4,0.7-0.9,0.9-1.4c0.4-1.1,1.1-2,2-2.7
		c0.6-0.5,1.2-1.1,1.7-1.7c0.7-0.8,1.6-1.1,2.6-1.1c0.1,0,0.2,0,0.2,0c1.6,0.1,1.6,0.1,2.1,1.6c0.1,0.4,0.4,0.8,0.6,1.1
		c0.3,0.4,0.8,0.6,1.3,0.6c0.2,0,0.5-0.1,0.7-0.1c0.2,0.3,0.2,0.7,0.5,1c0.2,0.3,0.5,0.5,0.9,0.7s0.7,0.3,1,0.4
		c0.5,0.1,0.9,0.3,1.2,0.8c0.3,0.6,1.3,0.8,1.9,0.6c0.4-0.2,0.8-0.1,1.1,0.2c0.1,0.1,0.2,0.2,0.2,0.2c0.7,0.8,1.5,1,2.5,0.6
		c0.6,0.8,1.5,1,2.5,1.1c0.3,0,0.7,0,0.8-0.2c0.4-0.4,0.8-0.3,1.2-0.1c0.5,0.2,1,0.3,1.6,0.3c0.3,0,0.6,0,0.9-0.2
		c0.4-0.2,0.6-0.2,1,0.1c1,0.7,1.5,0.6,2.5-0.4c0.7,0.3,1.3,0.3,2.1,0c0.2-0.1,0.4,0,0.6,0.1c1.4,0.8,2.7,1.7,3.7,2.8
		c0.5,0.6,0.8,1.3,1.2,1.9c0.8,1.3,1.8,2.5,2.9,3.5c1,0.9,2,1,3.2,0.5c0.2-0.1,0.3-0.2,0.4-0.3c1.5-1.3,2.4-2.9,2.9-4.8
		c0.2-0.7,0.4-1.4,0.7-2.1c0.5-1.2,1.4-1.8,2.7-1.9c1.2-0.2,2.3-0.2,3.4,0.1c0.2,0.1,0.4,0,0.6,0c0.4,0,0.8,0.1,1.2,0.2
		c0.5,0.1,0.9,0.3,1.5,0.3c0.5,0,1.1,0.3,1.6,0.6c0.9,0.5,1.8,0.8,2.9,0.8c1.6-0.1,3.3-0.1,4.8-0.9c0.3-0.2,0.6-0.4,0.9-0.6
		c0.3-0.2,0.4-0.5,0.7-0.6c0.7-0.4,1.1-1.1,1.5-1.8c1.1-2.2,0.9-4.3-0.1-6.5c-0.5-1-1.1-2-1.5-3c-0.5-1.1-1-2.3-1.4-3.5
		c-0.2-0.5-0.1-1.1-0.1-1.6c0-0.1,0-0.3,0.1-0.4c0.8-0.8,1.3-1.8,2.5-2.2c0.1,0,0.3-0.1,0.4-0.1c1.2-0.1,2-0.7,2.8-1.5
		c0.2-0.2,0.2-0.5,0.3-0.7c0.1-0.2,0.1-0.5,0.2-0.7c0.7-1.2,0.5-2.4,0.2-3.6c-0.1-0.4-0.2-0.7-0.3-1.1c-0.2-1.1-0.8-1.9-1.5-2.7
		c-0.8-1-1.6-2.1-1.9-3.4c-0.2-0.7-0.2-1.3,0.2-1.9c0-0.1,0.1-0.1,0.1-0.2c0.2-1.1,1-1.7,1.9-2.3c0.6-0.4,1.2-0.7,1.7-1
		c1-0.6,2.1-1.1,3-1.8c0.8-0.5,1.4-1.3,2.2-1.8c1.3-1,1.7-2.4,1.7-3.9c0-1.2-0.3-2.4-0.5-3.6c-0.3-1.3-1.3-2.1-2.3-2.8
		c-0.6-0.4-1.3-0.8-2-1.2c-0.6-0.4-1.2-0.9-1.8-1.2s-1.3-0.7-2-1c-0.5-0.2-0.9-0.5-1.3-1c-0.5-0.8-0.9-1.7-1-2.6
		c-0.1-0.9,0.2-1.7,0.6-2.5c0.5-1.1,1.2-2,2-2.9c0.6-0.8,1.1-1.6,1.7-2.3c0.5-0.7,1.1-1.3,1.7-1.9c0.9-0.9,1.8-1.9,2.8-2.8
		c1-1,1.9-2,2.9-3c0.9-0.9,1.4-1.9,1.5-3.2c0-0.2,0-0.3,0.1-0.5c0.3-0.8,0.1-1.6,0-2.4c-0.1-0.7-0.2-1.5-0.3-2.2
		c0-0.1-0.1-0.3-0.2-0.4c-0.5-0.8-1-1.7-1.5-2.5c-0.1-0.1-0.2-0.3-0.4-0.4c-0.8-0.5-1.7-0.9-2.5-1.4c-0.1-0.1-0.3-0.1-0.5-0.1
		c-1.1,0-2.1-0.2-3.2,0.2c-1.8,0.6-3.6,1.4-5.1,2.6c-0.7,0.5-1.2,1.2-1.9,1.8c-0.7,0.7-1.4,1.4-2.1,2.1c-0.5,0.5-1,1.1-1.5,1.7
		c-1.3,1.3-2.5,2.7-3.9,3.9c-0.8,0.8-1.9,1.4-2.9,1.8c-1,0.4-2.2,0.5-3.2-0.1c-0.3-0.1-0.5-0.3-0.8-0.4c-1.2-0.2-1.5-1.1-1.7-2.1
		c-0.1-0.5-0.1-1,0-1.5c0.2-1.6-0.2-3-0.6-4.5c-0.2-0.8-0.8-1.3-1.5-1.7c-1.1-0.6-2.2-1-3.5-0.7c-0.3,0.1-0.6,0.1-1,0.1
		c-0.3,0.1-0.7,0.1-0.9,0.5c-0.1,0.1-0.2,0.2-0.3,0.3c-0.9,0.4-1.5,1.1-2.2,1.7c-0.2,0.2-0.4,0.3-0.6,0.5c-1.3,1-2.7,1-4.2,0.8
		c-0.2,0-0.4-0.2-0.6-0.4c-0.3-0.3-0.6-0.6-0.9-1c0-0.6-0.2-1.1-1.1-1.1c0-0.1-0.1-0.2-0.1-0.3c-0.1-1.1-0.8-1.6-1.8-1.7
		c-0.6-0.1-0.9-0.2-0.9-0.8c0-0.3-0.3-0.4-0.6-0.5c-0.5,0-1.1,0-1.6,0c-0.3,0-0.6,0.1-0.9,0.1c-0.5-1-0.8-1.2-1.8-0.8
		c-0.2,0.1-0.4,0.2-0.7,0.3c-0.1-0.2-0.2-0.3-0.3-0.5c-0.3-1.2-1-1.6-2.2-1.4c-1,0.1-2,0.6-3,0.9c-0.4,0.1-0.7,0.4-0.8,0.9
		C59.4,10.8,59.3,11.1,59.2,11.4z M99,72.9c-0.3,0-0.6-0.1-0.9-0.1c-0.8,0.1-1.6,0.1-2.2,0.5c-1,0.8-2,1.7-2.6,2.8
		c-0.3,0.7-0.6,1.4-1,2c-0.6,0.9-0.6,1.8-0.6,2.8c0,0.4,0,0.7-0.1,1.1c-0.2,0.6-0.5,1.2-1.1,1.6c-0.4,0.3-0.8,0.7-1.1,1.1
		c-1.4,1.6-2.8,3.3-4.3,4.9c-0.7,0.8-1.5,1.7-2.4,2.3c-1.8,1.1-3.7,2.2-6,2.3c0,0.4-0.2,0.7-0.6,0.9c-1.7,0.6-3.4,1.2-5.2,1.2
		c-1,0-2-0.1-3-0.1c-2.5,0-5-0.4-7.4-1.2c-0.3-0.1-0.5-0.3-0.7-0.4c-0.5-0.3-1.1-0.7-1.6-1c-1.3-0.7-2.6-1.4-3.9-2.1
		c-0.2-0.1-0.3-0.3-0.4-0.4c-0.7-1.1-1.4-2.2-2.2-3.3c-1.2-1.5-1.9-3.2-2.7-4.8c-0.1-0.3-0.3-0.6-0.3-0.9c-0.2-1.2-0.5-2.5-0.4-3.7
		c0-0.5-0.3-1.1-0.1-1.7c0-0.1,0-0.2-0.1-0.2c-0.4-0.8-0.8-1.7-1.5-2.3c-0.4-0.4-0.8-0.5-1.4-0.5c-0.4,0-0.8,0.1-1.2,0.1
		c-0.4,0-0.8,0-1.1,0.3c-0.5,0.3-1,0.4-1.6,0.3c-0.4-0.1-0.7-0.1-1.1-0.1c-0.4,0-0.8,0.4-0.9,0.8c-0.1,0.5,0.2,0.7,0.5,0.9
		c0.5,0.3,0.9,0.4,1.5,0.3c0.3,0,0.6,0,1-0.1c0.3,0.7,0.4,1.6,1.3,1.7c-0.3,0.6-0.3,0.6-0.2,1.4c0.1,0.5-0.1,0.9-0.6,1.1
		c-0.2,0.1-0.5,0.1-0.7,0.2c-0.3,0.1-0.6,0.1-0.9,0.2c-0.9,0.3-1.3,1.2-1.1,2.1c0.1,0.3,0.3,0.4,0.6,0.4c0.5-0.1,1-0.2,1.5-0.4
		c0.7-0.3,1.3-0.2,2-0.1c1,0.2,1.1,0.3,0.6,1.2c-0.3,0.5-0.2,0.8,0.3,1.2c0.2,0.2,0.5,0.2,0.8,0.3c0.2,0,0.3,0,0.5,0.1
		c0.2,0.1,0.4,0.2,0.4,0.3c0,0.1-0.1,0.3-0.2,0.5c-0.2,0.1-0.4,0.2-0.5,0.3c-1.4,0.8-2.9,1.3-4.2,2.3c-1.4,1-2.6,2.2-3.3,3.8
		c-0.6,1.3-1.2,2.6-1.8,3.8c-0.2,0.4-0.5,0.7-0.9,0.8c-0.6,0.2-1.2,0.4-1.8,0.5c-0.6,0.2-1.1,0.2-1.7,0c-0.7-0.3-1.5-0.4-2.2-0.7
		c-0.5-0.2-1-0.4-1.4-0.8c-0.7-0.6-1.2-1.3-0.9-2.4c0.2-0.7,0.4-1.4,0.7-2c0.2-0.5,0.3-1.1,0.7-1.4c0.9-1,1.8-1.9,2.8-2.7
		c0.9-0.7,1.9-1,2.7-1.8c0.2-0.2,0.5-0.3,0.7-0.4c0.9-0.4,1.5-1.1,1.8-1.9c0.4-1,0.7-2.1,0.9-3.2c0.3-1.3,0.2-2.5-0.3-3.7
		c-0.3-0.8-0.9-1.6-1.5-2.2c-0.7-0.7-1.6-1.2-2.2-2c-1.8-1-3.7-1.7-5.8-1.2c-0.5,0.1-1.1,0.1-1.5,0.4c-1,0.6-2,0.9-3.1,1.2
		c-0.5,0.1-1,0.2-1.5,0.2c-1.1,0-2.1-0.3-3.1-0.8c-0.9-0.4-1.5-1.1-2-1.9c-0.5-0.7-0.4-1.7,0.2-2.3c0.6-0.7,1.3-1.4,2-2.1
		c0.9-0.9,1.4-2,1-3.2c-0.3-1.2-0.8-2.3-1.6-3.2c-0.4-0.4-0.7-0.9-1.2-1.2c-1.1-0.7-2.3-1.2-3.6-1.3C13,57.2,12.5,57.1,12,57
		c-0.8-0.1-1.3-0.6-1.7-1.3C10,55.2,9.7,54.6,9.5,54c-0.7-1.5-0.3-2.8,0.6-4.1c0.6-0.8,1.3-1.3,2.2-1.5c0.9-0.2,1.7-0.5,2.6-0.6
		c1.4-0.2,2.8,0.1,4.1,0.6c0.6,0.2,1.3,0.2,1.9,0.2c0.6,0,1.1-0.1,1.7-0.1c1.4,0,2.6-0.4,3.9-1c0.7-0.4,1.4-0.8,2.1-1.1
		c0.9-0.4,1.5-1.1,1.5-2.1c-0.1-1.1-0.4-2.2-1.6-2.6c-0.4-0.2-0.8-0.4-1.1-0.6c-0.6-0.5-0.8-1.1-0.5-1.8c0.2-0.5,0.7-0.7,1.1-0.8
		c0.9-0.2,1.7-0.4,2.6-0.2c0.3,0,0.5,0,0.8,0c1.2,0,2.3,0,3.5,0c1.3,0,2.7,0.1,4-0.2c0.8-0.2,1.6-0.5,2-1.3c0.4-0.7,0.8-1.3,1.2-2
		c0.9-1.4,0.9-2.8,0.2-4.2c-0.7-1.4-1.8-2.4-3.3-3.1c-1.5-0.6-2.6-1.6-3.4-3c-0.3-0.5-0.3-0.9,0-1.3c0.1-0.1,0.2-0.2,0.2-0.3
		c0.5-0.8,1.1-1,2-0.7c0.7,0.3,1.3,0.7,2,0.9c1.3,0.4,2.5,0.8,3.8,1.1c0.2,0.1,0.5,0,0.8-0.1c1.4-0.5,2.7-1.1,3.5-2.4
		c0.6-0.9,1.5-1.4,2.5-1.2c0.3,0.6,0.5,1.2,0.8,1.9c-0.7,0-0.8,0.6-1.2,1c-0.7,0.7-0.7,1.4-0.4,2.3c0.2,0.5,0,0.8-0.5,0.8
		c-0.4,0-0.7,0.2-0.9,0.5c-0.2,0.3-0.3,0.5-0.5,0.8c-0.5,0.6-0.4,1.3-0.2,2c0.2,0.7,0.2,0.7-0.3,1.1c-0.9,0.7-1,1.1-0.3,2
		c0.3,0.4,0.4,0.8,0.4,1.3c0.1,1.3,0.7,1.8,1.8,1.9c-0.8,1.2-0.4,2.1,0.4,2.6c0,0.8-0.2,1-0.9,1.1c-0.6,0.1-1.1,0-1.6-0.2
		c-0.4-0.2-0.8-0.3-1.2-0.4c-0.5-0.1-1.2,0.4-1.3,0.9c-0.1,0.6,0.6,1.4,1.2,1.5c0.5,0.1,1.1,0.2,1.7,0.3c0.6,0.2,1.1,0.6,1.3,1.3
		c-0.3,0-0.5,0.1-0.8,0.1c-0.2,0-0.4-0.1-0.6-0.1c-0.6-0.2-0.9-0.1-1.1,0.2c-0.2,0.5,0,0.8,0.3,1.1c0.1,0.1,0.2,0.3,0.3,0.4
		c-0.7,0.4-1.3,0.8-1.9,1.2c-0.7,0.4-1.4,0.4-2.2,0.1c-0.8-0.4-1.7-0.8-2.6-1.1c-0.5-0.2-1-0.3-1.5-0.4c-1-0.2-1.8,0.4-1.9,1.3
		c-0.2,0.7,0.5,1.7,1.3,2c0.7,0.2,1.3,0.4,2,0.3c0.4,0,0.8,0.1,1.2,0.2c1.2,0.3,2.1,1,3.2,1.5c0.4,0.2,0.8,0.6,0.8,1.2
		c-0.2,0-0.4-0.1-0.6-0.1c-0.3,0-0.7-0.2-1-0.1c-0.5,0-1,0.4-1.1,0.9c-0.1,0.7,0.4,1.3,1.1,1.3c1.4,0,1.8,0.3,2.2,1.3
		c-0.3,0.3-0.7,0.7-1.1,1c-0.8,0.7-0.8,0.6-0.5,1.6c0,0,0,0.1,0,0.2c-0.8,0.3-1.8,0.2-2.2,1.1c-0.8-0.1-1.6-0.2-2.4-0.3
		c-0.2,0-0.3-0.1-0.5-0.2c-1.5-0.7-3.1-0.7-4.7-0.4c-0.6,0.1-1.2,0.5-1.4,1.3c0.3,0,0.6,0,0.8-0.1c1.3-0.3,2.6-0.4,4-0.2
		c1,0.2,1.8,0.6,2.9,0.7c1.1,0.1,2.2,0.5,3.4,0.6c1.2,0.1,2-0.5,2.9-0.9c0.1,0,0.1-0.2,0.2-0.3c0.1-0.2,0.2-0.3,0.3-0.5
		c0.3-0.5,0.6-0.9,0.8-1.5c0.2-0.6,0.3-1.2,0.8-1.6c0.1-0.1,0.1-0.3,0.2-0.5c0.1-0.2,0.1-0.5,0.2-0.7c0.8-1.7,1.3-3.4,1.5-5.3
		c0-0.4,0.2-0.8,0.3-1.2c0.2-0.7,0.3-1.4,0.5-2.1c0.1-0.5,0.1-1.1,0.2-1.7c0.1-1,0.3-2.1,0.3-3.1c0-0.8,0-1.7-0.1-2.6
		c0-0.9,0-1.8-0.2-2.6c-0.4-2.3-0.3-4.6-0.1-7c0.2-2.1,0.6-4.1,0.9-6.2c0.1-0.5,0.3-1,0.6-1.4c0.2-0.2,0.3-0.5,0.3-0.7
		c0.2-1.5,0.5-3,1.7-4.1c0.7-0.7,1.4-1.4,2.3-1.9c0.4-0.2,0.8-0.4,1.3-0.6c0.1-0.1,0.3-0.1,0.5-0.1c0.4-0.1,0.8-0.1,1.3-0.2
		c0.3-0.1,0.6,0,0.8,0.3c0.1,0.1,0.2,0.3,0.3,0.4c0.4-0.1,0.8-0.2,1.1-0.5c0.8-0.7,1.7-0.9,2.7-0.9c1.1,0.1,2.1,0.4,3.2,0.5
		c1.3,0.2,2.2,0.8,2.8,1.9c0.1,0.3,0.4,0.5,0.6,0.7c0.6,0.7,1.2,1.4,1.5,2.3c0.5,1.2,1,2.5,1.5,3.7c0.1,0.1,0.2,0.2,0.3,0.3
		c0.3,0.1,0.4,0.4,0.5,0.7c0.5,1.7,1.1,3.4,1.6,5.1c0.1,0.5,0.2,0.9,0.4,1.4c0.6,1.7,1.4,3.3,2.5,4.7c0.6,0.8,1.3,1.3,2.4,1
		c0.4-0.1,0.8-0.1,1.1-0.2c0.4-0.1,0.8-0.2,1.1-0.5c1.2-0.9,1.6-2.1,1.1-3.6c-0.2-0.5-0.8-0.9-1.3-0.7c-0.3,0.1-0.6,0.3-0.8,0.5
		c-0.3,0.2-0.6,0.3-0.9,0.3c-0.2-0.4,0-0.6,0.2-0.8c0.2-0.3,0.5-0.6,0.7-0.9c0.2-0.3,0-0.8-0.4-1c-0.4-0.2-0.5,0.1-0.7,0.3
		c-0.5,0.6-1,1.1-1.7,1.5c-0.6,0.3-1.7-0.3-1.6-0.9c0.1-0.5-0.1-1-0.2-1.5c-0.1-0.7-0.4-1.3-1.2-1.3c-0.3-0.7-0.3-1.3-0.1-1.9
		c0.3-0.6,0.1-1.1-0.3-1.6c-0.2-0.2-0.5-0.4-0.7-0.6c-0.5-0.4-0.6-0.5-0.3-1.1c0.2-0.5,0.2-0.9-0.1-1.4c-0.1-0.1-0.1-0.2-0.1-0.4
		c0.9-0.3,1.7-0.6,2.5-0.9c1.2-0.4,2.3-1,3.2-1.9c0.7-0.8,1.6-1.1,2.6-1.3c0.2,0,0.4,0,0.6,0c1.7,0.4,2.7,1.6,2.9,3.2
		c0.1,1.1,0.2,2.3,0.3,3.4c0,0.4,0.1,0.8,0.4,1.1c0.3,0.3,0.5,0.7,0.8,1c0.7,1,1.6,1.6,2.7,2c0.4,0.1,0.8,0.3,1.2,0.5
		c0.1,0,0.3,0.1,0.4,0c0.4-0.2,0.7-0.1,1.1-0.1c0.7,0.1,1.3-0.1,1.9-0.5c0.3-0.3,0.8-0.5,1.2-0.6c1.9-0.7,3.7-1.5,5.1-3
		c0.5-0.6,1.2-1.1,1.7-1.7c0.7-0.8,1.3-1.6,1.9-2.4c0.6-0.8,1.1-1.6,1.6-2.4c0.8-1.5,2.1-2.3,3.6-2.8c1.6-0.5,3.2-1,4.9-0.9
		c0.8,0.1,1.7,0.1,2.3,0.8c1.3,1.3,2.3,2.8,2.7,4.6c0,0.1,0.1,0.3,0,0.5c-0.4,1.7-1,3.4-2.3,4.6c-0.9,0.9-1.9,1.6-3,2.1
		c-1.7,0.7-3.1,1.8-4.4,3c-1.1,1.1-2.4,2-3.1,3.5c-0.6,1.2-1.3,2.5-1.6,3.8c-0.3,1.3,0,2.8,0.1,4.2c0,0.3,0.2,0.5,0.3,0.8
		c0.2,0.5,0.4,1,0.7,1.5c0.6,1.4,1.2,2.7,2.2,3.8c0.1,0.1,0.3,0.3,0.4,0.4c0.5,0.3,1.1,0.6,1.6,0.8c0.8,0.3,1.5,0.6,2.3,0.6
		c0.8,0,1.3,0.3,1.8,0.8c0.3,0.3,0.6,0.5,0.8,0.8c0.4,0.6,0.9,1.1,1.1,1.8c0.3,1.3,0,2.7-0.2,4c0,0.1-0.1,0.2-0.1,0.2
		c-0.6,1.3-1.7,1.7-2.9,1.9c-1,0.2-2,0.1-2.9,0.2c-2.2,0.3-3.8,1.6-4.7,3.7c-0.5,1.2-0.8,2.6-0.8,3.9c0,1.8,0.5,3.3,2.1,4.3
		c0.5,0.3,1,0.8,1.4,1.3c1,1.1,1.3,2.5,1.3,3.9c0.1,1.1-0.4,2.1-1.4,2.7c-0.6,0.3-1.2,0.6-1.8,0.8c-0.6,0.2-1.1,0.4-1.5,0.8
		c-0.6,0.6-1.2,1.1-1.7,1.7c-0.3,0.3-0.5,0.7-0.7,1.1c-0.2,0.5-0.3,1-0.5,1.4c-0.4,1.1-0.1,2,0.5,2.9c1.2,1.7,2.4,3.4,3.5,5.2
		c0.7,1.2,0.8,2.5,0.6,3.8c-0.2,1.1-0.8,2-1.5,2.8c-0.5,0.5-1.1,1-1.9,1.1c-0.6,0-1.1,0.1-1.7,0.1c-0.7,0-1.4,0-2.1-0.1
		c-1.3-0.3-2.3-1.2-3.3-2c-1.3-1-2.7-1.6-4.4-1.5c-0.6,0.1-1.2,0.2-1.8-0.1c-0.1-0.1-0.3,0-0.5,0c-0.7,0.2-1.4,0.5-2,0.7
		c-0.4,0.2-0.7,0.3-1,0.6c-0.7,0.7-1.4,1.5-1.8,2.4c-0.6,1.2-1.1,2.3-1.8,3.4c-0.6,1.1-1.4,2-2.7,2.3c-0.9,0.2-1.9-0.3-2.4-1
		c-0.3-0.4-0.5-0.9-0.8-1.4c-0.8-1.2-1.2-2.6-2.5-3.5c-0.1,0-0.1-0.1-0.1-0.2c0.3-0.5,0.8-0.8,1.4-0.7c0.8,0.2,1.6-0.1,2.3-0.4
		c0.6-0.2,1.1-0.6,1.1-1.3c0-0.2,0.1-0.3,0.1-0.5c1.8,0.4,2.5-1,3.3-2.1c1.2,0,1.7-0.3,1.8-1.3c0-0.1,0-0.1,0-0.2
		c0-0.4,0.3-0.7,0.7-0.9c0.3-0.1,0.5-0.4,0.7-0.7c0.1-0.2,0.2-0.4,0.2-0.7c0.1-0.5,0.3-0.8,0.8-0.8c0.2,0,0.5-0.1,0.6-0.3
		c0.5-0.6,1.1-1,1.7-1.3c0.4-0.2,0.8-0.3,1.3-0.1c0.4,0.2,0.9,0.4,1.4,0.4c0.9,0.1,1.3-0.7,0.8-1.4c-0.2-0.3-0.5-0.5-0.7-0.8
		c-0.3-0.3-0.2-0.6,0.2-0.7c0.2-0.1,0.4,0,0.6,0c0.3,0,0.6,0,0.9-0.1c0.4-0.2,0.9-0.1,1.3-0.1c0.4,0.1,0.9,0.1,1.3,0
		c0.6-0.2,0.8-0.6,0.7-1.1c-0.1-0.5-0.6-0.8-1.2-0.8c-0.9,0.1-1.6-0.2-2.3-0.6c-0.6-0.4-1.1-0.8-1.7-1.3c-0.2-0.2-0.3-0.4-0.4-0.5
		c0.2-0.6,0.3-1.1,0.4-1.7c0.9-0.6,1-0.7,1.3-1.4c0.2-0.5,0.4-0.6,0.8-0.5c0.6,0.1,1.1-0.2,1.6-0.5c0.6-0.3,0.8-0.8,0.7-1.4
		C98.9,73.1,98.9,73.1,99,72.9z M114.3,26.7c0.1-0.3,0.1-0.4,0.1-0.4c0.1-0.1,0.2-0.1,0.3-0.1c0,0,0,0.1,0.1,0.1
		C114.6,26.4,114.5,26.5,114.3,26.7z M62.9,9.9c-0.1,0.1-0.2,0.1-0.2,0.2c0,0-0.1,0-0.1-0.1c0-0.1,0-0.1,0.1-0.2
		C62.7,9.8,62.8,9.8,62.9,9.9z"/>
	<path class="st3" d="M114,78.9c-0.1,1,0.4,1.7,0.9,2.4c0.1,0.1,0.3,0.2,0.5,0.3c0.8,0.3,1.5,0.6,2.4,0.5c0.1,0,0.2,0,0.3,0
		c1.1,0.4,2.1,0.1,3-0.5c0.6-0.4,1.2-0.7,1.7-1.2c0.5-0.5,0.8-1,0.8-1.7c0-0.5,0-1-0.1-1.5c-0.1-0.6-0.4-0.9-0.9-1.2
		c-0.9-0.5-1.8-0.8-2.8-1c-0.6-0.1-1.1-0.1-1.7,0.1c-1,0.3-2,0.6-2.9,1.3C114.5,77,113.8,77.8,114,78.9z M121.3,77.6
		c0,1.2-0.4,2.1-1.6,2.7c-0.3,0.2-0.6,0.2-0.9,0c-0.7-0.3-1.5-0.5-2.2-0.7c-0.9-0.2-1.3-0.8-1-1.7c0.1-0.3,0.3-0.6,0.6-0.8
		c0.8-0.9,1.9-1.3,3-1.4C120.6,75.7,121.2,76.2,121.3,77.6z"/>
	<path class="st3" d="M49.8,58.2c0.8-1,1.5-1.8,2.1-2.8c0.5-0.8,1.1-1.7,1.2-2.7c0-0.2,0.1-0.4,0.2-0.6c0.8-1.7,1.3-3.5,1.6-5.4
		c0.2-1.1,0.4-2.3,0.5-3.4c0.1-2,0.1-4,0-5.9c0-0.7-0.3-1.4-0.3-2.1c-0.1-1.4-0.1-2.8,0-4.1c0.1-2,0.3-4,0.4-6
		c0.1-1.6,0.4-3.2,0.8-4.8c0.1-0.5,0.4-0.9,0.7-1.2c0.9-1.1,1.9-2.1,3.4-2.4c0.3,0,0.6-0.1,0.8-0.3c1.8-0.8,3.8-0.9,5.7-0.8
		c0.5,0,1,0.4,1.5,0.6c0.4,0.2,0.8,0.6,1.2,0.8c1,0.7,1.5,1.7,1.9,2.9c0.1,0.2,0.1,0.4,0.2,0.6c0.3,0.9,0.5,1.8,0.5,2.8
		c0,0.9,0.1,1.8,0.3,2.7c0.2,0.8,0.5,1.5,0.8,2.2c0.5,1,1.1,1.9,1.7,2.8c0.8,1.1,1.7,2.1,2.6,3.2c0.9,1.2,2.2,1.8,3.6,2.2
		c1.2,0.3,2.3,0.6,3.5,0.5c0.5,0,1-0.2,1.3-0.7c0.3-0.3,0.3-0.6,0.1-1c-0.2-0.4-0.4-0.4-0.8-0.4c-0.3,0-0.6,0.1-0.9,0.1
		c-1.4,0.4-2.8,0.3-4-0.5c-0.6-0.4-1.2-0.8-1.7-1.1c-0.3-0.2-0.7-0.3-0.9-0.6c-1.3-1.5-2.6-3-3.3-5c-0.4-1.2-0.8-2.5-1-3.8
		c0-0.2-0.1-0.4-0.2-0.5c-0.6-0.9-0.6-1.9-0.8-2.9c-0.1-0.4-0.2-0.7-0.4-1c-0.3-0.8-0.7-1.5-1.1-2.2c-0.2-0.4-0.6-0.8-1-1
		c-0.4-0.2-0.8-0.5-1.1-0.8c-0.9-0.9-2.1-0.9-3.2-0.8c-1.3,0.1-2.6,0.3-3.9,0.6c-1,0.3-2.1,0.7-3.1,1.1c-0.5,0.2-0.9,0.5-1.4,0.8
		c-1.3,0.9-1.8,2.3-2,3.8c-0.4,2.3-0.8,4.5-1.1,6.8c-0.2,1.4-0.2,2.9,0.1,4.3c0.1,0.4,0.1,0.8,0.1,1.3c0.1,1.3,0.1,2.6,0.2,3.9
		c0.2,2.6,0.2,5.2-0.2,7.8c0,0.1-0.1,0.3-0.1,0.4c-0.8,2.6-1.7,5.3-2.5,7.9c-0.3,0.9-0.7,1.7-1.3,2.5c-0.4,0.5-0.8,1-1.1,1.5
		C49.4,57.7,49.4,57.7,49.8,58.2z"/>
	<path class="st3" d="M95.8,52.2c0.4-0.5,0.7-0.8,1-1.3c0.4-0.6,0.2-0.9-0.4-1.2c-0.2-0.1-0.3-0.2-0.6-0.3c0.5-0.2,0.9-0.5,1.3-0.6
		c0.8-0.2,1.5-0.3,2.3-0.4c0.4-0.1,0.7-0.2,1.1-0.3c0.5-0.2,0.8-0.5,0.8-1.1c0.1-0.9-0.2-1.2-1.1-1.3c-0.7-0.1-1.4,0.1-2,0.3
		c-1.1,0.4-2.3,0.4-3.6,0.2c0-0.5,0.1-1,0.1-1.6c1,0.6,1.5-0.1,1.9-0.7c0.4-0.5,0.7-0.8,1.4-0.8c0.7,0,1.4-0.2,2.1-0.5
		c0.4-0.1,0.7-0.5,0.9-0.8c0.2-0.3,0-0.8-0.3-0.8c-0.4-0.1-0.8-0.1-1.2,0.1c-1.1,0.4-2.2,0.6-3.3,1c-0.5,0.2-1.1,0.5-1.5,0.8
		c-0.4,0.3-0.8,0.6-1.2,0.9c-0.6,0.6-1.3,1.1-1.7,1.8c-0.4,0.7-0.7,1.6-0.7,2.5c0,0.4-0.1,0.7-0.1,1.1c0,0.4,0.1,0.9,0.2,1.3
		c0.1,0.4,0.1,0.8,0.1,1.2c0,0.6,0.1,1.2,0.4,1.7c0.6,0.7,1.3,1.3,2.2,1.4c0.9,0.1,1.7,0.2,2.5-0.3c0.3-0.2,0.6-0.3,0.6-0.7
		c-0.1-0.5-0.1-1-0.6-1.2C96.1,52.5,95.8,52.4,95.8,52.2z"/>
	<path class="st3" d="M100.1,66.1c-0.4,0-0.7,0-1,0c-0.2,0-0.4,0.1-0.6,0.2c-1.2,0.5-1.9,1.5-2.8,2.4c-1.4,1.5-2.7,3.2-3.8,4.9
		c-0.4,0.6-0.9,1.2-1.2,1.9c-0.4,0.9-1.1,1.6-1.7,2.3c-0.1,0.1-0.2,0.2-0.3,0.3c-0.3,0.8-0.6,1.7-0.9,2.6c-0.1,0.3-0.2,0.5-0.3,0.7
		c-0.5,0.8-0.9,1.6-1.4,2.3c-1,1.5-1.9,3-3,4.4c-0.9,1.2-2.1,2-3.5,2.3c-0.2,0.1-0.4,0.1-0.6,0.1c-1-0.4-1.9,0-2.8,0.4
		c-1,0.5-1.9,0.7-3,0.8c-0.2,0-0.5,0.1-0.7,0.1c-1.3,0.4-2.7,0.3-4.1,0.3c-1.5,0-3-0.2-4.5-0.6c-0.9-0.2-1.8-0.4-2.7-0.6
		c-1.2-0.2-2.2-0.8-3.1-1.4c-0.1-0.1-0.2-0.2-0.3-0.2c-1-0.9-2-1.7-3-2.6c-0.3-0.3-0.7-0.7-0.9-1.1c-0.5-0.9-0.9-1.8-1.3-2.7
		c-0.4-0.9-0.7-1.8-1.1-2.7c0-0.1-0.1-0.2-0.2-0.4c-0.2-1.3-0.8-2.5-1.2-3.7c-0.2-0.7-0.6-1.4-1-2c-0.2-0.3-0.4-0.5-0.8-0.5
		c0,0.2,0,0.3,0.1,0.4c0.2,0.3,0.5,0.6,0.4,1c0,0.1,0,0.2,0.1,0.3c0.5,0.4,0.5,1,0.7,1.5c0.2,0.6,0.4,1.1,0.6,1.7
		c0.3,1,0.6,1.9,0.9,2.9c0.5,1.2,0.9,2.4,1.4,3.7c0.2,0.4,0.5,0.8,0.8,1.2c0.7,0.7,1.3,1.5,2,2.2c0.6,0.6,1.3,1,2,1.6
		c0.5,0.4,1,0.7,1.6,0.9c0.7,0.3,1.5,0.6,2.3,0.9c0.9,0.4,1.9,0.5,2.8,0.7c0.6,0.1,1.1,0.4,1.7,0.3c0.9-0.2,1.7-0.2,2.6,0.1
		c0.1,0,0.3-0.1,0.5-0.1c0.5,0,0.9,0,1.4-0.1c0.6,0,1.2-0.1,1.7-0.1c0.6-0.1,1.2-0.2,1.8-0.3c1.1-0.2,2.1-0.3,3.2-0.6
		c0.9-0.3,1.9-0.7,2.9-0.6c0.1,0,0.2,0,0.2,0c1.7-0.9,3.2-2,4.3-3.5c1.5-2.1,2.9-4.2,4.4-6.2c0.6-0.9,1.1-1.9,1.6-2.9
		c0.3-0.7,0.7-1.4,1.1-2c0.6-0.8,1-1.7,1.4-2.6c0.3-0.6,0.6-1.1,1-1.5c0.6-0.6,1.1-1.3,1.7-1.9c0.6-0.6,1.3-1.2,2-1.8
		c0.5-0.4,0.9-0.9,1.3-1.4c0.3-0.3,0.6-0.5,0.9-0.7C100.1,66.5,100.2,66.4,100.1,66.1z M97.1,68.3c0.1-0.4,0.4-0.6,0.7-0.7
		C97.5,67.8,97.3,68.1,97.1,68.3z"/>
	<path class="st3" d="M63.4,66.5c0.3-0.2,0.3-0.5,0.2-0.8c-0.2-0.6-0.2-1.2-0.1-1.8c0.1-0.3,0-0.7,0-1c0-0.3-0.1-0.5-0.1-0.8
		c0.2,0,0.3,0,0.5,0c0.2-0.3,0.1-0.6-0.1-0.9c-0.4-0.5-0.6-1-0.4-1.7c0.3,0.3,0.5,0.5,0.7,0.7c0.3-0.3,0.2-0.5,0.2-0.8
		c-0.2-0.7-0.3-1.4-0.4-2.1c0-0.2,0.1-0.3,0.3-0.5c0.2,0.5,0.3,1,0.5,1.5c0.5-0.1,0.6-0.3,0.5-0.8c-0.2-1.1-0.1-2.3-0.1-3.4
		c0-0.1,0.1-0.2,0.3-0.3c0.1,0.8,0.1,1.5,0.2,2.3c0.5,0,0.6-0.2,0.6-0.6c-0.1-1.1,0-2.1,0.3-3.2c0-0.1,0.1-0.1,0.2-0.3
		c0.1,0.5,0.3,0.9,0.4,1.3c0.5,0,0.6-0.2,0.6-0.6c0-0.5,0-0.9,0-1.5c0.3,0.2,0.6,0.6,0.9,0.2c0-0.1,0-0.3-0.1-0.5
		c0-0.1-0.1-0.3,0-0.4c0.6-0.4,0.3-1.1,0.4-1.6c0-0.2,0-0.3,0.2-0.5c0.1,0.3,0.2,0.5,0.3,0.8c0.6-0.1,0.6-0.1,0.5-1.1
		c0.6-0.1,0.6-0.7,0.7-1.1c0-0.1-0.1-0.3-0.2-0.4c-0.2-0.1-0.4-0.2-0.6-0.2c-1.2,0.2-2.5,0.2-3.4,1.1c-1.1,1-1.9,2.3-2.3,3.8
		c-0.5,1.7-1,3.5-1.2,5.2c-0.2,1.5-0.5,3-0.1,4.5c0.3,1.4,0.3,2.9,0.4,4.4C62.9,65.9,63,66.2,63.4,66.5z"/>
	<path class="st3" d="M91.9,41.3c-0.5-0.2-0.8-0.1-1.1,0.2c-0.4,0.4-0.8,0.8-1.1,1.3c-0.9,1.5-1.6,3.2-2,5c-0.2,0.9-0.2,1.8-0.2,2.7
		c0,0.5,0,0.9,0,1.3c0.1,0.8,0.5,1.6,1.1,2.3c0.4,0.5,0.8,1.1,1.1,1.7c0.5,1.1,1.6,1.5,2.6,2c2,0.9,4.1,0.8,6.2,0.6
		c1.1-0.1,2.1-0.6,2.9-1.2c0.5-0.4,1.1-0.5,1.6-0.5c0.6,0,1.2,0,1.8,0.1c0.4,0.1,0.8-0.1,1.1-0.3c0.3-0.2,0.3-0.5,0.3-0.8
		c-0.1-0.3-0.3-0.3-0.6-0.3c-1.3-0.1-2.5,0.1-3.7,0.5c-0.8,0.3-1.5,0.7-2.2,1c-1,0.4-2,0.7-3.1,0.7c-0.1,0-0.2,0-0.2,0
		c-1.2-0.5-2.5-0.2-3.6-0.7c-1.6-0.6-2.8-1.6-3.2-3.4c-0.3-1.2-0.4-2.4-0.3-3.6c0-0.4,0-0.9,0-1.3c0.1-1.6,0.7-3.1,1.6-4.3
		c0.5-0.6,0.8-1.3,1-2C92,41.9,91.9,41.6,91.9,41.3z"/>
	<path class="st3" d="M85.9,67c-0.4,0-0.7,0-1.1,0c0,0.8,0,1.5,0,2.2c-0.1,1.7-0.4,3.5-1.4,4.9c-0.9,1.2-1.6,2.6-2.7,3.6
		c-0.6,0.6-1.1,1.2-1.8,1.7c-0.5,0.4-1.1,0.7-1.7,0.9c-0.3,0.1-0.6,0.2-0.5,0.7c0.1,0.4,0.4,0.6,0.9,0.4c1.2-0.2,2.1-0.8,3.1-1.4
		c0.1-0.1,0.2-0.2,0.3-0.3c0.4-0.3,0.8-0.7,1.2-1c0.9-0.6,1.6-1.4,2.1-2.4c0.7-1.2,1.3-2.5,1.6-3.8c0-0.2,0.1-0.3,0.1-0.5
		c0.1-0.7,0.1-1.5,0.2-2.2C86.2,68.9,86.2,67.9,85.9,67z"/>
	<path class="st3" d="M27.2,62.3c-0.4,0-0.8,0.1-1.1,0.1c-0.2,0-0.4,0.1-0.5,0.2c-0.5,0.3-0.6,0.5-0.4,0.9c0.2,0.4,0.7,0.7,1,0.5
		c1-0.5,2-0.4,3.1-0.3c0.9,0,1.9,0,2.8,0.5c1,0.5,2.2,0.8,3.3,1.1c0.9,0.2,1.8,0.4,2.6,0.6c0.5,0.1,1,0.1,1.5-0.2
		c0.4-0.2,0.9-0.3,1.3-0.4c0.3-0.1,0.6-0.3,0.8-0.5c0.2-0.2,0.2-0.6,0.1-0.8c-0.1-0.3-0.4-0.2-0.7-0.2c-0.8,0.1-1.5,0.2-2.3,0.3
		c-1.2,0.1-2.3-0.2-3.5-0.5c-0.5-0.1-1-0.2-1.6-0.3c-1.4-0.3-2.8-0.6-4.2-0.8C28.7,62.3,27.9,62.3,27.2,62.3z"/>
	<path class="st3" d="M83.6,39.9c1.5,0,2.4-0.6,3.4-1.2c0.6-0.4,1.2-0.8,1.9-1c0.4-0.2,0.9-0.2,1.4-0.3c0.2,0,0.5-0.1,0.6-0.3
		c0.2-0.2,0.1-0.5-0.1-0.8c-0.6-0.8-1.7-0.9-2.5-0.1c-1,1-2.2,1.8-3.6,2.3c-0.8,0.3-1.6,0.2-2.3-0.1c-0.3-0.1-0.7-0.3-1.1-0.4
		c-0.2,0-0.4,0-0.6,0c-0.5,0.2-0.5,0.5-0.2,0.8c0.2,0.2,0.3,0.3,0.5,0.4C82,39.7,82.9,39.9,83.6,39.9z"/>
</g>
<g id="Layer_5">
	<path class="st4" d="M76.7,52.2c-2.8-1.7-6.5-0.6-8.2,2.2c-1.2,2-1.8,4.2-2.3,6.5c-0.1,0.4-0.2,0.8-0.3,1.2c-0.1,0.3,0,0.2,0,0.2
		c0,0,0,0.1-0.2,0.4c-0.6,1.7-1.1,3-1.2,4.8c-0.1,3.2,2.8,6,6,6c3.3,0,5.8-2.6,6-5.8c0.2-0.5,0.4-1,0.7-1.5c0.3-0.7,0.5-1.4,0.6-2.1
		c0.2-0.7,0.3-1.5,0.5-2.2c0.1-0.3,0.2-0.6,0.3-0.9c0,0,0.1-0.2,0.3-0.5C80.6,57.6,79.5,53.8,76.7,52.2z"/>
</g>
<g id="Layer_4">
	<path class="st5" d="M63.7,70.2c-0.1,1,0.3,1.9,0.6,2.8c0.4,1,1,1.9,1.8,2.7c0.1,0.1,0.1,0.1,0.2,0.2c1.1,1.2,2.4,2,3.9,2.6
		c1,0.4,2,0.5,3.1,0.6c1,0,2,0.1,2.9-0.2c0.8-0.2,1.5-0.5,2-1.2c0.2-0.2,0.4-0.4,0.6-0.5c0.8-0.7,1.5-1.4,1.8-2.4
		c0.4-1,0.9-1.9,1.3-2.9c0.5-1.1,0.8-2.2,0.9-3.5c0.1-1.6,0.4-3.1,0.6-4.7c0-0.3,0-0.6,0-0.9c0-1.1,0-2.2-0.1-3.3
		c-0.1-1.1-0.3-2.3-0.6-3.4c-0.4-1.4-0.8-2.8-1.4-4.2c-0.3-0.7-0.8-1.3-1.3-1.9c-0.3-0.4-0.7-0.8-1-1.3c-0.5-0.7-1.2-1.2-1.9-1.6
		c-0.7-0.3-1.6-0.3-2.4-0.1c-0.3,0-0.6,0.2-0.9,0.2c-0.5,0.1-0.8,0.4-1.2,0.6c-1.4,1.1-2.2,2.7-3.4,3.9c-0.8,0.8-1.2,1.9-1.7,3
		c-0.8,1.6-1.5,3.2-2.1,4.8c-0.3,0.7-0.5,1.5-0.6,2.3c-0.3,1.5-0.6,3.1-0.9,4.6C64,67.7,63.9,68.9,63.7,70.2z M73.3,57.7
		C73.2,57.7,73.2,57.7,73.3,57.7c-0.1,0.5-0.1,1-0.1,1.5c-0.1,1.2-0.2,2.3-0.3,3.5c-0.1,1.3-0.3,2.5-0.5,3.7
		c-0.1,0.4-0.4,0.8-0.6,1.2c-0.3,0.7-1.1,0.9-1.6,1.4c-1.2,1-3.1,0.3-3.4-1.2c-0.3-1.3-0.1-2.5,0.2-3.7c0.3-1.3,0.8-2.6,1.1-3.9
		c0.6-2.4,1.5-4.8,2.5-7.1c0.1-0.4,0.4-0.7,0.7-1c0.5-0.5,1.1-0.3,1.3,0.3c0.1,0.2,0.2,0.5,0.3,0.7c0.3,0.5,0.4,1,0.4,1.6
		C73.3,55.8,73.3,56.7,73.3,57.7z"/>
</g>
</svg>
