<?xml version="1.0" encoding="utf-8"?>
<!-- Generator: Adobe Illustrator 22.1.0, SVG Export Plug-In . SVG Version: 6.00 Build 0)  -->
<svg version="1.1" id="Layer_3" xmlns="http://www.w3.org/2000/svg" xmlns:xlink="http://www.w3.org/1999/xlink" x="0px" y="0px"
	 viewBox="0 0 648 477" style="enable-background:new 0 0 648 477;" xml:space="preserve">
<style type="text/css">
	.st0{fill:none;stroke:#FFFFFF;stroke-miterlimit:10;}
	.st1{fill:#FFFFFF;}
</style>
<polygon class="st0" points="9,225 72,252 9,279 "/>
<polygon class="st0" points="9,279 72,306 9,333 "/>
<polygon class="st0" points="72,306 9,279 72,252 "/>
<polygon class="st0" points="72,252 9,225 72,198 "/>
<polygon class="st0" points="72,198 135,225 72,252 "/>
<polygon class="st0" points="72,252 135,279 72,306 "/>
<polygon class="st0" points="135,279 72,252 135,225 "/>
<polygon class="st0" points="135,387 9,333 135,279 "/>
<polygon class="st0" points="261.5,225 135.5,171 261.5,117 "/>
<polygon class="st0" points="135,171 261,225 135,279 "/>
<polygon class="st0" points="135,279 135,279 135,387 261,333 261,225 "/>
<polygon class="st0" points="261.5,9 387.5,63 261.5,117 "/>
<polygon class="st0" points="261.5,117 261.5,117 261.5,225 387.5,171 387.5,63 "/>
<polygon class="st0" points="135,225 72,198 135,171 "/>
<polygon class="st0" points="387.5,171 450.5,198 387.5,225 "/>
<polygon class="st0" points="387.5,225 450.5,252 387.5,279 "/>
<polygon class="st0" points="450.5,252 387.5,225 450.5,198 "/>
<polygon class="st0" points="450.5,198 387.5,171 450.5,144 "/>
<polygon class="st0" points="450.5,144 513.5,171 450.5,198 "/>
<polygon class="st0" points="450.5,198 513.5,225 450.5,252 "/>
<polygon class="st0" points="513.5,225 450.5,198 513.5,171 "/>
<polygon class="st0" points="513.5,117 639.5,171 513.5,225 "/>
<polygon class="st0" points="513.5,171 450.5,144 513.5,117 "/>
<line class="st0" x1="576.5" y1="306" x2="513.5" y2="333"/>
<line class="st0" x1="639.5" y1="279" x2="576.5" y2="306"/>
<line class="st0" x1="639.5" y1="225" x2="639.5" y2="279"/>
<line class="st0" x1="639.5" y1="171" x2="639.5" y2="225"/>
<polygon class="st0" points="135.5,63 198.5,90 135.5,117 "/>
<polygon class="st0" points="135.5,117 198.5,144 135.5,171 "/>
<polygon class="st0" points="198.5,144 135.5,117 198.5,90 "/>
<polygon class="st0" points="198.5,90 135.5,63 198.5,36 "/>
<polygon class="st0" points="198.5,36 261.5,63 198.5,90 "/>
<polygon class="st0" points="198.5,90 261.5,117 198.5,144 "/>
<polygon class="st0" points="261.5,117 198.5,90 261.5,63 "/>
<polygon class="st0" points="261.5,63 198.5,36 261.5,9 "/>
<g>
	<g>
		<path class="st1" d="M136.9,415.3l31-13.4l0.3,17.6l-1.4,0.6c-0.6-5.7-1.6-9.3-3-11c-1.3-1.7-3.1-2.1-5.4-1.1l-3,1.3l-1.7,48.9
			l6.5-2.8l-0.1,2l-19.5,8.4l0.1-2l6.5-2.8l1.7-48.9l-3,1.3c-2.3,1-4.2,2.9-5.6,5.9c-1.5,2.9-2.8,7.6-3.8,14l-1.4,0.6L136.9,415.3z"
			/>
		<path class="st1" d="M188.8,428.8l-11.6,5l-4.2,16.1l6.7-2.9l-0.1,2l-13.2,5.7l0.1-2l5-2.2l15.1-57.8l0.8-0.4l10.9,46.6l4.9-2.1
			l-0.1,2l-17.3,7.5l0.1-2l5.9-2.5L188.8,428.8z M177.9,431.5l10.6-4.6l-4.4-19l-0.1,0L177.9,431.5z"/>
		<path class="st1" d="M240.7,372.5l-1.8,52.1l-1.1,0.5l-22.2-42l-0.1,0l-1.7,49.1l6.2-2.7l-0.1,2l-12.9,5.6l0.1-2l5.4-2.3l1.7-48.9
			l-5.8,2.5l0.1-2l13.9-6l15.7,29.7l0.1,0l1.2-35.1l-6,2.6l0.1-2l12.9-5.6l-0.1,2L240.7,372.5z"/>
		<path class="st1" d="M250.8,366.2l31-13.4l0.3,17.6l-1.4,0.6c-0.6-5.7-1.6-9.3-3-11c-1.3-1.7-3.1-2.1-5.4-1.1l-3,1.3l-1.7,48.9
			l6.5-2.8l-0.1,2l-19.5,8.4l0.1-2l6.5-2.8l1.7-48.9l-3,1.3c-2.3,1-4.2,2.9-5.6,5.9c-1.5,2.9-2.8,7.6-3.8,14l-1.4,0.6L250.8,366.2z"
			/>
		<path class="st1" d="M299.1,347.3l-1.7,48.9l8.2-3.5c1.6-0.7,2.8-1.4,3.7-2.1c0.9-0.7,1.8-1.9,2.8-3.6c0.9-1.7,1.7-3.5,2.2-5.6
			c0.5-2,1.1-4.8,1.8-8.2l1.3-0.6l-1.6,17.7l-30.6,13.2l0.1-2l5.7-2.5l1.7-48.9l-5.7,2.5l0.1-2l18.2-7.9l-0.1,2L299.1,347.3z"/>
		<path class="st1" d="M342.2,362.6l-11.6,5l-4.2,16.1l6.7-2.9l-0.1,2l-13.2,5.7l0.1-2l5-2.2l15.1-57.8l0.8-0.4l10.9,46.6l4.9-2.1
			l-0.1,2l-17.3,7.5l0.1-2l5.9-2.5L342.2,362.6z M331.2,365.3l10.6-4.6l-4.4-19l-0.1,0L331.2,365.3z"/>
		<path class="st1" d="M366.1,366.5l1.7-48.9l-5.6,2.4l0.1-2L381,310c2.1-0.9,3.8-1.5,5.2-1.8c1.4-0.3,2.7-0.1,4,0.6
			s2.1,1.9,2.6,3.5c0.5,1.6,0.7,3.2,0.7,4.9c-0.2,6.3-3.7,11.8-10.4,16.6l0,0.2c7.4-1.5,11,1.4,10.8,8.7c-0.1,1.8-0.5,3.8-1.2,6.1
			c-0.7,2.3-1.9,4.5-3.4,6.5c-1.5,2.1-3,3.6-4.6,4.6c-1.5,1-3.5,2-5.8,3l-18.6,8l0.1-2L366.1,366.5z M379.8,312.5l-5.6,2.4
			l-0.8,22.2l5-2.2c3.4-1.5,5.6-3.4,6.6-5.7c1-2.3,1.6-5.6,1.7-9.7c0.1-3.2-0.1-5.5-0.7-6.7c-0.6-1.2-1.3-1.8-2.3-1.7
			C382.9,311.3,381.5,311.7,379.8,312.5z M378.3,337l-4.9,2.1l-0.8,24.6l5.1-2.2c1.9-0.8,3.4-1.7,4.6-2.6c1.1-0.9,2.1-2.4,3-4.6
			c0.9-2.2,1.4-5.2,1.5-9.1c0.1-4.2-0.4-7-1.5-8.4C384.1,335.4,381.8,335.5,378.3,337z"/>
		<path class="st1" d="M398.7,350.4c0-1.3,0.4-2.6,1.1-3.9c0.7-1.3,1.5-2.1,2.4-2.5c1-0.4,1.8-0.3,2.4,0.4c0.6,0.7,0.9,1.7,0.9,3.1
			c0,1.4-0.4,2.7-1.1,4c-0.7,1.3-1.5,2.1-2.5,2.5c-0.9,0.4-1.7,0.2-2.3-0.5C399,352.8,398.7,351.8,398.7,350.4z"/>
		<path class="st1" d="M433.4,323.2l-11.6,5l-4.2,16.1l6.7-2.9l-0.1,2l-13.2,5.7l0.1-2l5-2.2l15.1-57.8l0.8-0.4l10.9,46.6l4.9-2.1
			l-0.1,2l-17.3,7.5l0.1-2l5.9-2.5L433.4,323.2z M422.4,326l10.6-4.6l-4.4-19l-0.1,0L422.4,326z"/>
		<path class="st1" d="M472.7,306.2l-11.6,5l-4.2,16.1l6.7-2.9l-0.1,2l-13.2,5.7l0.1-2l5-2.2l15.1-57.8l0.8-0.4l10.9,46.6l4.9-2.1
			l-0.1,2l-17.3,7.5l0.1-2l5.9-2.5L472.7,306.2z M461.8,309l10.6-4.6l-4.4-19l-0.1,0L461.8,309z"/>
		<path class="st1" d="M518.6,252.5l-5.9,2.6l0.1-2l13-5.6l-0.1,2l-5.7,2.5l-1.1,32c-0.2,4.6-0.5,8.1-1.1,10.6
			c-0.6,2.4-1.5,4.6-2.8,6.7c-1.3,2-2.9,3.8-4.7,5.2c-1.8,1.4-3.6,2.6-5.5,3.4c-4,1.7-6.9,2.1-8.6,1.1s-2.8-2.8-3.2-5.2
			c-0.3-2.5-0.4-5.9-0.3-10.4l1.1-32l-5.3,2.3l0.1-2L506,256l-0.1,2l-5.7,2.5l-1.1,31.1c-0.1,4.3-0.1,7.6,0.1,9.9
			c0.2,2.3,0.9,4,2,5.2c1.1,1.1,3,1.1,5.6,0c2.1-0.9,4-2.3,5.7-4.3c1.7-2,2.9-4.1,3.7-6.5c0.7-2.4,1.2-6.4,1.4-12.2L518.6,252.5z"/>
		<path class="st1" d="M525,295.9c0-1.3,0.4-2.6,1.1-3.9c0.7-1.3,1.5-2.1,2.4-2.5c1-0.4,1.8-0.3,2.4,0.4c0.6,0.7,0.9,1.7,0.9,3.1
			c0,1.4-0.4,2.7-1.1,4c-0.7,1.3-1.5,2.1-2.5,2.5c-0.9,0.4-1.7,0.2-2.3-0.5C525.3,298.3,525,297.3,525,295.9z"/>
		<path class="st1" d="M544.1,289.7l1.7-48.9l-5.7,2.4l0.1-2l17.2-7.4c3.8-1.6,7-2.3,9.7-1.9c2.7,0.4,4.8,2.5,6.5,6.3
			c1.7,3.8,2.4,8.3,2.2,13.7c-0.2,5.7-1.4,11.1-3.5,16.4c-2.1,5.3-4.5,9.3-7.2,12c-2.7,2.7-5.8,4.8-9.6,6.4l-17.1,7.4l0.1-2
			L544.1,289.7z M552.2,238l-1.7,48.9l4.7-2c2.5-1.1,4.5-2.3,6.1-3.6c1.6-1.3,2.9-3.3,4-6c1.1-2.6,1.9-5.7,2.4-9.3
			c0.5-3.5,0.8-8.1,1-13.5c0.2-6.6-0.2-11.2-1.2-14c-1-2.7-2.4-4.1-4-4.2c-1.6-0.1-3.8,0.5-6.5,1.6L552.2,238z"/>
		<path class="st1" d="M587.9,270.8l1.7-48.9l-5.7,2.5l0.1-2l17.9-7.7l-0.1,2l-5.7,2.5l-1.7,48.9l5.7-2.5l-0.1,2l-17.9,7.7l0.1-2
			L587.9,270.8z M605.7,213l13.7-5.9l-0.1,2l-5.6,2.4l-12.7,23.2l16.6,23.3l3.6-1.5l-0.1,2l-17.9,7.7l0.1-2l6.3-2.7l-13.8-19.8
			l15.9-29.3l-6.2,2.7L605.7,213z"/>
	</g>
</g>
</svg>
